<svg width="400" height="400" viewBox="0 0 400 400" fill="none" xmlns="http://www.w3.org/2000/svg">
<g clip-path="url(#clip0)">
<circle cx="200" cy="200" r="200" fill="white"/>
<mask id="mask0" style="mask-type:alpha" maskUnits="userSpaceOnUse" x="0" y="0" width="400" height="400">
<circle cx="200" cy="200" r="200" fill="white"/>
</mask>
<g mask="url(#mask0)">
<path d="M-67 241.14L261.341 147L441 176.423L170.178 319L-67 241.14Z" fill="#B1E5F1"/>
</g>
<path d="M258.438 162.238L294.171 223.919" stroke="white" stroke-width="3" stroke-miterlimit="10" stroke-linecap="round" stroke-linejoin="round"/>
<path d="M240.892 167.448L274.072 224.724" stroke="white" stroke-width="3" stroke-miterlimit="10" stroke-linecap="round" stroke-linejoin="round"/>
<path d="M223.45 172.979L250.373 219.452" stroke="white" stroke-width="3" stroke-miterlimit="10" stroke-linecap="round" stroke-linejoin="round"/>
<path d="M206.009 179.146L225.684 213.108" stroke="white" stroke-width="3" stroke-miterlimit="10" stroke-linecap="round" stroke-linejoin="round"/>
<path d="M188.356 185.315L201.224 207.527" stroke="white" stroke-width="3" stroke-miterlimit="10" stroke-linecap="round" stroke-linejoin="round"/>
<path d="M169.851 189.994L176.444 201.373" stroke="white" stroke-width="3" stroke-miterlimit="10" stroke-linecap="round" stroke-linejoin="round"/>
<path d="M279.602 163.195L310.714 216.899" stroke="white" stroke-width="3" stroke-miterlimit="10" stroke-linecap="round" stroke-linejoin="round"/>
<path d="M301.934 167.236L326.289 209.275" stroke="white" stroke-width="3" stroke-miterlimit="10" stroke-linecap="round" stroke-linejoin="round"/>
<path d="M323.31 170.107L341.732 201.905" stroke="white" stroke-width="3" stroke-miterlimit="10" stroke-linecap="round" stroke-linejoin="round"/>
<path d="M344.579 174.787L356.039 194.567" stroke="white" stroke-width="3" stroke-miterlimit="10" stroke-linecap="round" stroke-linejoin="round"/>
<path d="M364.893 178.083L370.422 187.629" stroke="white" stroke-width="3" stroke-miterlimit="10" stroke-linecap="round" stroke-linejoin="round"/>
<path d="M246.216 195.812C246.149 195.812 246.083 195.806 246.016 195.795L194.976 186.946C194.579 186.877 194.298 186.614 194.298 186.312V102.902C194.298 102.716 194.406 102.538 194.594 102.415C194.756 102.308 194.963 102.251 195.176 102.251C195.211 102.251 195.247 102.253 195.282 102.256L245.534 106.811C245.972 106.851 246.303 107.126 246.305 107.453L247.092 195.156C247.094 195.356 246.972 195.545 246.763 195.669C246.606 195.763 246.412 195.812 246.216 195.812Z" fill="#111D4A"/>
<path d="M195.176 102.902L245.428 107.458L246.215 195.161L195.175 186.311V102.902H195.176ZM195.176 101.601C194.75 101.601 194.335 101.716 194.013 101.927C193.636 102.174 193.421 102.529 193.421 102.902V186.312C193.421 186.916 193.983 187.441 194.777 187.579L245.817 196.428C245.948 196.451 246.084 196.463 246.216 196.463C246.61 196.463 246.997 196.365 247.311 196.178C247.731 195.929 247.974 195.551 247.971 195.153L247.184 107.449C247.178 106.795 246.518 106.245 245.642 106.166L195.39 101.61C195.318 101.604 195.247 101.601 195.176 101.601Z" fill="white"/>
<path d="M247.161 195.841C246.987 195.841 246.814 195.803 246.667 195.728C246.428 195.607 246.284 195.408 246.283 195.194L245.653 107.228C245.65 106.91 245.957 106.638 246.378 106.584L286.391 101.385C286.442 101.379 286.492 101.376 286.543 101.376C286.747 101.376 286.948 101.429 287.108 101.528C287.306 101.651 287.42 101.834 287.42 102.026V183.859C287.42 184.128 287.197 184.368 286.859 184.466L247.476 195.797C247.376 195.826 247.268 195.841 247.161 195.841Z" fill="#111D4A"/>
<path d="M286.545 102.025V183.858L247.161 195.19L246.531 107.223L286.545 102.025ZM286.545 100.724C286.444 100.724 286.343 100.731 286.242 100.744L246.229 105.942C245.386 106.052 244.773 106.596 244.777 107.231L245.407 195.197C245.411 195.626 245.697 196.025 246.175 196.266C246.469 196.415 246.814 196.492 247.162 196.492C247.376 196.492 247.591 196.463 247.797 196.404L287.181 185.072C287.856 184.879 288.3 184.396 288.3 183.86V102.025C288.3 101.641 288.071 101.277 287.674 101.029C287.354 100.831 286.953 100.724 286.545 100.724Z" fill="white"/>
<path d="M245.483 106.819L195.23 102.379C194.796 102.341 194.466 102.071 194.457 101.747C194.447 101.423 194.762 101.143 195.193 101.091L240.404 95.6591C240.451 95.6539 240.497 95.6506 240.545 95.6506C240.583 95.6506 240.62 95.6526 240.657 95.6558L286.341 100.036C286.77 100.077 287.095 100.344 287.106 100.665C287.118 100.986 286.811 101.264 286.387 101.322L245.744 106.813C245.691 106.82 245.639 106.823 245.586 106.823C245.552 106.823 245.517 106.822 245.483 106.819Z" fill="#111D4A"/>
<path d="M240.545 96.3012L286.229 100.682L245.586 106.173L195.334 101.733L240.545 96.3012ZM240.545 95C240.451 95 240.357 95.0059 240.264 95.0169L195.053 100.449C194.19 100.552 193.561 101.113 193.579 101.761C193.597 102.409 194.257 102.949 195.127 103.025L245.379 107.465C245.447 107.471 245.517 107.474 245.586 107.474C245.691 107.474 245.797 107.467 245.9 107.453L286.543 101.962C287.394 101.847 288.004 101.29 287.983 100.648C287.961 100.007 287.311 99.4737 286.454 99.3911L240.77 95.0104C240.695 95.0032 240.62 95 240.545 95Z" fill="white"/>
<path d="M168 102H176.25M184.5 102H176.25M176.25 102V186H168H184.5" stroke="#111D4A" stroke-width="2"/>
<path d="M286.188 224.902C286.123 224.902 286.057 224.894 285.991 224.88L222.978 210.386C222.581 210.294 222.298 209.939 222.298 209.53V150.929C222.298 150.672 222.411 150.428 222.607 150.261C222.767 150.124 222.969 150.052 223.176 150.052C223.222 150.052 223.268 150.055 223.314 150.063L287.272 160.303C287.702 160.372 288.018 160.746 288.011 161.182L287.066 224.036C287.061 224.302 286.938 224.551 286.73 224.714C286.574 224.837 286.383 224.902 286.188 224.902Z" fill="#F9616D"/>
<path d="M223.176 150.929L287.133 161.169L286.188 224.024L223.176 209.53V150.929ZM223.176 149.174C222.761 149.174 222.356 149.321 222.037 149.594C221.647 149.927 221.421 150.416 221.421 150.929V209.53C221.421 210.348 221.986 211.057 222.783 211.24L285.795 225.734C285.925 225.764 286.058 225.779 286.188 225.779C286.577 225.779 286.96 225.65 287.271 225.405C287.688 225.078 287.934 224.58 287.943 224.051L288.888 161.195C288.901 160.323 288.272 159.574 287.411 159.436L223.453 149.196C223.361 149.181 223.268 149.174 223.176 149.174Z" fill="white"/>
<path d="M288.078 224.744C287.914 224.744 287.751 224.697 287.608 224.608C287.351 224.444 287.197 224.159 287.201 223.856L287.988 161.63C287.993 161.258 288.232 160.929 288.584 160.81L344.981 141.748C345.072 141.717 345.168 141.702 345.262 141.702C345.445 141.702 345.627 141.759 345.778 141.87C346.009 142.038 346.143 142.307 346.139 142.592L345.351 196.468C345.346 196.8 345.155 197.1 344.857 197.245L288.462 224.655C288.34 224.715 288.21 224.744 288.078 224.744Z" fill="#F9616D"/>
<path d="M345.263 142.58L344.475 196.456L288.079 223.866L288.866 161.641L345.263 142.58ZM345.263 140.825C345.074 140.825 344.884 140.856 344.7 140.917L288.304 159.979C287.598 160.217 287.12 160.875 287.111 161.619L286.324 223.844C286.316 224.452 286.625 225.023 287.139 225.348C287.425 225.53 287.751 225.622 288.079 225.622C288.341 225.622 288.604 225.564 288.846 225.445L345.241 198.035C345.838 197.746 346.219 197.145 346.229 196.482L347.017 142.606C347.026 142.037 346.757 141.498 346.296 141.162C345.992 140.94 345.629 140.825 345.263 140.825Z" fill="white"/>
<path d="M222.703 149.827L284.808 131.842L344.475 141.95L288.236 160.381L222.703 149.827Z" fill="#F9616D" stroke="white" stroke-miterlimit="10" stroke-linecap="round" stroke-linejoin="round"/>
<path d="M200 11.907C225.398 11.907 250.029 16.8787 273.211 26.6835C295.607 36.1567 315.724 49.72 333.002 66.9982C350.28 84.2758 363.844 104.393 373.318 126.789C383.122 149.971 388.094 174.602 388.094 200C388.094 225.397 383.122 250.029 373.318 273.21C363.844 295.607 350.281 315.724 333.002 333.002C315.724 350.28 295.607 363.844 273.211 373.317C250.029 383.122 225.398 388.093 200 388.093C174.603 388.093 149.971 383.121 126.79 373.317C104.393 363.844 84.2764 350.28 66.9988 333.002C49.7206 315.724 36.1567 295.607 26.6841 273.21C16.8787 250.029 11.907 225.398 11.907 200C11.907 174.603 16.8787 149.971 26.6835 126.79C36.1567 104.393 49.72 84.2764 66.9982 66.9988C84.2758 49.7206 104.393 36.1567 126.789 26.6841C149.971 16.8787 174.602 11.907 200 11.907ZM200 0C89.5428 0 0 89.5428 0 200C0 310.458 89.5428 400.001 200 400.001C310.458 400.001 400.001 310.458 400.001 200C400.001 89.5428 310.457 0 200 0Z" fill="#F1F1F1"/>
<path d="M51.7478 273.484L60.9369 276.498M70.126 279.512L60.9369 276.498M60.9369 276.498L201.017 214.672L193.663 212.61L209.842 217.147" stroke="#111D4A" stroke-width="2"/>
</g>
<defs>
<clipPath id="clip0">
<rect width="400" height="400" fill="white"/>
</clipPath>
</defs>
</svg>
