<svg width="400" height="400" viewBox="0 0 400 400" fill="none" xmlns="http://www.w3.org/2000/svg">
<g clip-path="url(#clip0)">
<circle cx="200" cy="200" r="200" fill="white"/>
<path d="M71.7455 297.448L221.038 331.477L337.948 282.628V304.034L221.588 361.666L71.7455 322.147V297.448Z" fill="#111D4A"/>
<path d="M324.114 278.786L323.97 207.331L324.082 206.931V204.353L243.565 218.959L243.69 313.868L244.708 314.291L324.082 282.954V278.765L324.114 278.786ZM265.465 301.376L247.842 308.018L247.888 221.673L265.51 218.357L265.465 301.376ZM286.001 293.674L268.575 300.479V217.769L286.001 214.537V293.674ZM304.074 286.69L288.583 292.69V214.05L304.074 211.061V286.69ZM321.948 279.777L306.709 285.83L306.834 210.573L321.996 207.792L321.948 279.777Z" fill="#BCC6CC"/>
<path d="M172.79 179.217L92.6429 193.796L92.874 288.705L93.7324 289.128L172.789 257.805V179.217H172.79ZM114.756 276.212L97.1332 282.854L97.1791 196.509L114.801 193.194L114.756 276.212ZM134.865 268.511L117.439 275.316V192.606L134.865 189.374V268.511ZM152.937 261.526L137.447 267.526V188.886L152.937 185.898V261.526ZM156 260.667L156.125 185.41L171.287 182.629L171.239 254.613L156 260.667Z" fill="#BCC6CC"/>
<path d="M147.76 110.55L71.8701 158.481L71.8959 161.813L220.621 177.489L222.137 177.075V171.704L147.76 110.55ZM198.788 157.315L182.401 168.514V143.916L198.788 157.315ZM179.355 141.426L148.18 164.904L148.414 116.128L179.355 141.426ZM145.695 164.62L114.386 135.855L145.695 116.154V164.62ZM111.262 161.152C108.329 158.898 98.3729 151.246 94.5668 148.325L111.262 137.821V161.152V161.152ZM79.4114 157.862L93.0817 149.26L109.935 162.282L79.4114 159.102V157.862ZM113.465 137.529L144.563 165.889L113.465 162.649V137.529ZM149.107 166.362L179.921 143.419V169.572L149.107 166.362ZM215.249 173.254L183.118 169.905L199.82 158.159L215.249 170.773V173.254V173.254Z" fill="#BCC6CC"/>
<path d="M46.8628 124.918L58.9382 127.114L184.081 93.8155L253.239 59.7856L245.921 41.8555L150.051 49.906L46.8628 124.918Z" fill="#111D4A"/>
<path d="M247.041 147.61L236.234 144.728L150.789 50.1935L266.999 39.4804L349.983 131.861L337.574 135.184L247.041 147.61Z" fill="#495377" stroke="white" stroke-width="2"/>
<mask id="path-8-inside-1" fill="white">
<path d="M267.144 39.1111L350.634 132.054L337.644 135.533L247.019 147.971L236.041 145.044L150.051 49.906L267.144 39.1111ZM267.671 37.766L267.025 37.8254L149.932 48.6203L147.363 48.8572L149.093 50.7715L235.084 145.909L235.34 146.192L235.708 146.291L246.686 149.218L246.937 149.285L247.194 149.25L337.819 136.811L337.899 136.8L337.978 136.779L350.967 133.301L353 132.756L351.593 131.191L268.104 38.2482L267.671 37.766Z"/>
</mask>
<path d="M267.144 39.1111L350.634 132.054L337.644 135.533L247.019 147.971L236.041 145.044L150.051 49.906L267.144 39.1111ZM267.671 37.766L267.025 37.8254L149.932 48.6203L147.363 48.8572L149.093 50.7715L235.084 145.909L235.34 146.192L235.708 146.291L246.686 149.218L246.937 149.285L247.194 149.25L337.819 136.811L337.899 136.8L337.978 136.779L350.967 133.301L353 132.756L351.593 131.191L268.104 38.2482L267.671 37.766Z" fill="#495377"/>
<path d="M267.144 39.1111L268.632 37.7746L267.961 37.0273L266.961 37.1196L267.144 39.1111ZM350.634 132.054L351.151 133.986L354.3 133.142L352.122 130.717L350.634 132.054ZM337.644 135.533L337.916 137.514L338.041 137.497L338.162 137.464L337.644 135.533ZM247.019 147.971L246.504 149.904L246.892 150.007L247.291 149.953L247.019 147.971ZM236.041 145.044L234.558 146.385L234.954 146.824L235.526 146.976L236.041 145.044ZM150.051 49.906L149.867 47.9144L145.887 48.2814L148.567 51.2471L150.051 49.906ZM267.671 37.766L269.159 36.4295L268.488 35.6824L267.488 35.7744L267.671 37.766ZM267.025 37.8254L266.842 35.8338L266.842 35.8338L267.025 37.8254ZM149.932 48.6203L149.749 46.6287L149.748 46.6287L149.932 48.6203ZM147.363 48.8572L147.18 46.8656L143.2 47.2326L145.879 50.198L147.363 48.8572ZM149.093 50.7715L147.609 52.1124L147.609 52.1126L149.093 50.7715ZM235.084 145.909L233.6 147.25L233.602 147.252L235.084 145.909ZM235.34 146.192L233.858 147.535L234.253 147.971L234.822 148.124L235.34 146.192ZM235.708 146.291L235.191 148.222L235.193 148.223L235.708 146.291ZM246.686 149.218L247.202 147.286L247.201 147.286L246.686 149.218ZM246.937 149.285L246.42 151.218L246.811 151.322L247.211 151.267L246.937 149.285ZM247.194 149.25L246.922 147.269L246.92 147.269L247.194 149.25ZM337.819 136.811L337.548 134.83L337.547 134.83L337.819 136.811ZM337.899 136.8L338.171 138.782L338.29 138.765L338.407 138.735L337.899 136.8ZM337.978 136.779L338.486 138.714L338.495 138.711L337.978 136.779ZM350.967 133.301L351.485 135.233L351.485 135.232L350.967 133.301ZM353 132.756L353.518 134.688L356.666 133.844L354.488 131.419L353 132.756ZM351.593 131.191L350.106 132.527L350.106 132.527L351.593 131.191ZM268.104 38.2482L266.616 39.5847L266.616 39.5847L268.104 38.2482ZM265.656 40.4476L349.146 133.39L352.122 130.717L268.632 37.7746L265.656 40.4476ZM350.116 130.122L337.127 133.601L338.162 137.464L351.151 133.986L350.116 130.122ZM337.372 133.551L246.747 145.99L247.291 149.953L337.916 137.514L337.372 133.551ZM247.534 146.039L236.557 143.111L235.526 146.976L246.504 149.904L247.534 146.039ZM237.525 143.703L151.535 48.5649L148.567 51.2471L234.558 146.385L237.525 143.703ZM150.234 51.8975L267.328 41.1027L266.961 37.1196L149.867 47.9144L150.234 51.8975ZM267.488 35.7744L266.842 35.8338L267.209 39.817L267.854 39.7576L267.488 35.7744ZM266.842 35.8338L149.749 46.6287L150.116 50.6118L267.209 39.817L266.842 35.8338ZM149.748 46.6287L147.18 46.8656L147.547 50.8487L150.116 50.6118L149.748 46.6287ZM145.879 50.198L147.609 52.1124L150.577 49.4307L148.847 47.5163L145.879 50.198ZM147.609 52.1126L233.6 147.25L236.567 144.568L150.577 49.4304L147.609 52.1126ZM233.602 147.252L233.858 147.535L236.822 144.849L236.565 144.566L233.602 147.252ZM234.822 148.124L235.191 148.222L236.226 144.359L235.858 144.26L234.822 148.124ZM235.193 148.223L246.171 151.151L247.201 147.286L236.224 144.358L235.193 148.223ZM246.169 151.15L246.42 151.218L247.454 147.353L247.202 147.286L246.169 151.15ZM247.211 151.267L247.468 151.231L246.92 147.269L246.663 147.304L247.211 151.267ZM247.466 151.231L338.091 138.793L337.547 134.83L246.922 147.269L247.466 151.231ZM338.091 138.793L338.171 138.782L337.628 134.819L337.548 134.83L338.091 138.793ZM338.407 138.735L338.486 138.714L337.47 134.845L337.392 134.866L338.407 138.735ZM338.495 138.711L351.485 135.233L350.45 131.369L337.461 134.848L338.495 138.711ZM351.485 135.232L353.518 134.688L352.482 130.824L350.45 131.369L351.485 135.232ZM354.488 131.419L353.081 129.854L350.106 132.527L351.512 134.093L354.488 131.419ZM353.081 129.854L269.592 36.9116L266.616 39.5847L350.106 132.527L353.081 129.854ZM269.592 36.9116L269.159 36.4295L266.183 39.1025L266.616 39.5847L269.592 36.9116Z" fill="white" mask="url(#path-8-inside-1)"/>
<path d="M190.79 241.646L191.522 317.451L221.527 323.611V245.792L190.79 241.646ZM195.241 285.862C194.082 285.862 193.143 284.923 193.143 283.764C193.143 282.606 194.082 281.667 195.241 281.667C196.399 281.667 197.338 282.606 197.338 283.764C197.338 284.923 196.399 285.862 195.241 285.862Z" fill="#F9616D"/>
<path d="M200 11.907C225.398 11.907 250.029 16.8787 273.211 26.6835C295.607 36.1567 315.724 49.72 333.002 66.9982C350.28 84.2758 363.844 104.393 373.318 126.789C383.122 149.971 388.094 174.602 388.094 200C388.094 225.397 383.122 250.029 373.318 273.21C363.844 295.607 350.281 315.724 333.002 333.002C315.724 350.28 295.607 363.844 273.211 373.317C250.029 383.122 225.398 388.093 200 388.093C174.603 388.093 149.971 383.121 126.79 373.317C104.393 363.844 84.2764 350.28 66.9988 333.002C49.7206 315.724 36.1567 295.607 26.6841 273.21C16.8787 250.029 11.907 225.398 11.907 200C11.907 174.603 16.8787 149.971 26.6835 126.79C36.1567 104.393 49.72 84.2764 66.9982 66.9988C84.2758 49.7206 104.393 36.1567 126.789 26.6841C149.971 16.8787 174.602 11.907 200 11.907ZM200 0C89.5428 0 0 89.5428 0 200C0 310.458 89.5428 400.001 200 400.001C310.458 400.001 400.001 310.458 400.001 200C400.001 89.5428 310.457 0 200 0Z" fill="#F1F1F1"/>
</g>
<defs>
<clipPath id="clip0">
<rect width="400" height="400" fill="white"/>
</clipPath>
</defs>
</svg>
