<svg width="400" height="201" viewBox="0 0 400 201" fill="none" xmlns="http://www.w3.org/2000/svg">
<path d="M0 0H400V200.575H0V0Z" fill="white"/>
<path d="M44 122C44 66.7715 88.7715 22 144 22H305.576C333.19 22 355.576 44.3858 355.576 72V103.15C355.576 144.571 321.997 178.15 280.576 178.15H69C55.1929 178.15 44 166.957 44 153.15V122Z" fill="#EBF7FF"/>
<path d="M122.037 34.8704L104.617 77.4601C103.378 80.4899 105.336 83.8734 108.58 84.3086L168.859 92.3935C171.536 92.7526 174.014 90.9208 174.456 88.2564L182.029 42.6155C182.502 39.7654 180.468 37.1087 177.593 36.8218L127.161 31.788C124.959 31.5682 122.875 32.8221 122.037 34.8704Z" fill="#89AEFA"/>
<path d="M132.714 42.3334L145.311 37.3036L154.563 44.8348L151.927 44.5658L148.646 56.6693L130.41 54.4099L135.054 42.5484L132.714 42.3334Z" stroke="white" stroke-width="0.5" stroke-miterlimit="10" stroke-linejoin="round"/>
<path d="M168.245 37.9492L157.271 87.7621L170.935 89.4835L180.133 38.9176L168.245 37.9492Z" stroke="white" stroke-width="0.5" stroke-miterlimit="10" stroke-linejoin="round"/>
<path d="M167.976 41.6072L165.394 53.6032L176.368 55.0018L178.735 42.7369L167.976 41.6072Z" stroke="white" stroke-width="0.5" stroke-miterlimit="10" stroke-linejoin="round"/>
<path d="M167.519 43.6783L178.251 44.9155" stroke="white" stroke-width="0.5" stroke-miterlimit="10" stroke-linejoin="round"/>
<path d="M166.873 46.61L177.685 47.9009" stroke="white" stroke-width="0.5" stroke-miterlimit="10" stroke-linejoin="round"/>
<path d="M177.578 48.6272L166.766 47.2555" stroke="white" stroke-width="0.5" stroke-miterlimit="10" stroke-linejoin="round"/>
<path d="M166.631 47.8472L177.417 49.1921" stroke="white" stroke-width="0.5" stroke-miterlimit="10" stroke-linejoin="round"/>
<path d="M177.255 49.8645L166.524 48.4119" stroke="white" stroke-width="0.5" stroke-miterlimit="10" stroke-linejoin="round"/>
<path d="M160.481 76.1426L158.006 87.1166L170.558 88.6946L172.638 77.5054L160.481 76.1426Z" stroke="white" stroke-width="0.5" stroke-miterlimit="10" stroke-linejoin="round"/>
<path d="M158.867 83.3869L171.203 84.929" stroke="white" stroke-width="0.5" stroke-miterlimit="10" stroke-linejoin="round"/>
<path d="M164.031 87.798L164.856 84.104" stroke="white" stroke-width="0.5" stroke-miterlimit="10" stroke-linejoin="round"/>
<path d="M118.916 52.9037C119.49 52.9755 160.158 58.2114 160.158 58.2114" stroke="white" stroke-width="0.5" stroke-miterlimit="10" stroke-linejoin="round"/>
<path d="M124.9 40.3725C124.328 40.2526 123.779 40.5639 123.673 41.0679C123.568 41.5718 123.946 42.0775 124.517 42.1974C125.089 42.3173 125.638 42.006 125.744 41.502C125.85 40.9981 125.472 40.4924 124.9 40.3725Z" stroke="white" stroke-width="0.5" stroke-miterlimit="10" stroke-linejoin="round"/>
<path d="M121.173 49.6784C120.601 49.5585 120.051 49.8698 119.946 50.3738C119.84 50.8777 120.218 51.3835 120.79 51.5034C121.362 51.6233 121.911 51.312 122.017 50.808C122.122 50.3041 121.744 49.7983 121.173 49.6784Z" stroke="white" stroke-width="0.5" stroke-miterlimit="10" stroke-linejoin="round"/>
<path d="M127.446 34.0427C126.875 33.9228 126.325 34.2341 126.22 34.7381C126.114 35.242 126.492 35.7477 127.064 35.8676C127.636 35.9875 128.185 35.6762 128.29 35.1722C128.396 34.6683 128.018 34.1626 127.446 34.0427Z" stroke="white" stroke-width="0.5" stroke-miterlimit="10" stroke-linejoin="round"/>
<path d="M125.681 41.4747L162.677 45.8479" stroke="white" stroke-width="0.5" stroke-miterlimit="10" stroke-linejoin="round" stroke-dasharray="6 6"/>
<path d="M128.289 35.1718L164.389 38.5587" stroke="white" stroke-width="0.5" stroke-miterlimit="10" stroke-linejoin="round" stroke-dasharray="6 6"/>
<path d="M122.014 50.8078L160.086 55.4858" stroke="white" stroke-width="0.5" stroke-miterlimit="10" stroke-linejoin="round" stroke-dasharray="6 6"/>
<path d="M119.776 80.3051L124.35 66.6259L146.551 69.8526L143.21 83.6021L119.776 80.3051Z" stroke="white" stroke-width="0.5" stroke-miterlimit="10" stroke-linejoin="round"/>
<path d="M122.209 66.3803L149.035 70.2736L150.834 63.3288L124.625 59.6459L122.209 66.3803Z" stroke="white" stroke-width="0.5" stroke-miterlimit="10" stroke-linejoin="round"/>
<path d="M108.588 78.6531L155.137 85.4668" stroke="white" stroke-width="0.5" stroke-miterlimit="10" stroke-linejoin="round"/>
<path d="M134.229 54.8045L136.955 46.9865L140.649 47.4885L138.174 55.3424" stroke="white" stroke-width="0.5" stroke-miterlimit="10" stroke-linejoin="round"/>
<path d="M141.832 47.5963L148.395 48.4929L146.781 53.8721L140.219 53.0473L141.832 47.5963Z" stroke="white" stroke-width="0.5" stroke-miterlimit="10" stroke-linejoin="round"/>
<path d="M125.156 70.6737L131.719 71.5703L130.078 77.1916L123.542 76.1248L125.156 70.6737Z" stroke="white" stroke-width="0.5" stroke-miterlimit="10" stroke-linejoin="round"/>
<path d="M136.803 72.5832L143.365 73.48L141.698 79.0475L135.189 78.0344L136.803 72.5832Z" stroke="white" stroke-width="0.5" stroke-miterlimit="10" stroke-linejoin="round"/>
<path d="M165.736 60.6855C165.164 60.5657 164.615 60.8771 164.509 61.3811C164.404 61.8852 164.782 62.391 165.353 62.5108C165.925 62.6307 166.474 62.3193 166.58 61.8153C166.686 61.3112 166.308 60.8054 165.736 60.6855Z" stroke="white" stroke-width="0.5" stroke-miterlimit="10" stroke-linejoin="round"/>
<path d="M164.907 64.3457C164.336 64.2259 163.786 64.5372 163.681 65.0411C163.575 65.5451 163.953 66.0508 164.525 66.1707C165.097 66.2906 165.646 65.9792 165.751 65.4753C165.857 64.9714 165.479 64.4656 164.907 64.3457Z" stroke="white" stroke-width="0.5" stroke-miterlimit="10" stroke-linejoin="round"/>
<path d="M164.05 68.1634C163.478 68.0435 162.929 68.3548 162.823 68.8587C162.717 69.3627 163.095 69.8684 163.667 69.9883C164.239 70.1082 164.789 69.7969 164.894 69.2929C165 68.789 164.622 68.2833 164.05 68.1634Z" stroke="white" stroke-width="0.5" stroke-miterlimit="10" stroke-linejoin="round"/>
<path d="M163.218 71.8253C162.646 71.7054 162.097 72.0167 161.991 72.5206C161.886 73.0246 162.264 73.5303 162.835 73.6502C163.407 73.7701 163.957 73.4588 164.062 72.9548C164.168 72.4509 163.79 71.9451 163.218 71.8253Z" stroke="white" stroke-width="0.5" stroke-miterlimit="10" stroke-linejoin="round"/>
<path d="M137.889 40.2671L138.585 38.1601L140.374 38.3626L140.002 39.4233" stroke="white" stroke-width="0.5" stroke-miterlimit="10"/>
<path d="M167.547 61.7862C167.554 61.5602 167.713 61.342 167.932 61.2836C168.15 61.2254 168.407 61.3468 168.485 61.559C168.563 61.7712 168.431 62.0405 168.211 62.0941C168.452 62.0789 168.692 62.0637 168.931 62.0486C168.963 62.0989 168.995 62.1493 169.027 62.1998C169.422 62.1588 169.818 62.1177 170.213 62.0768C170.182 61.9828 170.151 61.8889 170.12 61.7949C170.539 61.7537 170.917 62.2273 170.783 62.626C171.036 62.7825 171.424 62.5499 171.405 62.2529C171.882 62.0957 172.44 62.2148 172.811 62.5535C172.912 62.4285 173.014 62.3034 173.115 62.1784C173.031 62.3613 173.095 62.5997 173.258 62.7171C173.422 62.8344 173.668 62.8175 173.814 62.6787C173.77 62.7092 173.726 62.7399 173.681 62.7707" stroke="white" stroke-width="0.5" stroke-miterlimit="10" stroke-linejoin="round"/>
<path d="M166.769 65.4464C166.798 65.1324 167.237 64.9386 167.475 65.1456C167.697 65.3396 167.639 65.7241 167.432 65.9359C167.226 66.1476 166.925 66.2306 166.639 66.3053C166.5 66.223 166.579 65.9786 166.735 65.9368C166.891 65.8954 167.052 65.9917 167.165 66.1069C167.278 66.2223 167.37 66.3625 167.507 66.4478C167.645 66.5332 167.853 66.5395 167.944 66.4059C168.035 66.2723 167.857 66.0456 167.729 66.1438C167.601 66.2419 167.755 66.4684 167.915 66.448C168.075 66.4278 168.182 66.2767 168.262 66.1367C168.342 65.9967 168.431 65.8406 168.586 65.795C168.749 65.9295 168.795 66.1858 168.69 66.3685C168.839 66.316 168.988 66.2635 169.138 66.211C169.175 66.38 169.379 66.49 169.54 66.4284C169.702 66.3666 169.781 66.1492 169.696 65.9983C170.108 66.0654 170.52 66.1326 170.932 66.1997C170.751 66.2862 170.57 66.3728 170.39 66.4593C170.672 66.5546 171.015 66.3282 171.037 66.0306C171.28 65.9006 171.628 66.0636 171.684 66.3339C171.824 66.3321 171.965 66.3303 172.105 66.3287C171.96 66.3721 171.894 66.5759 171.985 66.6965C172.281 66.4839 172.738 66.5432 172.97 66.8245C172.931 66.7774 172.891 66.7304 172.852 66.6832" stroke="white" stroke-width="0.5" stroke-miterlimit="10" stroke-linejoin="round"/>
<path d="M166.048 69.2043C166.197 69.6226 166.346 70.0411 166.495 70.4592C166.51 70.1327 166.741 69.8264 167.051 69.7237C167.361 69.6208 167.73 69.7282 167.937 69.9816C168.049 70.0506 168.161 70.1193 168.273 70.1883C168.258 70.1549 168.244 70.1215 168.229 70.0879C168.342 70.2204 168.589 70.0243 168.511 69.8684C168.434 69.7125 168.175 69.7284 168.08 69.8741C167.985 70.0199 168.034 70.2249 168.15 70.3546C168.413 70.6484 168.982 70.5376 169.116 70.1667C169.089 70.229 169.062 70.291 169.035 70.3531C169.308 70.3619 169.581 70.3708 169.854 70.3794C169.908 70.1302 170.148 69.9345 170.402 69.9309C170.399 70.2138 170.396 70.4969 170.394 70.78C170.555 70.525 170.717 70.2701 170.878 70.0152C170.886 70.3117 170.893 70.6084 170.901 70.9049C171.073 70.5762 171.565 70.4726 171.855 70.7036C171.89 70.7909 171.926 70.8784 171.962 70.9658C172.074 70.7973 172.186 70.6289 172.299 70.4607C172.151 70.7287 172.148 71.0718 172.292 71.3423C172.252 71.291 172.212 71.2397 172.173 71.1883" stroke="white" stroke-width="0.5" stroke-miterlimit="10" stroke-linejoin="round"/>
<path d="M164.852 73.0202C165.294 73.0941 165.736 73.1681 166.178 73.2422C165.832 73.2551 165.503 73.4755 165.358 73.7895C165.733 73.8881 166.108 73.9865 166.483 74.0849C166.332 73.7411 166.383 73.3167 166.612 73.0188C166.843 73.0456 167.073 73.0725 167.304 73.0993C167.167 73.2595 167.03 73.4199 166.893 73.5801C167.163 73.6119 167.441 73.4314 167.523 73.1729C167.507 73.3072 167.49 73.4417 167.474 73.576C167.626 73.4596 167.778 73.3429 167.929 73.2263C167.907 73.3644 167.884 73.5026 167.862 73.6405C168.033 73.4878 168.204 73.3349 168.375 73.1822C168.384 73.3678 168.655 73.4726 168.787 73.3417C168.63 73.3231 168.472 73.4494 168.455 73.6057C168.536 73.6487 168.617 73.6918 168.699 73.7352C168.345 73.8563 167.993 73.9772 167.64 74.0983C167.849 74.1769 168.039 74.3038 168.255 74.3603C168.471 74.4164 168.737 74.3792 168.859 74.1924C168.981 74.0054 168.822 73.6846 168.605 73.7371C168.611 74.0145 168.834 74.2715 169.108 74.3167C169.381 74.3621 169.675 74.1904 169.77 73.9298C169.808 73.7959 169.846 73.6621 169.884 73.5282C170.04 73.7993 170.196 74.0702 170.352 74.3414C170.699 74.216 170.987 73.9352 171.12 73.5914C171.2 73.8355 171.28 74.0795 171.359 74.3239" stroke="white" stroke-width="0.5" stroke-miterlimit="10" stroke-linejoin="round"/>
<path d="M168.615 42.3877C168.527 42.6501 168.439 42.9125 168.351 43.1747C168.66 42.7715 169.353 42.7546 169.682 43.1422C169.727 42.9177 169.565 42.6722 169.341 42.626C169.611 42.5926 169.881 42.5594 170.151 42.526C169.986 42.7885 170.113 43.1852 170.4 43.3036C170.393 43.1064 170.481 42.9082 170.632 42.7814C170.643 42.8441 170.653 42.9068 170.664 42.9694C170.939 43.2658 172.304 43.3206 172.658 43.1243C172.886 43.1656 173.135 43.0541 173.256 42.8562C173.462 42.9925 173.669 43.1288 173.876 43.2652C173.84 43.3588 173.805 43.4526 173.769 43.5463C174.047 43.2736 174.48 43.1729 174.85 43.2952C174.887 43.177 174.925 43.0589 174.963 42.9409C174.698 42.9609 174.637 43.3688 174.821 43.5588C175.005 43.7489 175.297 43.7728 175.561 43.785C175.505 43.7805 175.447 43.776 175.39 43.7716C175.613 43.7993 175.755 43.4461 175.575 43.312C175.717 43.3002 175.859 43.2883 176 43.2763C176.019 43.4438 176.037 43.6112 176.056 43.7787C176.302 43.8939 176.625 43.6192 176.551 43.3577C176.55 43.471 176.651 43.5749 176.764 43.5772C176.878 43.5797 176.983 43.4803 176.987 43.367C177.178 43.5342 177.369 43.7014 177.56 43.8686C177.467 43.8414 177.374 43.8141 177.281 43.7867" stroke="white" stroke-width="0.5" stroke-miterlimit="10" stroke-linejoin="round"/>
<path d="M169.738 46.1309C169.46 46.1759 169.24 45.858 168.916 45.8773C168.916 45.8768 169.073 45.9866 169.021 45.9236C168.9 45.9061 168.596 45.7723 168.638 45.5964C168.718 45.2597 168.707 45.534 168.997 45.4176C169.358 45.272 169.735 45.2963 170.026 45.5456C170.001 45.4944 169.751 44.8357 169.792 44.8314C169.913 44.8189 170.035 44.8062 170.157 44.7937C170.036 44.8308 169.915 44.8682 169.794 44.9053C169.822 44.8255 169.85 44.7456 169.879 44.6658C169.815 44.7966 169.614 44.8316 169.51 44.7301C169.472 44.8716 169.26 44.9252 169.16 44.8185C169.171 44.7567 169.181 44.6951 169.192 44.6333C169.121 44.5762 169.038 44.5154 168.949 44.532C168.86 44.5486 168.814 44.6953 168.899 44.7267C168.764 44.6724 168.656 44.554 168.614 44.4142C168.593 44.614 168.317 44.7321 168.158 44.6087C168.048 44.7273 167.938 44.8457 167.827 44.9643" stroke="white" stroke-width="0.5" stroke-miterlimit="10" stroke-linejoin="round"/>
<path d="M171.961 51.5533C171.868 51.3432 171.64 51.2009 171.41 51.2095C171.407 51.3406 171.199 51.3516 171.103 51.2622C171.007 51.1727 170.959 51.0348 170.846 50.9671C170.709 50.8844 170.504 50.96 170.453 51.1121C170.402 51.2643 170.52 51.4484 170.679 51.4656C170.483 51.4104 170.376 51.1536 170.474 50.9755C170.296 51.3193 169.918 51.5497 169.531 51.5503C169.709 51.3486 169.886 51.1471 170.064 50.9455C169.857 51.1486 169.65 51.3516 169.443 51.5549C169.439 51.2648 169.262 50.9839 169.001 50.856C169.16 50.9371 169.12 51.1982 168.973 51.2975C168.825 51.397 168.631 51.3836 168.454 51.3679C168.277 51.3522 168.083 51.3422 167.938 51.4463C167.989 51.2139 168.04 50.9816 168.091 50.7492" stroke="white" stroke-width="0.5" stroke-miterlimit="10" stroke-linejoin="round"/>
<path d="M173.168 51.5468C173.129 51.6469 173.09 51.7467 173.052 51.8467C173.334 51.8839 173.617 51.9212 173.899 51.9585C174.136 52.0444 174.374 52.1305 174.611 52.2166C174.501 52.1277 174.391 52.0385 174.281 51.9496" stroke="white" stroke-width="0.5" stroke-miterlimit="10" stroke-linejoin="round"/>
<path d="M163.28 79.5021C162.922 80.2199 162.991 81.131 163.452 81.7872C163.761 82.2267 164.224 82.5445 164.728 82.7329C165.571 83.0487 166.555 83.0017 167.34 82.5602C168.125 82.1188 168.685 81.2776 168.738 80.3783C168.791 79.479 168.311 78.5565 167.52 78.1254C166.3 77.4604 163.9 78.2579 163.28 79.5021Z" stroke="white" stroke-width="0.5" stroke-miterlimit="10" stroke-linejoin="round"/>
<path d="M159.363 84.0478C159.231 84.0801 159.133 84.2164 159.144 84.3518C159.156 84.4871 159.276 84.605 159.411 84.6143C159.586 84.6264 159.727 84.4855 159.871 84.3866C160.015 84.2876 160.248 84.2433 160.337 84.3937C160.286 84.3153 160.236 84.2367 160.185 84.1581C160.353 84.056 160.606 84.1469 160.671 84.333C160.735 84.5191 160.594 84.747 160.398 84.7713C160.693 84.6181 161.042 84.5689 161.368 84.635C161.37 84.5021 161.371 84.3693 161.372 84.2364C161.581 84.3732 161.789 84.51 161.997 84.6468C161.971 84.7559 161.841 84.8276 161.735 84.7917C162.006 84.9408 162.397 84.7509 162.448 84.4461C162.475 84.5984 162.637 84.7129 162.79 84.6877C162.746 84.7652 162.702 84.8424 162.659 84.9197C162.784 84.8819 162.909 84.8438 163.034 84.806C163.061 84.7438 163.089 84.6816 163.116 84.6195C163.119 84.7443 163.122 84.869 163.125 84.994C163.199 84.9978 163.257 84.9026 163.22 84.8388" stroke="white" stroke-width="0.5" stroke-miterlimit="10" stroke-linejoin="round"/>
<path d="M165.456 84.8099C165.703 85.0856 165.95 85.3614 166.197 85.637C166.404 85.4657 166.61 85.2944 166.817 85.1232C166.748 84.9165 166.472 84.8111 166.282 84.9186C166.661 85.0169 167.04 85.1151 167.42 85.2132C167.322 85.3121 167.224 85.4107 167.126 85.5095C167.456 85.6408 167.874 85.4852 168.038 85.1699C168.349 85.2921 168.659 85.4141 168.97 85.5364C168.808 85.6179 168.646 85.6993 168.484 85.781C168.673 85.9165 168.944 85.9255 169.141 85.8024C169.338 85.6793 169.45 85.432 169.411 85.2028C169.63 85.4339 169.96 85.5547 170.276 85.5189C170.308 85.5607 170.341 85.6027 170.373 85.6445" stroke="white" stroke-width="0.5" stroke-miterlimit="10" stroke-linejoin="round"/>
<path d="M163.999 80.0568C163.895 80.7703 164.367 81.503 165.032 81.7795C165.698 82.0558 166.501 81.9027 167.074 81.4656C167.581 81.0793 167.931 80.4108 167.748 79.8001C167.622 79.3777 167.262 79.0523 166.852 78.8889C165.874 78.4988 164.178 78.8221 163.999 80.0568Z" stroke="white" stroke-width="0.5" stroke-miterlimit="10" stroke-linejoin="round"/>
<path d="M159.11 85.7027C159.075 85.8508 159.041 85.9989 159.006 86.1469C159.294 86.0264 159.581 85.9058 159.869 85.7854C159.865 85.8546 159.86 85.9237 159.855 85.993C159.798 85.8874 159.74 85.7821 159.682 85.6767C160.077 85.5918 160.505 85.6708 160.843 85.891C160.823 86.1486 160.54 86.3511 160.289 86.2877C160.632 86.0778 161.064 86.0194 161.45 86.1309C161.51 85.9648 161.569 85.7988 161.629 85.6327C161.397 85.7924 161.41 86.1986 161.652 86.3432C161.893 86.4879 162.257 86.3073 162.289 86.0275C162.392 86.1805 162.33 86.4186 162.165 86.5015C161.999 86.5842 161.771 86.4915 161.711 86.3172C161.87 86.4547 162.112 86.487 162.302 86.3959C162.491 86.3048 162.617 86.0955 162.609 85.8856C162.659 86.1073 162.53 86.3554 162.32 86.4424" stroke="white" stroke-width="0.5" stroke-miterlimit="10" stroke-linejoin="round"/>
<path d="M165.032 86.4574C165.008 86.627 164.984 86.7967 164.96 86.9665C164.943 86.7603 165.154 86.5677 165.358 86.604C165.562 86.6401 165.693 86.8935 165.606 87.0814C165.522 87.1134 165.421 87.0183 165.447 86.9321C165.657 86.9424 165.868 86.9526 166.077 86.963" stroke="white" stroke-width="0.5" stroke-miterlimit="10" stroke-linejoin="round"/>
<path d="M168.163 86.7254C167.93 86.7651 167.766 87.0351 167.839 87.2602C168.038 87.1594 168.279 87.2295 168.487 87.3104C168.696 87.3911 168.921 87.4829 169.136 87.4195C169.35 87.3561 169.491 87.0478 169.32 86.9035C169.412 86.9503 169.504 86.9971 169.596 87.0441C169.445 86.9432 169.295 86.8421 169.144 86.7413C169.628 86.5708 170.222 86.9315 170.293 87.4388" stroke="white" stroke-width="0.5" stroke-miterlimit="10" stroke-linejoin="round"/>
<path d="M162.027 78.9076C161.565 79.5085 161.104 80.1093 160.642 80.7099C160.556 80.4054 160.809 80.088 161.11 79.99C161.411 79.8919 161.738 79.955 162.047 80.0252C162.355 80.0957 162.676 80.1727 162.984 80.1009C163.293 80.0291 163.579 79.7542 163.547 79.4393C163.514 79.1246 163.037 78.9342 162.858 79.1955C162.74 79.3675 162.82 79.6172 162.976 79.7549C163.133 79.8926 163.344 79.946 163.547 79.9952C164.056 80.1184 164.564 80.2418 165.073 80.3651C165.238 80.4051 165.434 80.4377 165.56 80.3231C165.685 80.2084 165.556 79.9255 165.41 80.0132C165.549 80.0705 165.688 80.128 165.826 80.1854C165.774 80.2695 165.721 80.3536 165.669 80.4377C165.994 80.4683 166.32 80.4988 166.646 80.5294C166.764 80.2804 166.881 80.0314 166.999 79.7824C167.228 79.8991 167.457 80.0159 167.685 80.1325C167.503 80.2865 167.32 80.4404 167.138 80.5942C167.833 80.3397 168.529 80.0854 169.225 79.831C168.836 79.931 168.432 80.0393 168.132 80.3059C167.833 80.5724 167.679 81.0491 167.899 81.3844C168.023 81.573 168.241 81.6828 168.463 81.7237C169.161 81.8523 169.901 81.2597 169.929 80.551C169.711 80.6646 169.493 80.778 169.276 80.8916C169.461 80.765 169.646 80.6381 169.83 80.5113C169.767 80.9437 170.169 81.381 170.606 81.3538" stroke="white" stroke-width="0.5" stroke-miterlimit="10" stroke-linejoin="round"/>
<path d="M121.094 50.1744C121.037 50.5036 120.979 50.8326 120.922 51.1618" stroke="white" stroke-width="0.5" stroke-miterlimit="10" stroke-linejoin="round"/>
<path d="M124.393 40.9417C124.55 40.899 124.708 40.8563 124.865 40.8138C124.948 41.0033 124.91 41.2402 124.77 41.393C124.631 41.5459 124.398 41.6065 124.202 41.5413C124.395 41.4082 124.698 41.4852 124.804 41.694" stroke="white" stroke-width="0.5" stroke-miterlimit="10" stroke-linejoin="round"/>
<path d="M126.888 34.6717C126.984 34.479 127.293 34.4449 127.428 34.6122C127.371 34.6515 127.314 34.6906 127.257 34.7297C127.482 34.726 127.675 34.9664 127.623 35.1848C127.572 35.4033 127.291 35.5315 127.092 35.4276" stroke="white" stroke-width="0.5" stroke-miterlimit="10" stroke-linejoin="round"/>
<path d="M150.189 42.8974C151.661 42.1646 153.133 41.4318 154.605 40.6992" stroke="white" stroke-width="0.5" stroke-miterlimit="10" stroke-linejoin="round"/>
<path d="M151.215 71.5978C149.389 72.1729 147.479 73.0148 145.598 73.3605C145.066 73.458 144.284 73.3404 143.967 72.893C143.604 72.3799 143.612 71.5431 142.636 71.7283C142.566 71.1138 141.71 70.7614 141.227 71.1475C140.832 70.721 140.115 70.6435 139.638 70.9757C139.445 70.4384 138.614 70.2873 138.244 70.7222C138.395 70.5451 137.607 70.3377 137.523 70.3459C137.245 70.3731 136.803 70.5826 136.555 70.6944C136.01 70.9394 134.92 71.5174 135.588 72.2402C135.06 72.15 134.581 72.8245 134.841 73.2933C134.178 73.4757 133.887 74.4275 134.334 74.9497C134.01 75.0288 133.748 75.3201 133.704 75.6511C133.66 75.9822 133.836 76.3318 134.129 76.4929C133.443 76.963 133.396 78.1182 134.042 78.6422C134.532 79.6353 136.007 79.961 136.87 79.2666C137.158 79.9232 138.067 80.2124 138.682 79.8435C139.197 80.5513 140.408 80.5755 140.951 79.8884C141.56 80.252 142.327 79.8691 142.929 79.492C143.427 79.1798 143.998 78.6381 143.737 78.1116C144.366 78.0559 144.726 77.1637 144.312 76.6868C144.632 76.553 144.847 76.2001 144.819 75.8538C144.79 75.5077 144.52 75.1946 144.182 75.1153C144.58 74.8981 144.826 74.4307 144.78 73.9795C144.77 73.8754 144.744 73.7736 144.705 73.6769" stroke="white" stroke-width="0.5" stroke-miterlimit="10" stroke-linejoin="round"/>
<path d="M155.801 40.9417C155.67 41.1364 155.539 41.3313 155.408 41.5261C155.578 41.3634 155.852 41.4663 156.076 41.5375C156.3 41.6088 156.635 41.567 156.65 41.3325C156.582 41.455 156.678 41.6327 156.817 41.6442C156.957 41.6556 157.08 41.4958 157.033 41.3639C157.114 41.5711 157.313 41.7272 157.534 41.7567C157.446 41.7488 157.358 41.741 157.27 41.7331C157.579 41.8633 157.981 41.6886 158.097 41.3732C158.102 41.5549 158.108 41.7367 158.114 41.9183C158.053 41.8176 157.993 41.717 157.932 41.6163C158.206 41.846 158.693 41.7226 158.824 41.39C158.641 41.4247 158.575 41.711 158.725 41.8219C158.876 41.9328 159.13 41.7858 159.109 41.6002C159.066 41.8021 159.014 42.0184 158.859 42.1552C158.705 42.292 158.412 42.285 158.334 42.0937C158.799 42.1827 159.306 41.9894 159.594 41.6136C159.656 41.7574 159.818 41.8512 159.974 41.8335C160.13 41.816 160.267 41.6886 160.296 41.5345C160.381 41.7099 160.34 41.9374 160.201 42.0732C160.061 42.2089 159.833 42.2427 159.66 42.1534C160.017 42.2211 160.374 42.2889 160.731 42.3566" stroke="white" stroke-width="0.5" stroke-miterlimit="10" stroke-linejoin="round"/>
<path d="M153.145 69.8473C153.439 70.6335 153.732 71.4201 154.026 72.2065C153.609 72.0856 151.843 71.8434 151.675 71.422C151.429 70.8101 153.256 70.2763 153.145 69.8473Z" stroke="white" stroke-width="0.5" stroke-miterlimit="10" stroke-linejoin="round"/>
<path d="M152.898 70.6662C152.84 70.9371 152.782 71.2079 152.724 71.479" stroke="white" stroke-width="0.5" stroke-miterlimit="10" stroke-linejoin="round"/>
<path d="M132.694 46.3408C132.616 46.608 132.537 46.8752 132.458 47.1425C132.482 46.9984 132.507 46.8543 132.531 46.7101C133.765 46.8566 134.999 47.0032 136.233 47.1497C136.271 47.0198 136.31 46.8902 136.349 46.7603C136.28 47.112 136.086 47.4376 135.81 47.6662" stroke="white" stroke-width="0.5" stroke-miterlimit="10" stroke-linejoin="round"/>
<path d="M111.566 70.9051C111.643 71.2168 111.72 71.5287 111.797 71.8403C112.11 71.5947 112.423 71.3492 112.737 71.1036C112.679 71.3113 112.621 71.5192 112.563 71.7269C112.974 71.4974 113.189 70.9675 113.055 70.5167C113.194 70.835 113.533 71.0552 113.881 71.0532C113.846 70.9378 113.81 70.8228 113.775 70.7074C113.988 70.6949 114.205 70.8024 114.323 70.9803C114.493 70.7555 114.664 70.5306 114.834 70.3059C114.963 70.526 115.093 70.7464 115.223 70.9664C115.413 70.6213 115.602 70.2766 115.792 69.9316C115.629 70.1427 115.74 70.4829 115.973 70.6129C116.205 70.743 116.506 70.6937 116.733 70.5529C116.959 70.4124 117.125 70.1939 117.277 69.9742C117.146 70.1111 117.285 70.3697 117.474 70.384C117.663 70.3981 117.828 70.2347 117.882 70.053C117.936 69.8714 117.906 69.677 117.875 69.49C118.006 69.7997 118.137 70.1095 118.269 70.4192" stroke="white" stroke-width="0.5" stroke-miterlimit="10" stroke-linejoin="round"/>
<path d="M115.744 71.6975C116.011 71.5298 116.377 71.6 116.629 71.7893C116.882 71.9784 117.043 72.2631 117.18 72.5471C117.864 73.9576 118.142 75.5618 117.973 77.1202C117.799 76.9051 117.625 76.6901 117.451 76.475C117.642 76.6994 117.833 76.9237 118.024 77.148C118.281 76.7639 118.539 76.3795 118.797 75.9955" stroke="white" stroke-width="0.5" stroke-miterlimit="10" stroke-linejoin="round"/>
<path d="M66 130.256L239.865 80.3256L335 95.9312L191.592 171.552L66 130.256Z" fill="#B1E5F1"/>
<path d="M238.409 88.6104L257.314 121.245" stroke="white" stroke-width="2" stroke-miterlimit="10" stroke-linecap="round" stroke-linejoin="round"/>
<path d="M229.125 91.3672L246.68 121.671" stroke="white" stroke-width="2" stroke-miterlimit="10" stroke-linecap="round" stroke-linejoin="round"/>
<path d="M219.896 94.2935L234.141 118.882" stroke="white" stroke-width="2" stroke-miterlimit="10" stroke-linecap="round" stroke-linejoin="round"/>
<path d="M210.669 97.5566L221.079 115.525" stroke="white" stroke-width="2" stroke-miterlimit="10" stroke-linecap="round" stroke-linejoin="round"/>
<path d="M201.328 100.82L208.137 112.572" stroke="white" stroke-width="2" stroke-miterlimit="10" stroke-linecap="round" stroke-linejoin="round"/>
<path d="M191.538 103.296L195.027 109.316" stroke="white" stroke-width="2" stroke-miterlimit="10" stroke-linecap="round" stroke-linejoin="round"/>
<path d="M249.606 89.1169L266.067 117.531" stroke="white" stroke-width="2" stroke-miterlimit="10" stroke-linecap="round" stroke-linejoin="round"/>
<path d="M261.422 91.2549L274.307 113.497" stroke="white" stroke-width="2" stroke-miterlimit="10" stroke-linecap="round" stroke-linejoin="round"/>
<path d="M272.732 92.7742L282.478 109.598" stroke="white" stroke-width="2" stroke-miterlimit="10" stroke-linecap="round" stroke-linejoin="round"/>
<path d="M283.984 95.2501L290.048 105.716" stroke="white" stroke-width="2" stroke-miterlimit="10" stroke-linecap="round" stroke-linejoin="round"/>
<path d="M294.733 96.9941L297.658 102.045" stroke="white" stroke-width="2" stroke-miterlimit="10" stroke-linecap="round" stroke-linejoin="round"/>
<path d="M231.942 106.374C231.907 106.374 231.872 106.371 231.836 106.365L204.831 101.683C204.622 101.647 204.473 101.508 204.473 101.348V57.2165C204.473 57.118 204.53 57.024 204.63 56.9586C204.715 56.9025 204.825 56.8722 204.937 56.8722C204.956 56.8722 204.975 56.8729 204.993 56.8746L231.581 59.285C231.813 59.306 231.988 59.4512 231.989 59.6244L232.406 106.027C232.407 106.133 232.342 106.233 232.231 106.299C232.149 106.348 232.046 106.374 231.942 106.374Z" fill="#111D4A"/>
<path d="M204.937 57.2165L231.525 59.6268L231.942 106.03L204.937 101.347V57.2165H204.937ZM204.937 56.528C204.712 56.528 204.492 56.5889 204.322 56.7008C204.123 56.8313 204.009 57.0192 204.009 57.2165V101.348C204.009 101.668 204.306 101.945 204.726 102.018L231.731 106.7C231.8 106.712 231.872 106.719 231.942 106.719C232.15 106.719 232.355 106.667 232.521 106.568C232.744 106.436 232.872 106.236 232.87 106.025L232.454 59.6223C232.451 59.276 232.102 58.9855 231.638 58.9435L205.05 56.5331C205.012 56.5297 204.975 56.528 204.937 56.528Z" fill="white"/>
<path d="M232.442 106.389C232.35 106.389 232.258 106.369 232.18 106.33C232.054 106.266 231.978 106.16 231.977 106.047L231.644 59.5053C231.642 59.3373 231.805 59.1934 232.028 59.1645L253.198 56.4141C253.225 56.4106 253.251 56.4089 253.278 56.4089C253.386 56.4089 253.493 56.4371 253.577 56.4895C253.682 56.5549 253.742 56.6512 253.742 56.7531V100.05C253.742 100.192 253.625 100.32 253.446 100.371L232.608 106.366C232.555 106.382 232.498 106.389 232.442 106.389Z" fill="#111D4A"/>
<path d="M253.28 56.7528V100.05L232.442 106.045L232.109 59.5029L253.28 56.7528ZM253.28 56.0643C253.226 56.0643 253.173 56.0678 253.119 56.0747L231.949 58.8251C231.503 58.8829 231.179 59.1711 231.181 59.5071L231.514 106.049C231.516 106.276 231.667 106.487 231.92 106.615C232.076 106.693 232.259 106.734 232.443 106.734C232.556 106.734 232.67 106.719 232.779 106.687L253.616 100.692C253.974 100.589 254.208 100.334 254.208 100.05V56.7528C254.208 56.5494 254.087 56.3566 253.877 56.2258C253.708 56.1208 253.496 56.0643 253.28 56.0643Z" fill="white"/>
<path d="M231.554 59.2888L204.966 56.94C204.736 56.9197 204.562 56.7768 204.557 56.6054C204.551 56.434 204.718 56.286 204.946 56.2584L228.867 53.3844C228.892 53.3816 228.916 53.3799 228.941 53.3799C228.961 53.3799 228.981 53.3809 229.001 53.3827L253.172 55.7004C253.399 55.7221 253.57 55.8632 253.576 56.033C253.582 56.2027 253.42 56.35 253.196 56.3806L231.692 59.2857C231.664 59.2894 231.636 59.2912 231.609 59.2912C231.591 59.2912 231.572 59.2905 231.554 59.2888Z" fill="#111D4A"/>
<path d="M228.941 53.7242L253.111 56.0419L231.608 58.947L205.02 56.5982L228.941 53.7242ZM228.941 53.0357C228.891 53.0357 228.841 53.0388 228.792 53.0447L204.871 55.9187C204.415 55.9734 204.082 56.2698 204.091 56.6127C204.101 56.9559 204.45 57.2413 204.91 57.2819L231.498 59.6306C231.535 59.6337 231.571 59.6354 231.608 59.6354C231.664 59.6354 231.719 59.6316 231.774 59.6244L253.278 56.7194C253.728 56.6585 254.051 56.3635 254.039 56.024C254.028 55.685 253.684 55.4027 253.231 55.359L229.06 53.0412C229.02 53.0374 228.98 53.0357 228.941 53.0357Z" fill="white"/>
<path d="M253.091 121.765C253.057 121.765 253.022 121.761 252.987 121.753L219.648 114.085C219.437 114.037 219.288 113.849 219.288 113.632V82.6271C219.288 82.491 219.347 82.362 219.451 82.2738C219.536 82.2014 219.642 82.1629 219.752 82.1629C219.777 82.1629 219.801 82.1647 219.825 82.1689L253.665 87.5866C253.892 87.6232 254.059 87.821 254.055 88.0517L253.556 121.307C253.553 121.448 253.488 121.579 253.378 121.666C253.296 121.731 253.194 121.765 253.091 121.765Z" fill="#F9616D"/>
<path d="M219.752 82.6271L253.591 88.0447L253.091 121.301L219.752 113.632V82.6271ZM219.752 81.6987C219.532 81.6987 219.318 81.7762 219.149 81.9206C218.943 82.097 218.823 82.3555 218.823 82.6271V113.632C218.823 114.065 219.122 114.44 219.544 114.537L252.883 122.206C252.952 122.221 253.022 122.229 253.091 122.229C253.297 122.229 253.499 122.161 253.664 122.032C253.884 121.858 254.015 121.595 254.019 121.315L254.519 88.0587C254.526 87.5972 254.193 87.2008 253.738 87.128L219.898 81.7103C219.85 81.7024 219.8 81.6987 219.752 81.6987Z" fill="white"/>
<path d="M254.091 121.682C254.004 121.682 253.918 121.657 253.842 121.61C253.706 121.523 253.625 121.372 253.627 121.212L254.043 88.2889C254.046 88.0921 254.172 87.918 254.359 87.8549L284.198 77.7697C284.246 77.753 284.296 77.7451 284.346 77.7451C284.443 77.7451 284.539 77.7753 284.619 77.8342C284.742 77.9229 284.813 78.0654 284.81 78.2163L284.393 106.721C284.391 106.897 284.289 107.056 284.132 107.132L254.294 121.635C254.23 121.666 254.161 121.682 254.091 121.682Z" fill="#F9616D"/>
<path d="M284.347 78.2097L283.93 106.715L254.092 121.217L254.508 88.2945L284.347 78.2097ZM284.347 77.2813C284.247 77.2813 284.146 77.2976 284.049 77.3301L254.21 87.4153C253.837 87.5411 253.584 87.8892 253.58 88.2829L253.163 121.206C253.159 121.527 253.322 121.829 253.594 122.001C253.745 122.097 253.918 122.146 254.092 122.146C254.23 122.146 254.369 122.116 254.497 122.053L284.336 107.55C284.651 107.397 284.853 107.079 284.858 106.729L285.275 78.2237C285.28 77.9224 285.137 77.6374 284.894 77.4596C284.732 77.3422 284.541 77.2813 284.347 77.2813Z" fill="white"/>
<path d="M219.501 82.044L252.361 72.5284L283.93 77.8765L254.174 87.6279L219.501 82.044Z" fill="#F9616D" stroke="white" stroke-miterlimit="10" stroke-linecap="round" stroke-linejoin="round"/>
<path d="M129.051 147.47L133.913 149.064M138.775 150.659L133.913 149.064M133.913 149.064L208.028 116.353L204.137 115.262L212.697 117.663" stroke="#111D4A"/>
<path d="M189 57H194M199 57H194M194 57V102H189H199" stroke="#111D4A"/>
</svg>
