<svg width="400" height="201" viewBox="0 0 400 201" fill="none" xmlns="http://www.w3.org/2000/svg">
<path d="M0 0H400V200.575H0V0Z" fill="white"/>
<path d="M44 47C44 33.1928 55.1929 22 69 22H305.576C333.19 22 355.576 44.3858 355.576 72V103.15C355.576 144.571 321.997 178.15 280.576 178.15H144C88.7716 178.15 44 133.378 44 78.1497V47Z" fill="#EBF7FF"/>
<g clip-path="url(#clip0)">
<path d="M148.93 98.1249C148.723 98.1777 148.521 98.2467 148.325 98.3312L132.268 87.999L132.489 83.3739L125.535 82.1282L124.345 90.2779C124.249 90.9363 124.37 91.6081 124.689 92.1923C125.008 92.7765 125.509 93.2417 126.115 93.518L145.892 102.523C145.99 103.336 146.335 104.1 146.879 104.714C147.424 105.327 148.142 105.761 148.94 105.957C149.737 106.153 150.576 106.102 151.344 105.811C152.112 105.52 152.772 105.003 153.238 104.328C153.704 103.654 153.953 102.853 153.952 102.034C153.951 101.215 153.7 100.415 153.232 99.742C152.765 99.0686 152.102 98.5532 151.334 98.2643C150.565 97.9755 149.727 97.9268 148.93 98.1249H148.93Z" fill="#FFD6B8"/>
<path d="M131.613 87.7141L123.001 86.1284C122.756 86.0833 122.523 85.986 122.32 85.8433C122.116 85.7005 121.945 85.5155 121.819 85.301C121.693 85.0865 121.615 84.8475 121.59 84.6002C121.566 84.3529 121.594 84.1031 121.675 83.868L124.501 75.6286C124.74 74.3793 125.465 73.2753 126.518 72.5587C127.571 71.8421 128.867 71.5714 130.12 71.8059C131.373 72.0404 132.482 72.7611 133.203 73.8098C133.924 74.8585 134.199 76.1497 133.967 77.4001L133.66 86.0749C133.651 86.3233 133.589 86.5668 133.477 86.7889C133.365 87.0111 133.207 87.2066 133.013 87.3622C132.818 87.5177 132.593 87.6297 132.351 87.6904C132.109 87.7512 131.858 87.7593 131.613 87.7142V87.7141Z" fill="#3F3D56"/>
<path d="M122.454 59.4595C127.68 59.4595 131.917 55.2334 131.917 50.0201C131.917 44.8069 127.68 40.5807 122.454 40.5807C117.227 40.5807 112.99 44.8069 112.99 50.0201C112.99 55.2334 117.227 59.4595 122.454 59.4595Z" fill="#FFD6B8"/>
<path d="M131.387 185.176H136.111L138.358 167.002L131.386 167.002L131.387 185.176Z" fill="#FFD6B8"/>
<path d="M130.182 183.637L139.485 183.637H139.485C140.263 183.637 141.034 183.79 141.754 184.087C142.473 184.384 143.127 184.82 143.677 185.369C144.228 185.918 144.664 186.57 144.962 187.287C145.26 188.005 145.413 188.774 145.413 189.55V189.743L130.182 189.743L130.182 183.637Z" fill="#2F3133"/>
<path d="M115.203 185.176H119.927L122.174 167.002L115.203 167.002L115.203 185.176Z" fill="#FFD6B8"/>
<path d="M113.999 183.637L123.302 183.637H123.302C124.081 183.637 124.852 183.79 125.571 184.087C126.29 184.384 126.944 184.82 127.494 185.369C128.045 185.918 128.481 186.57 128.779 187.287C129.077 188.005 129.231 188.774 129.231 189.55V189.743L113.999 189.743L113.999 183.637Z" fill="#2F3133"/>
<path d="M129.969 178.278L125.151 141.093C125.148 141.044 125.127 140.998 125.09 140.964C125.054 140.931 125.005 140.913 124.956 140.914C124.931 140.913 124.906 140.917 124.883 140.926C124.86 140.935 124.839 140.949 124.821 140.966C124.804 140.983 124.789 141.004 124.78 141.027C124.771 141.05 124.766 141.074 124.766 141.099L123.381 177.744C123.366 178.192 123.176 178.616 122.853 178.927C122.53 179.237 122.098 179.41 121.649 179.409H115.927C115.474 179.411 115.037 179.236 114.713 178.92C114.389 178.604 114.202 178.173 114.194 177.721L112.708 116.665L138.315 116.92L138.954 178.173C138.948 178.416 138.891 178.655 138.786 178.875C138.681 179.095 138.531 179.291 138.346 179.449C138.164 179.605 137.951 179.721 137.722 179.79C137.492 179.859 137.251 179.879 137.013 179.848L131.464 179.864C131.071 179.81 130.708 179.623 130.436 179.335C130.164 179.046 129.999 178.673 129.969 178.278Z" fill="#111D4A"/>
<path d="M112.329 118.335C112.043 118.226 111.79 118.042 111.598 117.804C111.406 117.566 111.281 117.281 111.235 116.978L110.979 83.423C109.848 75.952 108.509 68.6311 115.058 64.8456L115.635 63.1188C115.698 62.9322 115.817 62.7692 115.975 62.6518C116.133 62.5344 116.324 62.4682 116.521 62.462L128.945 62.108C129.138 62.1014 129.329 62.1535 129.492 62.2574C129.655 62.3612 129.783 62.512 129.858 62.6898L130.782 64.8407L131.11 65.0273C134.231 66.8019 136.758 69.455 138.376 72.6548C139.993 75.8547 140.628 79.4591 140.203 83.0173L139.492 88.9991L138.988 116.954C138.981 117.261 138.894 117.561 138.734 117.823C138.574 118.085 138.348 118.301 138.078 118.448C134.468 120.419 130.47 121.093 126.687 121.093C120.33 121.093 114.583 119.189 112.329 118.335Z" fill="#89AEFA"/>
<path d="M122.146 59.8092C120.721 59.8399 119.306 59.5696 117.994 59.0161C116.682 58.4626 115.502 57.6384 114.532 56.5977C113.562 55.557 112.824 54.3233 112.366 52.9777C111.908 51.6321 111.741 50.2051 111.875 48.7904C112.01 47.3758 112.443 46.0055 113.146 44.7696C113.849 43.5338 114.806 42.4603 115.955 41.6198C117.104 40.7793 118.418 40.1908 119.811 39.8929C121.204 39.595 122.644 39.5946 124.037 39.8915C126.119 38.6311 128.538 37.783 130.963 37.9987C133.388 38.2144 135.787 39.6505 136.694 41.9042C137.601 44.158 136.626 47.1288 134.371 48.0447C132.926 48.6319 131.293 48.3472 129.75 48.1104C128.208 47.8736 126.525 47.7191 125.182 48.513C123.839 49.307 123.236 51.436 124.438 52.4287C125.076 52.9757 125.531 53.7035 125.743 54.5151C125.956 55.3267 125.915 56.1835 125.627 56.9715C125.022 58.5304 123.373 59.7828 122.146 59.8092Z" fill="#CEA680"/>
<path d="M141.927 104.838C141.715 104.819 141.502 104.816 141.289 104.83L129.637 89.7171L131.397 85.4301L125.267 81.9295L121.413 89.216C121.101 89.8047 120.989 90.4784 121.094 91.136C121.198 91.7937 121.514 92.3997 121.992 92.8632L137.592 107.969C137.412 108.769 137.479 109.604 137.786 110.365C138.093 111.125 138.624 111.774 139.31 112.226C139.995 112.678 140.801 112.91 141.622 112.893C142.442 112.875 143.238 112.608 143.903 112.128C144.568 111.648 145.071 110.977 145.345 110.204C145.619 109.431 145.65 108.593 145.436 107.802C145.221 107.01 144.771 106.303 144.144 105.773C143.517 105.244 142.744 104.918 141.927 104.838V104.838Z" fill="#FFD6B8"/>
</g>
<path d="M225.199 23.0482H218.04V55.2615H171.51V62.42C171.51 64.3886 173.12 65.9993 175.089 65.9993H214.461L228.778 80.3163V26.6274C228.778 24.6588 227.167 23.0482 225.199 23.0482Z" fill="#FCAFB5"/>
<path d="M209.483 11H162.953C160.984 11 159.373 12.6107 159.373 14.5793V64.6889L173.69 50.3718H209.483C211.452 50.3718 213.062 48.7612 213.062 46.7926V14.5793C213.062 12.6107 211.452 11 209.483 11Z" fill="#89AEFA"/>
<g clip-path="url(#clip1)">
<path d="M219.943 111.35C220.341 111.694 220.812 111.944 221.32 112.082C221.827 112.221 222.36 112.244 222.878 112.15C223.396 112.056 223.886 111.847 224.313 111.539C224.739 111.231 225.092 110.831 225.344 110.369L229.065 103.553L226.251 101.22L220.117 105.867C219.698 106.185 219.355 106.592 219.113 107.059C218.872 107.526 218.738 108.041 218.721 108.567C218.705 109.092 218.806 109.615 219.017 110.097C219.228 110.578 219.545 111.006 219.943 111.35V111.35Z" fill="#CEA680"/>
<path d="M224.299 101.845L228.644 105.349L252.331 86.9888L250.93 55.0336C249.598 56.0993 248.49 57.4185 247.671 58.915C246.852 60.4114 246.338 62.0554 246.158 63.7519L242.1 81.8031L224.299 101.845Z" fill="#F9616D"/>
<path d="M269.991 176.127H275.878L276.439 124.55H264.665L269.991 176.127Z" fill="#CEA680"/>
<path d="M255.415 178.93H261.301L261.862 123.989L250.089 123.429L255.415 178.93Z" fill="#CEA680"/>
<path d="M247.846 129.035L262.423 129.596L262.983 126.512L263.824 130.717L277.28 130.156C277.278 116.523 276.987 101.459 278.681 96.239L247.566 99.3224C245.115 109.885 244.813 119.892 247.846 129.035Z" fill="#111D4A"/>
<path d="M273.381 189.582C276.528 189.582 278.995 190.804 278.708 187.67L277.893 177.075C277.878 176.626 277.732 176.192 277.474 175.824C277.215 175.457 276.856 175.173 276.439 175.006V175.006C274.196 172.377 271.954 172.097 269.711 174.165C268.982 175.076 268.557 176.193 268.496 177.359L268.039 187.882C267.881 190.94 270.319 189.582 273.381 189.582Z" fill="#2F3133"/>
<path d="M244.646 189.731L259.607 189.335C260.227 189.248 260.792 188.937 261.196 188.459C261.599 187.981 261.812 187.371 261.793 186.746L262.075 179.435C262.093 179.075 261.97 178.722 261.732 178.451C261.493 178.181 261.159 178.014 260.799 177.986L258.498 177.809C258.225 175.306 256.701 174.699 254.574 175.006L247.846 182.574L243.413 183.815C242.702 184.015 242.088 184.466 241.687 185.086C241.286 185.706 241.125 186.451 241.235 187.181V187.181C241.353 187.969 241.778 188.679 242.416 189.157C243.055 189.634 243.856 189.84 244.646 189.731V189.731Z" fill="#2F3133"/>
<path d="M261.862 44.3818C266.661 44.3818 270.552 40.4914 270.552 35.6922C270.552 30.8931 266.661 27.0027 261.862 27.0027C257.063 27.0027 253.172 30.8931 253.172 35.6922C253.172 40.4914 257.063 44.3818 261.862 44.3818Z" fill="#CEA680"/>
<path d="M257.377 51.1092L272.234 46.9046C268.912 45.6121 267.629 43.3576 268.31 40.1772H258.499C259.76 44.9683 259.765 48.8781 257.377 51.1092Z" fill="#CEA680"/>
<path d="M246.725 102.966C255.109 104.038 262.835 100.792 270.132 98.3413C273.426 97.2351 276.745 98.3899 279.803 96.5193C278.48 83.4942 279.764 68.8225 282.573 53.1874C282.734 52.3022 282.566 51.3891 282.103 50.6182C281.639 49.8473 280.911 49.2713 280.054 48.9978L270.832 46.0637L262.703 48.8667L258.498 49.7077L249.84 55.5577C249.335 55.899 248.938 56.379 248.699 56.9399C248.46 57.5009 248.388 58.1189 248.492 58.7198C251.093 73.424 250.491 88.5164 246.725 102.966V102.966Z" fill="#F9616D"/>
<path d="M270.272 98.4813L273.075 105.769L275.878 101.565L272.234 97.9207L270.272 98.4813Z" fill="#CEA680"/>
<path d="M253.523 32.5938C256.902 30.4254 260.272 29.7112 263.632 30.3213C264.655 30.5121 265.627 30.9108 266.489 31.4929C267.351 32.0749 268.084 32.8278 268.642 33.7049C269.201 34.5819 269.574 35.5644 269.737 36.5915C269.901 37.6185 269.851 38.6681 269.592 39.6753C269.585 39.7024 269.578 39.7296 269.571 39.7567L270.073 38.8128C271.406 36.3094 271.86 33.4318 271.364 30.6397V30.6397C270.984 28.4956 269.838 26.5624 268.141 25.1987C266.443 23.835 264.308 23.1334 262.132 23.224L260.241 23.3028C258.066 23.3934 255.996 24.2641 254.41 25.7556C252.824 27.2471 251.828 29.2597 251.604 31.4253V31.4253C251.58 31.6592 251.623 31.895 251.727 32.1054C251.832 32.3159 251.994 32.4925 252.195 32.6147C252.396 32.7369 252.627 32.7998 252.862 32.7961C253.097 32.7924 253.326 32.7223 253.523 32.5938V32.5938Z" fill="#2F2E41"/>
<path d="M271.674 97.9208L275.598 102.966L289.334 82.5038L288.146 61.7152C287.995 59.0674 287.176 56.501 285.766 54.2545C284.357 52.0081 282.402 50.1547 280.083 48.8668V48.8668L280.364 80.822L271.674 97.9208Z" fill="#F9616D"/>
</g>
<defs>
<clipPath id="clip0">
<rect width="59.7232" height="152.192" fill="white" transform="translate(110 37.8076)"/>
</clipPath>
<clipPath id="clip1">
<rect width="70.9213" height="166.784" fill="white" transform="translate(218.588 23.2161)"/>
</clipPath>
</defs>
</svg>
