<svg width="400" height="400" viewBox="0 0 400 400" fill="none" xmlns="http://www.w3.org/2000/svg">
<g clip-path="url(#clip0)">
<circle cx="200" cy="200" r="200" fill="white"/>
<path d="M200 11.907C225.398 11.907 250.029 16.8787 273.211 26.6835C295.607 36.1567 315.724 49.72 333.002 66.9982C350.28 84.2758 363.844 104.393 373.318 126.789C383.122 149.971 388.094 174.602 388.094 200C388.094 225.397 383.122 250.029 373.318 273.21C363.844 295.607 350.281 315.724 333.002 333.002C315.724 350.28 295.607 363.844 273.211 373.317C250.029 383.122 225.398 388.093 200 388.093C174.603 388.093 149.971 383.121 126.79 373.317C104.393 363.844 84.2764 350.28 66.9988 333.002C49.7206 315.724 36.1567 295.607 26.6841 273.21C16.8787 250.029 11.907 225.398 11.907 200C11.907 174.603 16.8787 149.971 26.6835 126.79C36.1567 104.393 49.72 84.2764 66.9982 66.9988C84.2758 49.7206 104.393 36.1567 126.789 26.6841C149.971 16.8787 174.602 11.907 200 11.907ZM200 0C89.5428 0 0 89.5428 0 200C0 310.458 89.5428 400.001 200 400.001C310.458 400.001 400.001 310.458 400.001 200C400.001 89.5428 310.457 0 200 0Z" fill="#F1F1F1"/>
<path d="M184.588 142.677L126.027 285.853C124.788 288.883 126.746 292.266 129.99 292.701L328.482 319.324C331.159 319.683 333.637 317.852 334.079 315.187L359.515 161.895C359.988 159.044 357.954 156.388 355.079 156.101L189.713 139.595C187.511 139.375 185.426 140.629 184.588 142.677Z" fill="#89AEFA"/>
<path d="M213.176 171.243L250.125 156.49L277.264 178.58L269.533 177.791L259.908 213.293L206.418 206.665L220.04 171.874L213.176 171.243Z" stroke="white" stroke-width="2" stroke-miterlimit="10" stroke-linejoin="round"/>
<path d="M317.395 158.383L285.206 304.494L325.284 309.543L352.266 161.224L317.395 158.383Z" stroke="white" stroke-width="2" stroke-miterlimit="10" stroke-linejoin="round"/>
<path d="M316.605 169.113L309.032 204.299L341.221 208.402L348.163 172.427L316.605 169.113Z" stroke="white" stroke-width="2" stroke-miterlimit="10" stroke-linejoin="round"/>
<path d="M315.265 175.188L346.744 178.817" stroke="white" stroke-width="2" stroke-miterlimit="10" stroke-linejoin="round"/>
<path d="M313.371 183.787L345.086 187.574" stroke="white" stroke-width="2" stroke-miterlimit="10" stroke-linejoin="round"/>
<path d="M344.771 189.704L313.056 185.68" stroke="white" stroke-width="2" stroke-miterlimit="10" stroke-linejoin="round"/>
<path d="M312.661 187.416L344.297 191.361" stroke="white" stroke-width="2" stroke-miterlimit="10" stroke-linejoin="round"/>
<path d="M343.824 193.333L312.346 189.072" stroke="white" stroke-width="2" stroke-miterlimit="10" stroke-linejoin="round"/>
<path d="M294.62 270.412L287.363 302.6L324.18 307.229L330.281 274.409L294.62 270.412Z" stroke="white" stroke-width="2" stroke-miterlimit="10" stroke-linejoin="round"/>
<path d="M289.887 291.661L326.073 296.184" stroke="white" stroke-width="2" stroke-miterlimit="10" stroke-linejoin="round"/>
<path d="M305.035 304.599L307.454 293.764" stroke="white" stroke-width="2" stroke-miterlimit="10" stroke-linejoin="round"/>
<path d="M172.704 202.248C174.388 202.458 293.674 217.816 293.674 217.816" stroke="white" stroke-width="2" stroke-miterlimit="10" stroke-linejoin="round"/>
<path d="M190.257 165.491C188.58 165.14 186.969 166.053 186.659 167.531C186.349 169.009 187.457 170.492 189.134 170.844C190.812 171.196 192.423 170.283 192.733 168.804C193.042 167.326 191.934 165.843 190.257 165.491Z" stroke="white" stroke-width="2" stroke-miterlimit="10" stroke-linejoin="round"/>
<path d="M179.323 192.787C177.645 192.436 176.034 193.349 175.724 194.827C175.414 196.305 176.523 197.788 178.2 198.14C179.878 198.492 181.489 197.579 181.799 196.101C182.109 194.622 181 193.139 179.323 192.787Z" stroke="white" stroke-width="2" stroke-miterlimit="10" stroke-linejoin="round"/>
<path d="M197.725 146.925C196.048 146.573 194.437 147.486 194.127 148.964C193.817 150.443 194.926 151.926 196.603 152.278C198.28 152.629 199.891 151.716 200.201 150.238C200.511 148.76 199.403 147.276 197.725 146.925Z" stroke="white" stroke-width="2" stroke-miterlimit="10" stroke-linejoin="round"/>
<path d="M192.546 168.724L301.064 181.552" stroke="white" stroke-width="2" stroke-miterlimit="10" stroke-linejoin="round" stroke-dasharray="6 6"/>
<path d="M200.198 150.237L306.087 160.171" stroke="white" stroke-width="2" stroke-miterlimit="10" stroke-linejoin="round" stroke-dasharray="6 6"/>
<path d="M181.79 196.1L293.464 209.821" stroke="white" stroke-width="2" stroke-miterlimit="10" stroke-linejoin="round" stroke-dasharray="6 6"/>
<path d="M175.229 282.621L188.644 242.497L253.763 251.962L243.965 292.292L175.229 282.621Z" stroke="white" stroke-width="2" stroke-miterlimit="10" stroke-linejoin="round"/>
<path d="M182.364 241.777L261.049 253.197L266.325 232.826L189.448 222.024L182.364 241.777Z" stroke="white" stroke-width="2" stroke-miterlimit="10" stroke-linejoin="round"/>
<path d="M142.409 277.776L278.947 297.761" stroke="white" stroke-width="2" stroke-miterlimit="10" stroke-linejoin="round"/>
<path d="M217.621 207.823L225.616 184.891L236.45 186.364L229.192 209.401" stroke="white" stroke-width="2" stroke-miterlimit="10" stroke-linejoin="round"/>
<path d="M239.921 186.68L259.171 189.31L254.438 205.088L235.188 202.669L239.921 186.68Z" stroke="white" stroke-width="2" stroke-miterlimit="10" stroke-linejoin="round"/>
<path d="M191.008 254.37L210.257 257L205.445 273.489L186.274 270.359L191.008 254.37Z" stroke="white" stroke-width="2" stroke-miterlimit="10" stroke-linejoin="round"/>
<path d="M225.169 259.971L244.418 262.602L239.527 278.932L220.435 275.961L225.169 259.971Z" stroke="white" stroke-width="2" stroke-miterlimit="10" stroke-linejoin="round"/>
<path d="M310.037 225.073C308.36 224.722 306.749 225.635 306.439 227.113C306.129 228.592 307.237 230.075 308.914 230.427C310.592 230.779 312.203 229.865 312.513 228.387C312.823 226.908 311.714 225.425 310.037 225.073Z" stroke="white" stroke-width="2" stroke-miterlimit="10" stroke-linejoin="round"/>
<path d="M307.605 235.809C305.927 235.458 304.317 236.371 304.007 237.849C303.697 239.327 304.805 240.811 306.482 241.162C308.16 241.514 309.77 240.601 310.08 239.123C310.39 237.644 309.282 236.161 307.605 235.809Z" stroke="white" stroke-width="2" stroke-miterlimit="10" stroke-linejoin="round"/>
<path d="M305.091 247.007C303.414 246.655 301.802 247.569 301.492 249.047C301.183 250.525 302.291 252.008 303.969 252.36C305.646 252.712 307.257 251.799 307.567 250.32C307.877 248.842 306.769 247.359 305.091 247.007Z" stroke="white" stroke-width="2" stroke-miterlimit="10" stroke-linejoin="round"/>
<path d="M302.65 257.748C300.973 257.397 299.362 258.31 299.052 259.788C298.742 261.266 299.851 262.749 301.528 263.101C303.205 263.453 304.816 262.54 305.126 261.061C305.436 259.583 304.328 258.1 302.65 257.748Z" stroke="white" stroke-width="2" stroke-miterlimit="10" stroke-linejoin="round"/>
<path d="M228.355 165.182L230.397 159.002L235.644 159.596L234.553 162.707" stroke="white" stroke-width="2" stroke-miterlimit="10"/>
<path d="M315.348 228.302C315.369 227.639 315.836 226.999 316.477 226.827C317.118 226.657 317.871 227.013 318.1 227.635C318.328 228.258 317.942 229.048 317.297 229.205C318.002 229.16 318.706 229.116 319.409 229.071C319.502 229.219 319.595 229.367 319.688 229.515C320.849 229.395 322.009 229.274 323.17 229.154C323.079 228.879 322.987 228.603 322.897 228.327C324.124 228.206 325.232 229.596 324.84 230.765C325.583 231.224 326.72 230.542 326.665 229.671C328.063 229.21 329.699 229.559 330.788 230.552C331.086 230.186 331.384 229.819 331.681 229.452C331.435 229.989 331.621 230.688 332.101 231.032C332.581 231.376 333.303 231.327 333.732 230.92C333.602 231.009 333.472 231.099 333.342 231.189" stroke="white" stroke-width="2" stroke-miterlimit="10" stroke-linejoin="round"/>
<path d="M313.065 239.038C313.152 238.117 314.438 237.548 315.136 238.156C315.79 238.724 315.617 239.852 315.011 240.474C314.406 241.095 313.523 241.338 312.685 241.557C312.277 241.316 312.509 240.599 312.967 240.476C313.425 240.355 313.895 240.637 314.228 240.975C314.56 241.314 314.829 241.725 315.232 241.975C315.635 242.226 316.247 242.244 316.513 241.852C316.78 241.46 316.259 240.795 315.881 241.084C315.505 241.371 315.958 242.035 316.428 241.976C316.898 241.917 317.21 241.473 317.445 241.063C317.679 240.652 317.942 240.194 318.397 240.06C318.874 240.455 319.01 241.207 318.7 241.743C319.138 241.589 319.576 241.435 320.014 241.281C320.124 241.776 320.721 242.099 321.195 241.918C321.669 241.737 321.901 241.099 321.653 240.657C322.861 240.854 324.068 241.051 325.276 241.248C324.746 241.501 324.216 241.755 323.686 242.009C324.516 242.288 325.519 241.624 325.584 240.751C326.299 240.37 327.318 240.848 327.483 241.641C327.894 241.636 328.306 241.631 328.718 241.626C328.293 241.753 328.097 242.351 328.366 242.704C329.234 242.081 330.575 242.255 331.255 243.08C331.14 242.942 331.024 242.804 330.909 242.666" stroke="white" stroke-width="2" stroke-miterlimit="10" stroke-linejoin="round"/>
<path d="M310.951 250.06C311.388 251.287 311.826 252.515 312.263 253.741C312.305 252.783 312.984 251.885 313.894 251.584C314.803 251.282 315.885 251.597 316.49 252.34C316.819 252.542 317.149 252.744 317.478 252.946C317.434 252.848 317.391 252.75 317.347 252.652C317.679 253.041 318.403 252.465 318.176 252.008C317.949 251.551 317.191 251.597 316.911 252.025C316.633 252.452 316.776 253.054 317.117 253.434C317.889 254.296 319.557 253.971 319.95 252.883C319.872 253.066 319.792 253.248 319.714 253.43C320.514 253.456 321.315 253.482 322.116 253.507C322.274 252.776 322.976 252.202 323.723 252.191C323.714 253.021 323.706 253.852 323.697 254.682C324.171 253.934 324.645 253.186 325.119 252.439C325.141 253.308 325.163 254.179 325.185 255.048C325.691 254.084 327.132 253.78 327.984 254.458C328.088 254.714 328.192 254.971 328.297 255.227C328.626 254.733 328.956 254.239 329.286 253.745C328.851 254.532 328.843 255.538 329.266 256.331C329.148 256.181 329.032 256.031 328.915 255.88" stroke="white" stroke-width="2" stroke-miterlimit="10" stroke-linejoin="round"/>
<path d="M307.443 261.253C308.74 261.47 310.036 261.687 311.332 261.904C310.319 261.942 309.352 262.588 308.928 263.509C310.028 263.799 311.128 264.087 312.228 264.376C311.785 263.368 311.935 262.123 312.606 261.249C313.282 261.327 313.959 261.407 314.635 261.485C314.233 261.955 313.832 262.426 313.431 262.895C314.221 262.989 315.038 262.459 315.277 261.701C315.229 262.095 315.182 262.489 315.135 262.883C315.58 262.542 316.024 262.2 316.469 261.858C316.403 262.263 316.337 262.668 316.271 263.073C316.772 262.625 317.274 262.176 317.776 261.728C317.802 262.273 318.598 262.58 318.984 262.196C318.526 262.142 318.061 262.512 318.01 262.97C318.249 263.097 318.487 263.223 318.726 263.35C317.69 263.705 316.656 264.06 315.62 264.415C316.233 264.646 316.791 265.018 317.425 265.184C318.059 265.348 318.838 265.239 319.197 264.691C319.555 264.143 319.088 263.202 318.451 263.356C318.469 264.17 319.122 264.923 319.925 265.056C320.727 265.189 321.59 264.686 321.868 263.921C321.98 263.528 322.091 263.136 322.203 262.743C322.66 263.538 323.119 264.333 323.576 265.128C324.594 264.761 325.437 263.937 325.828 262.928C326.063 263.645 326.297 264.36 326.53 265.077" stroke="white" stroke-width="2" stroke-miterlimit="10" stroke-linejoin="round"/>
<path d="M318.48 171.402C318.222 172.172 317.964 172.941 317.705 173.71C318.614 172.528 320.644 172.478 321.611 173.615C321.744 172.956 321.268 172.237 320.61 172.101C321.402 172.003 322.194 171.906 322.986 171.808C322.504 172.578 322.876 173.741 323.715 174.089C323.696 173.51 323.955 172.929 324.398 172.557C324.429 172.741 324.459 172.925 324.49 173.108C325.299 173.978 329.302 174.138 330.339 173.563C331.009 173.684 331.738 173.357 332.093 172.776C332.699 173.176 333.305 173.576 333.912 173.976C333.808 174.25 333.704 174.526 333.599 174.801C334.413 174.001 335.685 173.705 336.768 174.064C336.879 173.717 336.989 173.371 337.1 173.025C336.325 173.083 336.145 174.28 336.685 174.837C337.225 175.395 338.081 175.465 338.856 175.5C338.689 175.487 338.521 175.474 338.354 175.461C339.007 175.542 339.424 174.507 338.897 174.113C339.313 174.079 339.728 174.044 340.144 174.008C340.198 174.5 340.252 174.991 340.306 175.482C341.029 175.82 341.976 175.014 341.758 174.247C341.756 174.579 342.053 174.884 342.385 174.891C342.717 174.899 343.026 174.607 343.039 174.275C343.599 174.765 344.159 175.255 344.719 175.746C344.446 175.666 344.174 175.586 343.9 175.506" stroke="white" stroke-width="2" stroke-miterlimit="10" stroke-linejoin="round"/>
<path d="M321.774 182.382C320.958 182.514 320.313 181.581 319.365 181.638C319.363 181.636 319.824 181.959 319.671 181.774C319.317 181.722 318.424 181.33 318.547 180.814C318.781 179.826 318.751 180.631 319.6 180.289C320.661 179.862 321.765 179.934 322.619 180.665C322.545 180.515 321.813 178.583 321.933 178.57C322.289 178.533 322.646 178.496 323.003 178.459C322.648 178.568 322.293 178.678 321.939 178.787C322.021 178.553 322.104 178.319 322.187 178.084C321.999 178.468 321.411 178.571 321.105 178.273C320.995 178.688 320.373 178.845 320.08 178.532C320.111 178.351 320.141 178.17 320.172 177.989C319.965 177.821 319.721 177.643 319.461 177.692C319.2 177.741 319.066 178.171 319.314 178.263C318.917 178.104 318.6 177.756 318.477 177.346C318.417 177.932 317.607 178.279 317.141 177.917C316.817 178.265 316.493 178.612 316.17 178.96" stroke="white" stroke-width="2" stroke-miterlimit="10" stroke-linejoin="round"/>
<path d="M328.295 198.287C328.022 197.67 327.352 197.253 326.679 197.278C326.671 197.663 326.061 197.695 325.779 197.433C325.497 197.17 325.355 196.766 325.026 196.567C324.622 196.325 324.02 196.546 323.871 196.993C323.721 197.439 324.067 197.979 324.535 198.029C323.961 197.867 323.645 197.114 323.933 196.592C323.412 197.6 322.303 198.276 321.167 198.278C321.689 197.686 322.21 197.095 322.731 196.504C322.124 197.099 321.517 197.695 320.91 198.291C320.899 197.44 320.377 196.616 319.614 196.241C320.079 196.479 319.962 197.245 319.529 197.536C319.096 197.828 318.528 197.789 318.009 197.743C317.489 197.697 316.919 197.667 316.495 197.973C316.645 197.291 316.794 196.61 316.943 195.928" stroke="white" stroke-width="2" stroke-miterlimit="10" stroke-linejoin="round"/>
<path d="M331.834 198.268C331.721 198.561 331.607 198.854 331.494 199.147C332.323 199.256 333.151 199.366 333.98 199.475C334.676 199.727 335.372 199.98 336.067 200.232C335.745 199.971 335.423 199.71 335.1 199.449" stroke="white" stroke-width="2" stroke-miterlimit="10" stroke-linejoin="round"/>
<path d="M302.833 280.265C301.784 282.371 301.985 285.043 303.337 286.968C304.243 288.257 305.603 289.189 307.079 289.742C309.554 290.668 312.438 290.53 314.741 289.235C317.044 287.941 318.686 285.473 318.841 282.836C318.996 280.198 317.59 277.492 315.271 276.227C311.692 274.277 304.651 276.616 302.833 280.265Z" stroke="white" stroke-width="2" stroke-miterlimit="10" stroke-linejoin="round"/>
<path d="M291.342 293.599C290.955 293.694 290.667 294.094 290.701 294.491C290.735 294.888 291.086 295.234 291.483 295.261C291.996 295.296 292.41 294.883 292.832 294.593C293.256 294.303 293.939 294.173 294.201 294.614C294.051 294.384 293.903 294.153 293.753 293.923C294.248 293.623 294.988 293.89 295.178 294.436C295.368 294.982 294.953 295.65 294.38 295.721C295.245 295.272 296.268 295.128 297.225 295.322C297.229 294.932 297.233 294.542 297.237 294.152C297.848 294.554 298.458 294.955 299.069 295.356C298.993 295.676 298.612 295.886 298.3 295.781C299.094 296.218 300.243 295.662 300.391 294.767C300.471 295.214 300.947 295.55 301.394 295.476C301.266 295.703 301.138 295.93 301.009 296.157C301.376 296.046 301.743 295.934 302.11 295.823C302.191 295.641 302.272 295.458 302.352 295.276C302.361 295.642 302.37 296.008 302.379 296.375C302.595 296.386 302.765 296.106 302.656 295.919" stroke="white" stroke-width="2" stroke-miterlimit="10" stroke-linejoin="round"/>
<path d="M309.213 295.834C309.938 296.643 310.663 297.452 311.388 298.26C311.994 297.758 312.6 297.256 313.207 296.753C313.003 296.147 312.193 295.838 311.637 296.153C312.749 296.442 313.861 296.73 314.974 297.017C314.687 297.308 314.399 297.597 314.113 297.886C315.082 298.271 316.307 297.815 316.788 296.891C317.699 297.249 318.61 297.607 319.52 297.966C319.046 298.204 318.571 298.443 318.096 298.683C318.65 299.08 319.444 299.107 320.023 298.746C320.602 298.385 320.928 297.659 320.814 296.987C321.456 297.665 322.425 298.019 323.353 297.914C323.447 298.037 323.542 298.16 323.636 298.282" stroke="white" stroke-width="2" stroke-miterlimit="10" stroke-linejoin="round"/>
<path d="M304.941 281.893C304.637 283.986 306.02 286.135 307.972 286.946C309.926 287.756 312.28 287.307 313.962 286.025C315.449 284.892 316.473 282.931 315.939 281.14C315.569 279.901 314.511 278.946 313.31 278.467C310.442 277.323 305.465 278.271 304.941 281.893Z" stroke="white" stroke-width="2" stroke-miterlimit="10" stroke-linejoin="round"/>
<path d="M290.6 298.453C290.499 298.888 290.397 299.322 290.296 299.756C291.139 299.403 291.983 299.049 292.827 298.696C292.814 298.899 292.801 299.101 292.787 299.305C292.618 298.995 292.448 298.686 292.279 298.377C293.438 298.128 294.691 298.36 295.685 299.006C295.625 299.761 294.795 300.355 294.059 300.169C295.065 299.554 296.332 299.382 297.465 299.709C297.639 299.222 297.814 298.735 297.989 298.248C297.309 298.716 297.347 299.908 298.056 300.332C298.765 300.756 299.833 300.227 299.924 299.406C300.228 299.855 300.044 300.553 299.561 300.796C299.076 301.039 298.407 300.767 298.229 300.256C298.696 300.659 299.406 300.754 299.962 300.487C300.518 300.219 300.888 299.605 300.865 298.99C301.009 299.64 300.632 300.368 300.017 300.623" stroke="white" stroke-width="2" stroke-miterlimit="10" stroke-linejoin="round"/>
<path d="M307.97 300.667C307.9 301.164 307.83 301.662 307.76 302.16C307.709 301.555 308.328 300.99 308.927 301.097C309.525 301.203 309.911 301.946 309.655 302.497C309.408 302.591 309.111 302.312 309.189 302.059C309.805 302.09 310.422 302.119 311.037 302.15" stroke="white" stroke-width="2" stroke-miterlimit="10" stroke-linejoin="round"/>
<path d="M317.154 301.453C316.471 301.569 315.99 302.362 316.204 303.022C316.789 302.726 317.494 302.932 318.105 303.169C318.717 303.406 319.379 303.675 320.007 303.489C320.636 303.303 321.048 302.399 320.547 301.975C320.817 302.113 321.087 302.25 321.356 302.388C320.915 302.092 320.473 301.795 320.033 301.5C321.45 300.999 323.192 302.058 323.402 303.545" stroke="white" stroke-width="2" stroke-miterlimit="10" stroke-linejoin="round"/>
<path d="M299.156 278.522C297.802 280.284 296.449 282.047 295.094 283.809C294.842 282.915 295.585 281.984 296.467 281.697C297.349 281.409 298.31 281.594 299.214 281.8C300.12 282.007 301.06 282.233 301.964 282.022C302.868 281.811 303.71 281.005 303.613 280.082C303.517 279.158 302.118 278.6 301.594 279.366C301.248 279.871 301.481 280.603 301.941 281.007C302.4 281.411 303.02 281.568 303.613 281.712C305.106 282.073 306.599 282.435 308.092 282.797C308.576 282.914 309.151 283.01 309.518 282.674C309.885 282.337 309.507 281.508 309.08 281.765C309.487 281.933 309.894 282.102 310.3 282.27C310.146 282.517 309.992 282.763 309.838 283.01C310.793 283.1 311.749 283.189 312.705 283.279C313.05 282.549 313.395 281.818 313.741 281.088C314.412 281.43 315.082 281.773 315.752 282.115C315.218 282.566 314.682 283.018 314.147 283.469C316.188 282.723 318.228 281.976 320.269 281.23C319.129 281.524 317.944 281.841 317.064 282.623C316.186 283.405 315.734 284.803 316.38 285.787C316.743 286.34 317.384 286.662 318.034 286.782C320.081 287.159 322.253 285.421 322.333 283.342C321.695 283.675 321.057 284.008 320.419 284.341C320.961 283.97 321.503 283.598 322.045 283.226C321.86 284.494 323.04 285.777 324.32 285.697" stroke="white" stroke-width="2" stroke-miterlimit="10" stroke-linejoin="round"/>
<path d="M179.093 194.242C178.926 195.208 178.757 196.173 178.589 197.138" stroke="white" stroke-width="2" stroke-miterlimit="10" stroke-linejoin="round"/>
<path d="M188.768 167.161C189.23 167.036 189.693 166.91 190.154 166.786C190.398 167.342 190.284 168.036 189.875 168.485C189.466 168.933 188.785 169.111 188.208 168.92C188.775 168.529 189.663 168.755 189.974 169.368" stroke="white" stroke-width="2" stroke-miterlimit="10" stroke-linejoin="round"/>
<path d="M196.09 148.77C196.37 148.204 197.276 148.104 197.672 148.595C197.506 148.711 197.338 148.825 197.172 148.94C197.83 148.929 198.397 149.634 198.246 150.275C198.094 150.916 197.271 151.292 196.687 150.987" stroke="white" stroke-width="2" stroke-miterlimit="10" stroke-linejoin="round"/>
<path d="M264.435 172.897C268.752 170.748 273.069 168.598 277.387 166.449" stroke="white" stroke-width="2" stroke-miterlimit="10" stroke-linejoin="round"/>
<path d="M267.444 257.081C262.086 258.768 256.485 261.237 250.966 262.251C249.408 262.537 247.114 262.192 246.184 260.88C245.118 259.375 245.142 256.921 242.28 257.464C242.073 255.661 239.563 254.627 238.146 255.76C236.988 254.509 234.885 254.282 233.486 255.256C232.92 253.68 230.482 253.237 229.397 254.513C229.839 253.993 227.529 253.385 227.282 253.409C226.465 253.489 225.171 254.103 224.441 254.431C222.843 255.15 219.646 256.845 221.605 258.965C220.056 258.701 218.653 260.679 219.416 262.054C217.472 262.589 216.617 265.381 217.928 266.913C216.977 267.145 216.21 267.999 216.08 268.97C215.951 269.941 216.468 270.966 217.326 271.439C215.313 272.818 215.176 276.206 217.07 277.743C218.508 280.656 222.835 281.612 225.366 279.575C226.212 281.501 228.878 282.349 230.681 281.267C232.191 283.343 235.745 283.414 237.335 281.399C239.123 282.465 241.373 281.342 243.137 280.236C244.598 279.32 246.275 277.731 245.508 276.187C247.354 276.024 248.41 273.407 247.194 272.008C248.135 271.616 248.764 270.58 248.681 269.565C248.597 268.549 247.806 267.631 246.813 267.398C247.981 266.761 248.704 265.39 248.569 264.067C248.538 263.761 248.462 263.463 248.347 263.179" stroke="white" stroke-width="2" stroke-miterlimit="10" stroke-linejoin="round"/>
<path d="M280.894 167.161C280.51 167.732 280.126 168.303 279.742 168.875C280.24 168.398 281.044 168.699 281.702 168.908C282.359 169.117 283.34 168.995 283.385 168.307C283.186 168.666 283.465 169.188 283.875 169.221C284.284 169.255 284.645 168.786 284.507 168.399C284.746 169.007 285.329 169.465 285.976 169.551C285.718 169.528 285.46 169.505 285.202 169.482C286.11 169.864 287.288 169.352 287.628 168.426C287.644 168.959 287.661 169.493 287.678 170.025C287.501 169.73 287.323 169.435 287.146 169.139C287.95 169.813 289.376 169.451 289.761 168.476C289.223 168.577 289.031 169.417 289.472 169.742C289.913 170.068 290.659 169.637 290.596 169.092C290.47 169.684 290.319 170.319 289.865 170.72C289.412 171.121 288.552 171.101 288.324 170.54C289.687 170.801 291.175 170.234 292.019 169.132C292.203 169.553 292.678 169.828 293.135 169.777C293.592 169.725 293.994 169.352 294.079 168.9C294.328 169.414 294.209 170.081 293.8 170.48C293.39 170.878 292.72 170.977 292.213 170.715C293.26 170.913 294.308 171.112 295.355 171.311" stroke="white" stroke-width="2" stroke-miterlimit="10" stroke-linejoin="round"/>
<path d="M273.103 251.946C273.965 254.253 274.826 256.56 275.688 258.866C274.465 258.512 269.285 257.801 268.791 256.566C268.071 254.771 273.428 253.205 273.103 251.946Z" stroke="white" stroke-width="2" stroke-miterlimit="10" stroke-linejoin="round"/>
<path d="M272.379 254.348C272.209 255.143 272.039 255.937 271.868 256.732" stroke="white" stroke-width="2" stroke-miterlimit="10" stroke-linejoin="round"/>
<path d="M213.119 182.997C212.888 183.781 212.657 184.565 212.425 185.349C212.497 184.926 212.569 184.504 212.64 184.081C216.259 184.51 219.877 184.941 223.497 185.37C223.611 184.989 223.725 184.609 223.838 184.228C223.635 185.26 223.067 186.215 222.257 186.885" stroke="white" stroke-width="2" stroke-miterlimit="10" stroke-linejoin="round"/>
<path d="M151.146 255.049C151.371 255.963 151.596 256.878 151.822 257.792C152.741 257.072 153.66 256.352 154.579 255.631C154.409 256.241 154.24 256.85 154.07 257.46C155.275 256.786 155.906 255.232 155.513 253.91C155.922 254.843 156.916 255.489 157.935 255.484C157.832 255.145 157.729 254.808 157.626 254.469C158.251 254.433 158.885 254.748 159.233 255.27C159.732 254.61 160.231 253.951 160.73 253.292C161.111 253.937 161.491 254.583 161.872 255.229C162.429 254.217 162.985 253.206 163.542 252.193C163.063 252.813 163.389 253.811 164.071 254.192C164.754 254.574 165.636 254.429 166.301 254.016C166.965 253.604 167.452 252.963 167.896 252.319C167.512 252.72 167.92 253.479 168.475 253.521C169.028 253.562 169.512 253.083 169.671 252.55C169.829 252.017 169.741 251.447 169.651 250.898C170.036 251.807 170.421 252.715 170.805 253.624" stroke="white" stroke-width="2" stroke-miterlimit="10" stroke-linejoin="round"/>
<path d="M163.401 257.373C164.184 256.881 165.257 257.087 165.997 257.642C166.737 258.197 167.209 259.032 167.613 259.865C169.617 264.002 170.433 268.708 169.939 273.279C169.429 272.648 168.918 272.017 168.408 271.387C168.967 272.045 169.527 272.703 170.087 273.361C170.842 272.234 171.598 271.106 172.354 269.98" stroke="white" stroke-width="2" stroke-miterlimit="10" stroke-linejoin="round"/>
<path d="M146.28 117.975H136.788V160.688H75.0916V170.18C75.0916 172.79 77.2272 174.925 79.8375 174.925H132.042L151.025 193.909V122.721C151.025 120.111 148.89 117.975 146.28 117.975Z" fill="#B0CAFC"/>
<path d="M125.442 102H63.7459C61.1356 102 59 104.136 59 106.746V173.188L77.9834 154.204H125.442C128.052 154.204 130.188 152.069 130.188 149.459V106.746C130.188 104.136 128.052 102 125.442 102Z" fill="#BCC6CC"/>
</g>
<defs>
<clipPath id="clip0">
<rect width="400" height="400" fill="white"/>
</clipPath>
</defs>
</svg>
