<svg width="401" height="401" viewBox="0 0 401 401" fill="none" xmlns="http://www.w3.org/2000/svg">
<circle cx="200" cy="200.881" r="200" fill="white"/>
<path d="M21.0347 266.324L379.634 265.924C359.6 335.941 305.179 385.118 211.984 393.455C111.307 402.461 65.0997 354.899 21.0347 266.324Z" fill="#B1E5F1"/>
<path d="M16.2008 264.134H382.747L392.873 234.432L394.898 204.73H4.72486L8.09989 235.782L16.2008 264.134Z" fill="#A9B2D2"/>
<path d="M138.201 258.736V150.873L229.646 182.6V260.854L138.201 258.736Z" fill="#89AEFA"/>
<path d="M138.76 151.577L229.087 182.915V260.37L138.76 258.278V151.577ZM137.641 150.17V151.577V258.277V259.194L138.729 259.219L229.056 261.311L230.205 261.338V260.37V182.915V182.284L229.513 182.044L139.186 150.706L137.641 150.17Z" fill="white"/>
<path d="M64.9457 284.71V168.136L137.311 151.045V289.322L64.9457 284.71Z" fill="#89AEFA"/>
<path d="M136.752 151.666V288.814L65.5051 284.274V168.493L136.752 151.666ZM137.87 150.424L136.45 150.759L65.203 167.585L64.3863 167.779V168.493V284.274V285.147L65.4206 285.213L136.667 289.754L137.87 289.831V288.815V151.667V150.424Z" fill="white"/>
<path d="M137.724 150.162L59.8176 169.792V155.863L138.097 134.604L232.5 167.911V183.354L137.724 150.162Z" fill="#111D4A"/>
<path d="M138.072 135.107L231.941 168.226V182.648L137.756 149.663L60.3779 169.16V156.207L138.072 135.107ZM138.123 134.103L137.729 134.21L60.0344 155.31L59.2591 155.521V156.207V169.161V170.426L60.6984 170.064L137.694 150.663L231.512 183.519L233.06 184.061V182.649V168.226V167.599L232.373 167.357L138.504 134.239L138.123 134.103Z" fill="white"/>
<path d="M242.541 174.409L87.6021 199.988L87.8396 177.811L243.044 147.313L347.791 178.76V200.382L242.541 174.409Z" fill="#111D4A"/>
<path d="M243.014 147.925L347.195 179.202V199.622L242.564 173.802L88.2046 199.285L88.4296 178.302L243.014 147.925ZM243.074 146.7L242.785 146.757L88.1998 177.134L87.249 177.321L87.2383 178.289L87.0133 199.272L86.9984 200.69L88.398 200.459L242.516 175.016L346.909 200.778L348.385 201.142V199.622V179.202V178.316L347.537 178.061L243.357 146.785L243.074 146.7Z" fill="white"/>
<path d="M96.7787 295.047V199.341L242.006 175.774L242.147 313.084L96.7787 295.047Z" fill="#89AEFA"/>
<path d="M241.411 176.473L241.551 312.41L97.3735 294.521V199.847L241.411 176.473ZM242.6 175.074L241.22 175.298L97.183 198.672L96.1828 198.834V199.847V294.521V295.573L97.227 295.703L241.405 313.592L242.743 313.758L242.742 312.409L242.602 176.472L242.6 175.074Z" fill="white"/>
<path d="M136.1 299.55V218.5L187.694 212.397V305.768L136.1 299.55Z" fill="#89AEFA"/>
<path d="M187.098 213.067V305.097L136.696 299.022V219.03L187.098 213.067ZM188.289 211.726L186.958 211.884L136.556 217.847L135.505 217.972V219.03V299.022V300.077L136.553 300.203L186.956 306.278L188.289 306.44V305.097V213.067V211.726Z" fill="white"/>
<path d="M243.093 175.633L344.022 200.053V291.97L243.093 312.633V175.633Z" fill="#89AEFA"/>
<path d="M243.689 176.39L343.426 200.522V291.484L243.689 311.904V176.39V176.39ZM242.498 174.876V176.39V311.904V313.363L243.927 313.07L343.665 292.65L344.617 292.456V291.484V200.522V199.585L343.706 199.365L243.969 175.232L242.498 174.876Z" fill="white"/>
<path d="M314.525 222.251L330.228 223.799L330.552 258.038L314.687 259.313L314.525 222.251Z" fill="#EBF7FF"/>
<path d="M126.457 211.379V277.983L109.357 276.858V213.629L126.457 211.379Z" fill="#EBF7FF"/>
<path d="M220.981 288.108L197.843 286.586V201.035L220.981 197.991" fill="#EBF7FF"/>
<path d="M154.077 226.005V281.527L144.121 280.683V227.017L154.077 226.005Z" fill="#EBF7FF"/>
<path d="M179.56 223.136V284.57L168.544 283.636V224.256L179.56 223.136Z" fill="#EBF7FF"/>
<path d="M200.247 12.907C225.645 12.907 250.276 17.8787 273.458 27.6835C295.854 37.1567 315.971 50.7199 333.249 67.9981C350.527 85.2757 364.091 105.392 373.564 127.789C383.369 150.971 388.34 175.602 388.34 200.999C388.34 226.397 383.369 251.028 373.564 274.21C364.091 296.606 350.527 316.723 333.249 334.001C315.971 351.28 295.854 364.843 273.458 374.317C250.276 384.121 225.645 389.092 200.247 389.092C174.85 389.092 150.218 384.121 127.037 374.317C104.64 364.843 84.5235 351.28 67.2459 334.001C49.9677 316.724 36.4039 296.606 26.9313 274.21C17.1266 251.028 12.1548 226.397 12.1548 200.999C12.1548 175.602 17.1266 150.97 26.9313 127.789C36.4045 105.392 49.9677 85.2757 67.2459 67.9981C84.5235 50.7199 104.64 37.1561 127.037 27.6835C150.218 17.8787 174.85 12.907 200.247 12.907ZM200.247 1C89.7906 1 0.247253 90.5427 0.247253 201C0.247253 311.457 89.79 401 200.247 401C310.705 401 400.247 311.457 400.247 201C400.247 90.5433 310.705 1 200.247 1Z" fill="#F1F1F1"/>
</svg>
