<svg width="400" height="400" viewBox="0 0 400 400" fill="none" xmlns="http://www.w3.org/2000/svg">
<g clip-path="url(#clip0)">
<circle cx="200" cy="200" r="200" fill="white"/>
<path d="M176.532 267.133L279.517 290.607L360.164 256.91V271.677L279.896 311.432L176.532 284.171V267.133Z" fill="#111D4A"/>
<path d="M350.621 254.26L350.522 204.969L350.599 204.693V202.915L295.057 212.99L295.143 278.46L295.845 278.752L350.599 257.135V254.245L350.621 254.26ZM310.163 269.843L298.007 274.425L298.038 214.862L310.195 212.575L310.163 269.843ZM324.33 264.53L312.309 269.224V212.17L324.33 209.94V264.53ZM336.796 259.712L326.111 263.851V209.604L336.796 207.542V259.712ZM349.127 254.943L338.614 259.119L338.701 207.206L349.16 205.287L349.127 254.943Z" fill="#BCC6CC"/>
<path d="M246.234 185.576L190.948 195.632L191.107 261.102L191.699 261.394L246.234 239.787V185.576H246.234ZM206.202 252.484L194.045 257.066L194.077 197.504L206.233 195.217L206.202 252.484ZM220.073 247.172L208.052 251.866V194.812L220.073 192.582V247.172ZM232.54 242.354L221.854 246.493V192.245L232.54 190.184V242.354ZM234.653 241.761L234.739 189.847L245.198 187.929L245.165 237.585L234.653 241.761Z" fill="#BCC6CC"/>
<path d="M228.969 138.208L176.618 171.271L176.636 173.57L279.23 184.383L280.275 184.098V180.393L228.969 138.208ZM264.169 170.467L252.864 178.193V161.224L264.169 170.467ZM250.763 159.507L229.258 175.702L229.42 142.056L250.763 159.507ZM227.544 175.506L205.946 155.663L227.544 142.074V175.506ZM203.791 173.114C201.768 171.559 194.9 166.28 192.275 164.266L203.791 157.02V173.114V173.114ZM181.82 170.844L191.25 164.911L202.876 173.893L181.82 171.7V170.844ZM205.311 156.818L226.763 176.381L205.311 174.146V156.818ZM229.897 176.708L251.154 160.881V178.922L229.897 176.708ZM275.524 181.462L253.359 179.152L264.881 171.049L275.524 179.751V181.462V181.462Z" fill="#BCC6CC"/>
<path d="M159.368 148.119L167.698 149.634L254.023 126.664L301.73 103.19L296.682 90.821L230.549 96.3744L159.368 148.119Z" fill="#111D4A"/>
<path d="M297.474 163.457L290.168 161.508L231.704 96.8248L311.095 89.5059L367.897 152.74L359.844 154.896L297.474 163.457Z" fill="#495377" stroke="white" stroke-width="2"/>
<mask id="path-8-inside-1" fill="white">
<path d="M311.322 88.9279L368.914 153.041L359.954 155.441L297.439 164.022L289.867 162.002L230.549 96.3744L311.322 88.9279ZM311.685 88L311.24 88.041L230.467 95.4875L228.695 95.6509L229.888 96.9714L289.206 162.599L289.383 162.794L289.637 162.862L297.209 164.882L297.383 164.928L297.56 164.904L360.075 156.323L360.13 156.316L360.184 156.301L369.145 153.902L370.547 153.526L369.577 152.446L311.984 88.3326L311.685 88Z"/>
</mask>
<path d="M311.322 88.9279L368.914 153.041L359.954 155.441L297.439 164.022L289.867 162.002L230.549 96.3744L311.322 88.9279ZM311.685 88L311.24 88.041L230.467 95.4875L228.695 95.6509L229.888 96.9714L289.206 162.599L289.383 162.794L289.637 162.862L297.209 164.882L297.383 164.928L297.56 164.904L360.075 156.323L360.13 156.316L360.184 156.301L369.145 153.902L370.547 153.526L369.577 152.446L311.984 88.3326L311.685 88Z" fill="#495377"/>
<path d="M311.322 88.9279L312.81 87.5913L312.139 86.8441L311.138 86.9363L311.322 88.9279ZM368.914 153.041L369.432 154.973L372.581 154.13L370.402 151.705L368.914 153.041ZM359.954 155.441L360.226 157.423L360.35 157.405L360.472 157.373L359.954 155.441ZM297.439 164.022L296.924 165.954L297.312 166.058L297.711 166.003L297.439 164.022ZM289.867 162.002L288.383 163.343L288.78 163.782L289.351 163.935L289.867 162.002ZM230.549 96.3744L230.365 94.3828L226.385 94.7498L229.065 97.7155L230.549 96.3744ZM311.685 88L313.173 86.6635L312.502 85.9164L311.502 86.0084L311.685 88ZM311.24 88.041L311.057 86.0494L311.056 86.0494L311.24 88.041ZM230.467 95.4875L230.283 93.4959L230.283 93.4959L230.467 95.4875ZM228.695 95.6509L228.511 93.6593L224.531 94.0263L227.211 96.9917L228.695 95.6509ZM229.888 96.9714L228.404 98.3123L228.404 98.3125L229.888 96.9714ZM289.206 162.599L287.722 163.94L287.724 163.942L289.206 162.599ZM289.383 162.794L287.901 164.137L288.296 164.574L288.865 164.726L289.383 162.794ZM289.637 162.862L289.119 164.794L289.121 164.795L289.637 162.862ZM297.209 164.882L297.726 162.95L297.725 162.949L297.209 164.882ZM297.383 164.928L296.866 166.86L297.256 166.965L297.656 166.909L297.383 164.928ZM297.56 164.904L297.288 162.922L297.286 162.922L297.56 164.904ZM360.075 156.323L359.803 154.342L359.803 154.342L360.075 156.323ZM360.13 156.316L360.402 158.297L360.521 158.281L360.638 158.25L360.13 156.316ZM360.184 156.301L360.692 158.236L360.702 158.233L360.184 156.301ZM369.145 153.902L369.662 155.833L369.662 155.833L369.145 153.902ZM370.547 153.526L371.064 155.458L374.213 154.614L372.034 152.189L370.547 153.526ZM369.577 152.446L368.089 153.783L368.089 153.783L369.577 152.446ZM311.984 88.3326L310.496 89.6691L310.496 89.6691L311.984 88.3326ZM309.834 90.2644L367.427 154.378L370.402 151.705L312.81 87.5913L309.834 90.2644ZM368.397 151.109L359.437 153.509L360.472 157.373L369.432 154.973L368.397 151.109ZM359.682 153.46L297.167 162.04L297.711 166.003L360.226 157.423L359.682 153.46ZM297.955 162.089L290.382 160.07L289.351 163.935L296.924 165.954L297.955 162.089ZM291.35 160.661L232.033 95.0333L229.065 97.7155L288.383 163.343L291.35 160.661ZM230.732 98.3659L311.506 90.9194L311.138 86.9363L230.365 94.3828L230.732 98.3659ZM311.502 86.0084L311.057 86.0494L311.423 90.0325L311.868 89.9916L311.502 86.0084ZM311.056 86.0494L230.283 93.4959L230.65 97.479L311.424 90.0325L311.056 86.0494ZM230.283 93.4959L228.511 93.6593L228.878 97.6424L230.65 97.479L230.283 93.4959ZM227.211 96.9917L228.404 98.3123L231.372 95.6306L230.179 94.31L227.211 96.9917ZM228.404 98.3125L287.722 163.94L290.69 161.258L231.372 95.6303L228.404 98.3125ZM287.724 163.942L287.901 164.137L290.865 161.451L290.688 161.256L287.724 163.942ZM288.865 164.726L289.119 164.794L290.155 160.93L289.9 160.862L288.865 164.726ZM289.121 164.795L296.694 166.814L297.725 162.949L290.152 160.93L289.121 164.795ZM296.693 166.814L296.866 166.86L297.899 162.996L297.726 162.95L296.693 166.814ZM297.656 166.909L297.834 166.885L297.286 162.922L297.109 162.947L297.656 166.909ZM297.832 166.885L360.347 158.305L359.803 154.342L297.288 162.922L297.832 166.885ZM360.346 158.305L360.402 158.297L359.858 154.334L359.803 154.342L360.346 158.305ZM360.638 158.25L360.692 158.236L359.677 154.367L359.622 154.381L360.638 158.25ZM360.702 158.233L369.662 155.833L368.627 151.97L359.667 154.369L360.702 158.233ZM369.662 155.833L371.064 155.458L370.029 151.594L368.627 151.97L369.662 155.833ZM372.034 152.189L371.064 151.109L368.089 153.783L369.059 154.862L372.034 152.189ZM371.064 151.11L313.472 86.9961L310.496 89.6691L368.089 153.783L371.064 151.11ZM313.472 86.9961L313.173 86.6635L310.197 89.3365L310.496 89.6691L313.472 86.9961Z" fill="white" mask="url(#path-8-inside-1)"/>
<path d="M258.651 228.64L259.156 280.932L279.854 285.181V231.5L258.651 228.64ZM261.721 259.141C260.922 259.141 260.274 258.493 260.274 257.694C260.274 256.895 260.922 256.247 261.721 256.247C262.521 256.247 263.168 256.895 263.168 257.694C263.168 258.493 262.52 259.141 261.721 259.141Z" fill="#F9616D"/>
<path d="M200 11.907C225.398 11.907 250.029 16.8787 273.211 26.6835C295.607 36.1567 315.724 49.72 333.002 66.9982C350.28 84.2758 363.844 104.393 373.318 126.789C383.122 149.971 388.094 174.602 388.094 200C388.094 225.397 383.122 250.029 373.318 273.21C363.844 295.607 350.281 315.724 333.002 333.002C315.724 350.28 295.607 363.844 273.211 373.317C250.029 383.122 225.398 388.093 200 388.093C174.603 388.093 149.971 383.121 126.79 373.317C104.393 363.844 84.2764 350.28 66.9988 333.002C49.7206 315.724 36.1567 295.607 26.6841 273.21C16.8787 250.029 11.907 225.398 11.907 200C11.907 174.603 16.8787 149.971 26.6835 126.79C36.1567 104.393 49.72 84.2764 66.9982 66.9988C84.2758 49.7206 104.393 36.1567 126.789 26.6841C149.971 16.8787 174.602 11.907 200 11.907ZM200 0C89.5428 0 0 89.5428 0 200C0 310.458 89.5428 400.001 200 400.001C310.458 400.001 400.001 310.458 400.001 200C400.001 89.5428 310.457 0 200 0Z" fill="#F1F1F1"/>
<path d="M146.28 117.975H136.788V160.688H75.0917V170.18C75.0917 172.79 77.2273 174.925 79.8375 174.925H132.042L151.025 193.909V122.721C151.025 120.111 148.89 117.975 146.28 117.975Z" fill="#B0CAFC"/>
<path d="M125.442 102H63.7459C61.1356 102 59 104.136 59 106.746V173.188L77.9834 154.204H125.442C128.052 154.204 130.188 152.069 130.188 149.459V106.746C130.188 104.136 128.052 102 125.442 102Z" fill="#BCC6CC"/>
</g>
<defs>
<clipPath id="clip0">
<rect width="400" height="400" fill="white"/>
</clipPath>
</defs>
</svg>
