<svg width="400" height="400" viewBox="0 0 400 400" fill="none" xmlns="http://www.w3.org/2000/svg">
<g clip-path="url(#clip0)">
<circle cx="200" cy="200" r="200" fill="white"/>
<path d="M200 11.907C225.398 11.907 250.029 16.8787 273.211 26.6835C295.607 36.1567 315.724 49.72 333.002 66.9982C350.28 84.2758 363.844 104.393 373.318 126.789C383.122 149.971 388.094 174.602 388.094 200C388.094 225.397 383.122 250.029 373.318 273.21C363.844 295.607 350.281 315.724 333.002 333.002C315.724 350.28 295.607 363.844 273.211 373.317C250.029 383.122 225.398 388.093 200 388.093C174.603 388.093 149.971 383.121 126.79 373.317C104.393 363.844 84.2764 350.28 66.9988 333.002C49.7206 315.724 36.1567 295.607 26.6841 273.21C16.8787 250.029 11.907 225.398 11.907 200C11.907 174.603 16.8787 149.971 26.6835 126.79C36.1567 104.393 49.72 84.2764 66.9982 66.9988C84.2758 49.7206 104.393 36.1567 126.789 26.6841C149.971 16.8787 174.602 11.907 200 11.907ZM200 0C89.5428 0 0 89.5428 0 200C0 310.458 89.5428 400.001 200 400.001C310.458 400.001 400.001 310.458 400.001 200C400.001 89.5428 310.457 0 200 0Z" fill="#F1F1F1"/>
<rect x="121.09" y="107.568" width="186.91" height="246.332" rx="12" fill="#EBF7FF"/>
<rect x="94" y="83.7186" width="184.91" height="244.332" rx="11" fill="#B1E5F1" stroke="white" stroke-width="2"/>
<path d="M197.799 34.1005L183.365 59.1005L212.233 59.1005L197.799 34.1005ZM200.299 82.7186L200.299 56.6005L195.299 56.6005L195.299 82.7186L200.299 82.7186Z" fill="#89AEFA"/>
<line x1="120.01" y1="124.293" x2="253.98" y2="124.293" stroke="#495377" stroke-width="2"/>
<line x1="120.01" y1="139.419" x2="253.98" y2="139.419" stroke="#495377" stroke-width="2"/>
<line x1="120.01" y1="154.545" x2="253.98" y2="154.545" stroke="#495377" stroke-width="2"/>
<line x1="120.01" y1="169.67" x2="253.98" y2="169.67" stroke="#495377" stroke-width="2"/>
<path d="M199.542 233.495L109.37 248.382L109.509 235.476L199.835 217.726L260.796 236.028V248.611L199.542 233.495Z" fill="#111D4A"/>
<path d="M199.818 218.083L260.449 236.285V248.169L199.556 233.142L109.721 247.973L109.852 235.762L199.818 218.083ZM199.853 217.37L199.684 217.403L109.718 235.081L109.165 235.19L109.159 235.754L109.028 247.965L109.019 248.791L109.834 248.657L199.528 233.849L260.283 248.842L261.142 249.054V248.169V236.285V235.769L260.648 235.621L200.017 217.419L199.853 217.37Z" fill="white"/>
<path d="M114.711 303.705V248.005L199.231 234.29L199.313 314.202L114.711 303.705Z" fill="#89AEFA"/>
<path d="M198.885 234.697L198.966 313.81L115.057 303.399V248.3L198.885 234.697ZM199.577 233.883L198.774 234.013L114.946 247.616L114.364 247.71V248.3V303.399V304.011L114.972 304.087L198.881 314.498L199.66 314.594L199.659 313.809L199.578 234.696L199.577 233.883Z" fill="white"/>
<path d="M137.595 306.325V259.156L167.622 255.604V309.944L137.595 306.325Z" fill="#89AEFA"/>
<path d="M167.276 255.994V309.554L137.942 306.018V259.464L167.276 255.994ZM167.969 255.214L167.194 255.306L137.861 258.776L137.249 258.848V259.464V306.018V306.632L137.859 306.706L167.193 310.241L167.969 310.335V309.554V255.994V255.214Z" fill="white"/>
<path d="M199.864 234.208L258.603 248.42V301.914L199.864 313.94V234.208Z" fill="#89AEFA"/>
<path d="M200.21 234.648L258.256 248.693V301.631L200.21 313.515V234.648V234.648ZM199.517 233.767V234.648V313.515V314.364L200.349 314.194L258.395 302.31L258.949 302.197V301.631V248.693V248.147L258.419 248.019L200.373 233.975L199.517 233.767Z" fill="white"/>
<path d="M241.436 261.339L250.575 262.24L250.763 282.166L241.53 282.908L241.436 261.339Z" fill="#EBF7FF"/>
<path d="M131.983 255.011V293.774L122.031 293.119V256.321L131.983 255.011Z" fill="#EBF7FF"/>
<path d="M186.995 299.667L173.529 298.781V248.992L186.995 247.22" fill="#EBF7FF"/>
<path d="M148.058 263.524V295.836L142.263 295.345V264.113L148.058 263.524Z" fill="#EBF7FF"/>
<path d="M162.888 261.854V297.608L156.477 297.064V262.506L162.888 261.854Z" fill="#EBF7FF"/>
<circle cx="258.387" cy="297.081" r="9.92211" fill="#BCC6CC"/>
<circle cx="199.391" cy="217.704" r="6.70413" fill="#BCC6CC"/>
<circle cx="111.969" cy="248.275" r="6.70413" fill="#BCC6CC"/>
</g>
<defs>
<clipPath id="clip0">
<rect width="400" height="400" fill="white"/>
</clipPath>
</defs>
</svg>
