<svg width="400" height="400" viewBox="0 0 400 400" fill="none" xmlns="http://www.w3.org/2000/svg">
<g clip-path="url(#clip0)">
<circle cx="200" cy="200" r="200" fill="white"/>
<path d="M200 11.907C225.398 11.907 250.029 16.8787 273.211 26.6835C295.607 36.1567 315.724 49.72 333.002 66.9982C350.28 84.2758 363.844 104.393 373.318 126.789C383.122 149.971 388.094 174.602 388.094 200C388.094 225.397 383.122 250.029 373.318 273.21C363.844 295.607 350.281 315.724 333.002 333.002C315.724 350.28 295.607 363.844 273.211 373.317C250.029 383.122 225.398 388.093 200 388.093C174.603 388.093 149.971 383.121 126.79 373.317C104.393 363.844 84.2764 350.28 66.9988 333.002C49.7206 315.724 36.1567 295.607 26.6841 273.21C16.8787 250.029 11.907 225.398 11.907 200C11.907 174.603 16.8787 149.971 26.6835 126.79C36.1567 104.393 49.72 84.2764 66.9982 66.9988C84.2758 49.7206 104.393 36.1567 126.789 26.6841C149.971 16.8787 174.602 11.907 200 11.907ZM200 0C89.5428 0 0 89.5428 0 200C0 310.458 89.5428 400.001 200 400.001C310.458 400.001 400.001 310.458 400.001 200C400.001 89.5428 310.457 0 200 0Z" fill="#F1F1F1"/>
<rect x="121.598" y="78.5977" width="184.402" height="269.704" rx="12" fill="#EBF7FF"/>
<rect x="95" y="52" width="182.402" height="267.704" rx="11" fill="#B1E5F1" stroke="white" stroke-width="2"/>
<rect x="115.325" y="69.8166" width="60.213" height="60.213" rx="30.1065" fill="white"/>
<path fill-rule="evenodd" clip-rule="evenodd" d="M163.413 87.4942C163.563 87.644 163.682 87.8219 163.764 88.0178C163.845 88.2137 163.887 88.4238 163.887 88.6358C163.887 88.8479 163.845 89.058 163.764 89.2539C163.682 89.4498 163.563 89.6277 163.413 89.7775L140.838 112.352C140.688 112.503 140.51 112.622 140.315 112.703C140.119 112.784 139.909 112.826 139.697 112.826C139.484 112.826 139.274 112.784 139.078 112.703C138.883 112.622 138.705 112.503 138.555 112.352L127.267 101.065C126.965 100.762 126.795 100.351 126.795 99.9233C126.795 99.4951 126.965 99.0844 127.267 98.7816C127.57 98.4788 127.981 98.3087 128.409 98.3087C128.837 98.3087 129.248 98.4788 129.551 98.7816L139.697 108.931L161.13 87.4942C161.279 87.344 161.457 87.2249 161.653 87.1436C161.849 87.0623 162.059 87.0205 162.271 87.0205C162.483 87.0205 162.693 87.0623 162.889 87.1436C163.085 87.2249 163.263 87.344 163.413 87.4942V87.4942Z" fill="#3E3E3E"/>
</g>
<defs>
<clipPath id="clip0">
<rect width="400" height="400" fill="white"/>
</clipPath>
</defs>
</svg>
