<svg width="400" height="400" viewBox="0 0 400 400" fill="none" xmlns="http://www.w3.org/2000/svg">
<g clip-path="url(#clip0)">
<circle cx="200" cy="200" r="200" fill="white"/>
<path d="M200 11.907C225.398 11.907 250.029 16.8787 273.211 26.6835C295.607 36.1567 315.724 49.72 333.002 66.9982C350.28 84.2758 363.844 104.393 373.318 126.789C383.122 149.971 388.094 174.602 388.094 200C388.094 225.397 383.122 250.029 373.318 273.21C363.844 295.607 350.281 315.724 333.002 333.002C315.724 350.28 295.607 363.844 273.211 373.317C250.029 383.122 225.398 388.093 200 388.093C174.603 388.093 149.971 383.121 126.79 373.317C104.393 363.844 84.2764 350.28 66.9988 333.002C49.7206 315.724 36.1567 295.607 26.6841 273.21C16.8787 250.029 11.907 225.398 11.907 200C11.907 174.603 16.8787 149.971 26.6835 126.79C36.1567 104.393 49.72 84.2764 66.9982 66.9988C84.2758 49.7206 104.393 36.1567 126.789 26.6841C149.971 16.8787 174.602 11.907 200 11.907ZM200 0C89.5428 0 0 89.5428 0 200C0 310.458 89.5428 400.001 200 400.001C310.458 400.001 400.001 310.458 400.001 200C400.001 89.5428 310.457 0 200 0Z" fill="#F1F1F1"/>
<rect x="192.404" y="99.6401" width="144.596" height="211.484" rx="12" fill="#EBF7FF"/>
<rect x="171.764" y="79" width="142.596" height="209.484" rx="11" fill="#B1E5F1" stroke="white" stroke-width="2"/>
<rect x="187.486" y="92.7546" width="47.215" height="47.215" rx="23.6075" fill="white"/>
<path fill-rule="evenodd" clip-rule="evenodd" d="M225.193 106.616C225.31 106.734 225.404 106.873 225.468 107.027C225.531 107.18 225.564 107.345 225.564 107.511C225.564 107.678 225.531 107.842 225.468 107.996C225.404 108.15 225.31 108.289 225.193 108.407L207.491 126.108C207.374 126.226 207.234 126.319 207.08 126.383C206.927 126.447 206.762 126.48 206.596 126.48C206.429 126.48 206.265 126.447 206.111 126.383C205.958 126.319 205.818 126.226 205.701 126.108L196.85 117.257C196.612 117.02 196.479 116.698 196.479 116.362C196.479 116.026 196.612 115.704 196.85 115.467C197.087 115.23 197.409 115.096 197.745 115.096C198.081 115.096 198.403 115.23 198.64 115.467L206.596 123.425L223.402 106.616C223.52 106.498 223.659 106.405 223.813 106.341C223.966 106.278 224.131 106.245 224.297 106.245C224.464 106.245 224.628 106.278 224.782 106.341C224.936 106.405 225.075 106.498 225.193 106.616V106.616Z" fill="#3E3E3E"/>
<path d="M146.28 117.975H136.788V160.688H75.0916V170.18C75.0916 172.79 77.2272 174.925 79.8375 174.925H132.042L151.025 193.909V122.721C151.025 120.111 148.89 117.975 146.28 117.975Z" fill="#B0CAFC"/>
<path d="M125.442 102H63.7459C61.1356 102 59 104.136 59 106.746V173.188L77.9834 154.204H125.442C128.052 154.204 130.188 152.069 130.188 149.459V106.746C130.188 104.136 128.052 102 125.442 102Z" fill="#BCC6CC"/>
</g>
<defs>
<clipPath id="clip0">
<rect width="400" height="400" fill="white"/>
</clipPath>
</defs>
</svg>
