<svg width="400" height="400" viewBox="0 0 400 400" fill="none" xmlns="http://www.w3.org/2000/svg">
<circle cx="200" cy="200" r="200" fill="white"/>
<path d="M200 11.907C225.398 11.907 250.029 16.8787 273.211 26.6835C295.607 36.1567 315.724 49.72 333.002 66.9982C350.28 84.2758 363.844 104.393 373.318 126.789C383.122 149.971 388.094 174.602 388.094 200C388.094 225.397 383.122 250.029 373.318 273.21C363.844 295.607 350.281 315.724 333.002 333.002C315.724 350.28 295.607 363.844 273.211 373.317C250.029 383.122 225.398 388.093 200 388.093C174.603 388.093 149.971 383.121 126.79 373.317C104.393 363.844 84.2764 350.28 66.9988 333.002C49.7206 315.724 36.1567 295.607 26.6841 273.21C16.8787 250.029 11.907 225.398 11.907 200C11.907 174.603 16.8787 149.971 26.6835 126.79C36.1567 104.393 49.72 84.2764 66.9982 66.9988C84.2758 49.7206 104.393 36.1567 126.789 26.6841C149.971 16.8787 174.602 11.907 200 11.907ZM200 0C89.5428 0 0 89.5428 0 200C0 310.458 89.5428 400.001 200 400.001C310.458 400.001 400.001 310.458 400.001 200C400.001 89.5428 310.457 0 200 0Z" fill="#F1F1F1"/>
<path fill-rule="evenodd" clip-rule="evenodd" d="M197.2 154.285C197.755 154.836 198.194 155.49 198.495 156.211C198.795 156.931 198.949 157.704 198.949 158.484C198.949 159.264 198.795 160.036 198.495 160.757C198.194 161.477 197.755 162.132 197.2 162.683L113.851 245.715C113.298 246.268 112.641 246.706 111.917 247.005C111.194 247.304 110.419 247.458 109.636 247.458C108.853 247.458 108.077 247.304 107.354 247.005C106.631 246.706 105.974 246.268 105.421 245.715L63.7459 204.199C62.628 203.085 62 201.575 62 200C62 198.425 62.628 196.915 63.7459 195.801C64.8639 194.687 66.3801 194.062 67.961 194.062C69.542 194.062 71.0582 194.687 72.1761 195.801L109.636 233.13L188.77 154.285C189.323 153.732 189.98 153.294 190.703 152.995C191.427 152.696 192.202 152.542 192.985 152.542C193.768 152.542 194.543 152.696 195.267 152.995C195.99 153.294 196.647 153.732 197.2 154.285V154.285Z" fill="#B1E5F1"/>
<path d="M337.915 162.102L328.356 152.542L290.458 190.441L252.559 152.542L243 162.102L280.898 200L243 237.898L252.559 247.458L290.458 209.559L328.356 247.458L337.915 237.898L300.017 200L337.915 162.102Z" fill="#F9616D"/>
</svg>
