<svg width="400" height="400" viewBox="0 0 400 400" fill="none" xmlns="http://www.w3.org/2000/svg">
<circle cx="200" cy="200" r="200" fill="white"/>
<path d="M206 158C206 186.719 182.719 210 154 210C125.281 210 102 186.719 102 158C102 129.281 125.281 74 154 74C182.719 74 206 129.281 206 158Z" fill="#B1E5F1"/>
<path d="M150.939 165.999C150.973 164.333 152.333 163 154 163C155.667 163 157.027 164.333 157.061 165.999L158.898 256.001C158.954 258.745 156.745 261 154 261C151.255 261 149.046 258.745 149.102 256.001L150.939 165.999Z" fill="#0F3D47"/>
<path d="M226.183 233.634H314.691L340.887 242.302L343.918 302.68L291.274 371.725L236.039 389.402C236.039 389.402 206.338 393.371 205.147 393.371C203.956 393.371 145.612 387.418 145.612 387.418L107.51 371.725L58.6913 331.455L149.581 261.431L171.411 242.301L226.183 233.634Z" fill="#A9B2D2" stroke="white" stroke-width="2" stroke-miterlimit="10"/>
<path d="M62.3781 333.499C63.788 335.065 76.3285 332.478 78.6325 332.271C84.1855 331.771 89.7269 331.154 95.2583 330.434C106.825 328.925 118.371 327.118 129.886 325.218C152.659 321.461 175.599 315.595 197.874 309.319C201.469 308.306 209.515 305.461 209.763 300.511C210.073 294.367 200.252 291.341 196.216 290.015C186.969 286.978 162.123 287.787 157.112 276.234C143.058 243.821 204.987 238.546 220 233.692C137.379 225.361 50.8239 229.668 10 234.745C23.4362 281.328 32.0184 299.791 62.3781 333.499Z" fill="#B1E5F1" stroke="white" stroke-width="2" stroke-miterlimit="10"/>
<path d="M379.971 236.133C399 236.133 392.094 245.594 382.5 264.5C367.885 293.302 362.073 323.373 334.074 346.538C309.097 367.201 275.188 383.322 238.205 388C238.797 364.686 266.349 346.644 276.867 326.128C287.333 305.715 268.388 289.279 248.595 276.022C228.119 262.307 221.258 248.875 251.504 239.819C287.839 228.938 341.847 231.114 379.971 236.133Z" fill="#B1E5F1" stroke="white" stroke-width="2" stroke-miterlimit="10"/>
<path d="M385.88 132.59C385.459 132.412 384.953 132.543 384.594 132.825C384.234 133.108 383.999 133.519 383.82 133.94C383.28 135.203 382.809 139.81 385.343 137.896C386.442 137.065 387.582 133.308 385.88 132.59Z" fill="#7983A4"/>
<path d="M382.456 138.727C382.004 138.126 381.152 137.799 380.459 138.095C378.702 138.847 379.678 141.541 381.158 141.999C383.122 142.606 383.339 139.897 382.456 138.727Z" fill="#7983A4"/>
<path d="M200 11.907C225.398 11.907 250.029 16.8787 273.211 26.6835C295.607 36.1567 315.724 49.72 333.002 66.9982C350.28 84.2758 363.844 104.393 373.318 126.789C383.122 149.971 388.094 174.602 388.094 200C388.094 225.397 383.122 250.029 373.318 273.21C363.844 295.607 350.281 315.724 333.002 333.002C315.724 350.28 295.607 363.844 273.211 373.316C250.029 383.122 225.398 388.093 200 388.093C174.603 388.093 149.971 383.121 126.79 373.316C104.393 363.844 84.2764 350.28 66.9982 333.002C49.72 315.724 36.1561 295.607 26.6835 273.21C16.8787 250.029 11.907 225.398 11.907 200C11.907 174.603 16.8787 149.971 26.6835 126.79C36.1567 104.393 49.72 84.2764 66.9982 66.9988C84.2758 49.7206 104.393 36.1567 126.789 26.6841C149.971 16.8787 174.602 11.907 200 11.907ZM200 0C89.5428 0 0 89.5428 0 200C0 310.457 89.5428 400 200 400C310.458 400 400 310.457 400 200C400 89.5428 310.457 0 200 0Z" fill="#F1F1F1"/>
<path d="M138.274 246.439C143.386 237.52 156.165 236.529 161.916 237.149C172.778 237.149 175.334 246.439 173.417 252.013C171.884 256.473 157.869 257.175 151.053 256.968C144.664 257.175 133.162 255.358 138.274 246.439Z" fill="#5E6366" stroke="white" stroke-width="2"/>
<path d="M314.1 237.046C322.528 221.885 343.596 220.2 353.077 221.253C370.986 221.253 375.199 237.046 372.039 246.523C369.511 254.104 346.405 255.297 335.169 254.946C324.634 255.297 305.673 252.208 314.1 237.046Z" fill="#5E6366" stroke="white" stroke-width="2"/>
<path d="M167.761 261.439C162.787 252.52 150.353 251.529 144.758 252.149C134.189 252.149 131.702 261.439 133.567 267.013C135.059 271.473 148.695 272.175 155.327 271.968C161.544 272.175 172.734 270.358 167.761 261.439Z" fill="#5E6366" stroke="white" stroke-width="2"/>
<path d="M148.239 276.439C153.213 267.52 165.647 266.529 171.242 267.149C181.811 267.149 184.298 276.439 182.433 282.013C180.941 286.473 167.305 287.175 160.673 286.968C154.456 287.175 143.266 285.358 148.239 276.439Z" fill="#5E6366" stroke="white" stroke-width="2"/>
<path d="M203.761 286.439C198.787 277.52 186.353 276.529 180.758 277.149C170.189 277.149 167.702 286.439 169.567 292.013C171.059 296.473 184.695 297.175 191.327 296.968C197.544 297.175 208.734 295.358 203.761 286.439Z" fill="#5E6366" stroke="white" stroke-width="2"/>
</svg>
