<svg width="400" height="400" viewBox="0 0 400 400" fill="none" xmlns="http://www.w3.org/2000/svg">
<g clip-path="url(#clip0)">
<circle cx="200" cy="200" r="200" fill="white"/>
<path d="M36.2329 253.485L150.853 138.85L148.848 136.845L32.2155 253.492" fill="#111D4A"/>
<path d="M231.898 253.485L152.903 174.494L150.89 176.506L227.881 253.492" fill="#111D4A"/>
<path d="M207.982 169.895L238.989 138.852L236.983 136.845L203.964 169.902L222.695 188.659L224.712 186.648L207.982 169.895Z" fill="#111D4A"/>
<path d="M320.133 253.5L241 174.419L238.984 176.426L316.115 253.508" fill="#111D4A"/>
<path d="M288.935 162.759V158.433V136.845H284.918V162.767H288.935V162.759Z" fill="#111D4A"/>
<path d="M306.3 183.554L332.218 209.494V205.466L310.317 183.547V162.759H306.305L306.3 183.554Z" fill="#111D4A"/>
<path d="M156.883 136.845L273.512 253.475L235.916 253.492L156.921 174.502L77.8448 253.492H40.2503L156.883 136.845Z" fill="#F9616D"/>
<path d="M245.018 136.845L211.998 169.902L230.729 188.659L245.018 174.426L324.15 253.508H361.635L245.018 136.845Z" fill="#F9616D"/>
<path d="M361.635 136.845H292.953V162.767H314.335V183.554L340.254 209.494V162.767H361.635V136.845Z" fill="#F9616D"/>
<path d="M200 11.907C225.398 11.907 250.029 16.8787 273.211 26.6835C295.607 36.1567 315.724 49.72 333.002 66.9982C350.28 84.2758 363.844 104.393 373.318 126.789C383.122 149.971 388.094 174.602 388.094 200C388.094 225.397 383.122 250.029 373.318 273.21C363.844 295.607 350.281 315.724 333.002 333.002C315.724 350.28 295.607 363.844 273.211 373.317C250.029 383.122 225.398 388.093 200 388.093C174.603 388.093 149.971 383.121 126.79 373.317C104.393 363.844 84.2764 350.28 66.9988 333.002C49.7206 315.724 36.1567 295.607 26.6841 273.21C16.8787 250.029 11.907 225.398 11.907 200C11.907 174.603 16.8787 149.971 26.6835 126.79C36.1567 104.393 49.72 84.2764 66.9982 66.9988C84.2758 49.7206 104.393 36.1567 126.789 26.6841C149.971 16.8787 174.602 11.907 200 11.907ZM200 0C89.5428 0 0 89.5428 0 200C0 310.458 89.5428 400.001 200 400.001C310.458 400.001 400.001 310.458 400.001 200C400.001 89.5428 310.457 0 200 0Z" fill="#F1F1F1"/>
</g>
<defs>
<clipPath id="clip0">
<rect width="400" height="400" fill="white"/>
</clipPath>
</defs>
</svg>
