<svg width="400" height="201" viewBox="0 0 400 201" fill="none" xmlns="http://www.w3.org/2000/svg">
<path d="M-0.000244141 -1.52588e-05H400V200.575H-0.000244141V-1.52588e-05Z" fill="white"/>
<path d="M43.9998 72C43.9998 44.3857 66.3855 22 93.9998 22H280.575C321.997 22 355.575 55.5786 355.575 97V153.15C355.575 166.957 344.383 178.15 330.575 178.15H144C88.7713 178.15 43.9998 133.378 43.9998 78.1497V72Z" fill="#EBF7FF"/>
<circle cx="250.719" cy="140.385" r="44.9722" fill="white"/>
<path d="M210.477 155.101L291.112 155.011C286.607 170.755 274.37 181.813 253.414 183.688C230.776 185.713 220.385 175.018 210.477 155.101Z" fill="#B1E5F1"/>
<path d="M209.39 154.608H291.812L294.089 147.929L294.544 141.251H206.809L207.568 148.233L209.39 154.608Z" fill="#A9B2D2"/>
<path d="M236.823 153.395V129.141L257.386 136.275V153.871L236.823 153.395Z" fill="#89AEFA"/>
<path d="M236.948 129.299L257.259 136.345V153.762L236.948 153.291V129.299ZM236.697 128.982V129.299V153.291V153.497L236.941 153.503L257.252 153.973L257.511 153.98V153.762V136.345V136.203L257.355 136.149L237.044 129.103L236.697 128.982Z" fill="white"/>
<path d="M220.351 159.235V133.022L236.623 129.179V160.272L220.351 159.235Z" fill="#89AEFA"/>
<path d="M236.497 129.319V160.158L220.476 159.137V133.102L236.497 129.319ZM236.749 129.039L236.429 129.115L220.408 132.898L220.225 132.942V133.102V159.137V159.333L220.457 159.348L236.478 160.369L236.749 160.386V160.158V129.319V129.039Z" fill="white"/>
<path d="M236.716 128.981L219.198 133.395V130.263L236.8 125.482L258.027 132.972V136.444L236.716 128.981Z" fill="#111D4A"/>
<path d="M236.794 125.595L257.902 133.042V136.285L236.723 128.868L219.324 133.252V130.34L236.794 125.595ZM236.806 125.369L236.717 125.393L219.246 130.138L219.072 130.185V130.34V133.253V133.537L219.396 133.455L236.709 129.093L257.805 136.481L258.153 136.603V136.285V133.042V132.901L257.999 132.847L236.891 125.4L236.806 125.369Z" fill="white"/>
<path d="M260.286 134.433L225.446 140.185L225.499 135.198L260.399 128.34L283.952 135.411V140.273L260.286 134.433Z" fill="#111D4A"/>
<path d="M260.391 128.477L283.818 135.51V140.102L260.29 134.296L225.581 140.026L225.631 135.308L260.391 128.477ZM260.405 128.202L260.34 128.215L225.58 135.045L225.366 135.087L225.364 135.305L225.313 140.023L225.31 140.342L225.624 140.29L260.28 134.569L283.753 140.362L284.085 140.444V140.102V135.51V135.311L283.895 135.254L260.469 128.221L260.405 128.202Z" fill="white"/>
<path d="M227.509 161.56V140.039L260.165 134.74L260.197 165.616L227.509 161.56Z" fill="#89AEFA"/>
<path d="M260.031 134.897L260.062 165.464L227.642 161.441V140.153L260.031 134.897ZM260.298 134.582L259.988 134.633L227.599 139.888L227.375 139.925V140.153V161.441V161.678L227.609 161.707L260.029 165.729L260.33 165.767L260.33 165.463L260.298 134.897L260.298 134.582Z" fill="white"/>
<path d="M236.351 162.572V144.347L247.953 142.975V163.971L236.351 162.572Z" fill="#89AEFA"/>
<path d="M247.818 143.125V163.819L236.485 162.453V144.466L247.818 143.125ZM248.086 142.824L247.787 142.859L236.453 144.2L236.217 144.228V144.466V162.453V162.69L236.453 162.719L247.786 164.085L248.086 164.121V163.819V143.125V142.824Z" fill="white"/>
<path d="M260.409 134.708L283.104 140.2V160.868L260.409 165.514V134.708Z" fill="#89AEFA"/>
<path d="M260.543 134.878L282.97 140.304V160.758L260.543 165.35V134.878V134.878ZM260.275 134.538V134.878V165.35V165.678L260.597 165.612L283.024 161.02L283.238 160.977V160.758V140.304V140.094L283.033 140.044L260.606 134.618L260.275 134.538Z" fill="white"/>
<path d="M276.471 145.19L280.002 145.538L280.075 153.237L276.508 153.524L276.471 145.19Z" fill="#EBF7FF"/>
<path d="M234.182 142.746V157.722L230.337 157.469V143.252L234.182 142.746Z" fill="#EBF7FF"/>
<path d="M255.437 159.999L250.234 159.657V140.42L255.437 139.735" fill="#EBF7FF"/>
<path d="M240.393 146.035V158.519L238.154 158.329V146.262L240.393 146.035Z" fill="#EBF7FF"/>
<path d="M246.123 145.389V159.204L243.646 158.994V145.641L246.123 145.389Z" fill="#EBF7FF"/>
<path d="M250.775 98.1171C256.486 98.1171 262.024 99.2351 267.237 101.44C272.273 103.57 276.797 106.62 280.682 110.505C284.567 114.39 287.617 118.914 289.747 123.95C291.952 129.162 293.07 134.701 293.07 140.412C293.07 146.123 291.952 151.661 289.747 156.874C287.617 161.91 284.567 166.434 280.682 170.319C276.797 174.204 272.273 177.254 267.237 179.384C262.024 181.589 256.486 182.707 250.775 182.707C245.064 182.707 239.525 181.589 234.313 179.384C229.276 177.254 224.753 174.204 220.868 170.319C216.983 166.434 213.933 161.91 211.803 156.874C209.598 151.661 208.48 146.123 208.48 140.412C208.48 134.701 209.598 129.162 211.803 123.95C213.933 118.914 216.983 114.39 220.868 110.505C224.753 106.62 229.276 103.57 234.313 101.44C239.525 99.2351 245.064 98.1171 250.775 98.1171ZM250.775 95.4397C225.937 95.4397 205.802 115.574 205.802 140.412C205.802 165.25 225.937 185.384 250.775 185.384C275.612 185.384 295.747 165.249 295.747 140.412C295.747 115.575 275.612 95.4397 250.775 95.4397Z" fill="white"/>
<circle cx="199.873" cy="59.9999" r="44.9999" fill="#B1E5F1"/>
<path d="M211.337 20.8062V39.098H200.56H200.06V39.598V40.9206H189.97V33.1049V32.6049H189.47H188.223V16.478H194.584L204.77 18.2887L211.337 20.8062Z" fill="#89AEFA" stroke="white"/>
<path opacity="0.5" d="M179.399 62.7263V74.6249H166.124V62.6999L179.399 62.7263Z" fill="#111D4A" stroke="white" stroke-miterlimit="10"/>
<path d="M193.933 67.3039V55.1137H205.592V67.3559L193.933 67.3039Z" fill="#111D4A"/>
<path d="M205.458 55.2473V67.2209L194.066 67.1702V55.2473H205.458V55.2473ZM205.726 54.9794H205.458H194.066H193.799V55.2473V67.1702V67.4369L194.065 67.4381L205.457 67.4888L205.726 67.49V67.2209V55.2473V54.9794Z" fill="white"/>
<path d="M188.449 32.453V18.1354L192.203 17.2904L201.213 17.2904L211.487 18.8066V32.453H188.449Z" fill="#89AEFA" stroke="white"/>
<path opacity="0.5" d="M177.901 23.775V40.2615H168.445V36.3823H163.293V34.079L169.112 28.5634L173.597 25.5327L177.901 23.775Z" fill="#89AEFA" stroke="white" stroke-miterlimit="10"/>
<path opacity="0.5" d="M168.582 40.1252L173.279 36.0943L177.749 40.11" stroke="white" stroke-miterlimit="10" stroke-linecap="round"/>
<path opacity="0.5" d="M165.213 31.6647H173.264V36.0943" stroke="white" stroke-miterlimit="10" stroke-linecap="round"/>
<path d="M192.823 59.5623H198.346V63.1633V63.6633H198.846H206.953V73.7023H192.727L192.823 59.5623Z" fill="#111D4A" stroke="white"/>
<g opacity="0.5">
<path d="M222.894 41.725V24.1154L224.048 24.8954L230.553 29.5311L236.617 35.4906V41.725H222.894Z" fill="#89AEFA" stroke="white"/>
</g>
<path d="M240.598 77.7749L236.839 83.6367L229.889 91.7783L225.56 95.5775L220.396 97.9359L213.278 102.021L201.953 103.425L186.541 102.021L174.067 95.5775L167.345 90.15L161.421 82.0084L159.598 77.7749" fill="#A9B2D2" stroke="white" stroke-miterlimit="10"/>
<path d="M200.695 54.3749H198.973" stroke="#2F3133" stroke-miterlimit="10" stroke-linecap="round"/>
<path d="M200.695 42.2251H198.974" stroke="#2F3133" stroke-miterlimit="10" stroke-linecap="round"/>
<path d="M199.874 42.2249L199.874 54.3749" stroke="#2F3133" stroke-miterlimit="10" stroke-linecap="round"/>
<path opacity="0.5" d="M182.999 18.825L182.999 76.8749" stroke="#2F3133" stroke-miterlimit="10" stroke-linecap="round" stroke-dasharray="4 8"/>
<path opacity="0.5" d="M216.974 21.3L216.974 76.8749" stroke="#2F3133" stroke-miterlimit="10" stroke-linecap="round" stroke-dasharray="4 8"/>
<path d="M199.874 17.6791C205.588 17.6791 211.13 18.7977 216.346 21.0038C221.385 23.1353 225.911 26.187 229.799 30.0746C233.686 33.962 236.738 38.4883 238.87 43.5275C241.076 48.7434 242.194 54.2854 242.194 59.9999C242.194 65.7143 241.076 71.2564 238.87 76.4722C236.738 81.5114 233.687 86.0377 229.799 89.9253C225.911 93.8129 221.385 96.8648 216.346 98.9962C211.13 101.202 205.588 102.321 199.874 102.321C194.159 102.321 188.617 101.202 183.401 98.9962C178.362 96.8648 173.836 93.8129 169.948 89.9253C166.061 86.0378 163.009 81.5114 160.877 76.4722C158.671 71.2565 157.553 65.7144 157.553 60C157.553 54.2856 158.671 48.7434 160.877 43.5276C163.009 38.4884 166.061 33.9622 169.948 30.0747C173.836 26.1871 178.362 23.1353 183.401 21.0039C188.617 18.7977 194.159 17.6791 199.874 17.6791ZM199.874 15C175.021 15 154.874 35.1471 154.874 60C154.874 84.8529 175.021 105 199.874 105C224.726 105 244.874 84.8529 244.874 60C244.874 35.1471 224.726 15 199.874 15Z" fill="white"/>
<circle cx="149" cy="141" r="45" fill="white"/>
<path d="M150.35 131.55C150.35 138.012 145.112 143.25 138.65 143.25C132.188 143.25 126.95 138.012 126.95 131.55C126.95 125.088 132.188 112.65 138.65 112.65C145.112 112.65 150.35 125.088 150.35 131.55Z" fill="#B1E5F1"/>
<path d="M137.961 133.35C137.969 132.975 138.275 132.675 138.65 132.675V132.675C139.025 132.675 139.331 132.975 139.339 133.35L139.752 153.6C139.765 154.218 139.267 154.725 138.65 154.725V154.725C138.032 154.725 137.535 154.218 137.548 153.6L137.961 133.35Z" fill="#0F3D47"/>
<path d="M154.891 148.568H174.806L180.7 150.518L181.381 164.103L169.537 179.638L157.109 183.616C157.109 183.616 150.426 184.509 150.158 184.509C149.89 184.509 136.763 183.169 136.763 183.169L128.19 179.638L117.206 170.577L137.656 154.822L142.568 150.518L154.891 148.568Z" fill="#A9B2D2" stroke="white" stroke-width="2" stroke-miterlimit="10"/>
<path d="M118.035 171.037C118.352 171.39 121.174 170.808 121.692 170.761C122.942 170.649 124.189 170.51 125.433 170.348C128.036 170.008 130.633 169.602 133.224 169.174C138.348 168.329 143.51 167.009 148.522 165.597C149.33 165.369 151.141 164.729 151.197 163.615C151.266 162.233 149.057 161.552 148.149 161.253C146.068 160.57 140.478 160.752 139.35 158.153C136.188 150.86 150.122 149.673 153.5 148.581C134.91 146.706 115.435 147.675 106.25 148.818C109.273 159.299 111.204 163.453 118.035 171.037Z" fill="#B1E5F1" stroke="white" stroke-miterlimit="10"/>
<path d="M189.494 149.13C193.775 149.13 192.221 151.259 190.063 155.513C186.774 161.993 185.467 168.759 179.167 173.971C173.547 178.62 165.917 182.247 157.596 183.3C157.729 178.054 163.929 173.995 166.295 169.379C168.65 164.786 164.387 161.088 159.934 158.105C155.327 155.019 153.783 151.997 160.589 149.959C168.764 147.511 180.916 148.001 189.494 149.13Z" fill="#B1E5F1" stroke="white" stroke-miterlimit="10"/>
<path d="M190.823 125.833C190.728 125.793 190.615 125.822 190.534 125.886C190.453 125.949 190.4 126.042 190.36 126.136C190.238 126.421 190.132 127.457 190.702 127.027C190.949 126.84 191.206 125.994 190.823 125.833Z" fill="#7983A4"/>
<path d="M190.052 127.214C189.951 127.078 189.759 127.005 189.603 127.071C189.208 127.24 189.427 127.847 189.76 127.95C190.202 128.086 190.251 127.477 190.052 127.214Z" fill="#7983A4"/>
<path d="M149 98.6791C154.715 98.6791 160.257 99.7977 165.472 102.004C170.512 104.135 175.038 107.187 178.926 111.075C182.813 114.962 185.865 119.488 187.996 124.528C190.203 129.743 191.321 135.285 191.321 141C191.321 146.714 190.202 152.256 187.996 157.472C185.865 162.512 182.813 167.038 178.926 170.925C175.038 174.813 170.512 177.865 165.472 179.996C160.257 182.202 154.715 183.321 149 183.321C143.286 183.321 137.743 182.202 132.528 179.996C127.488 177.865 122.962 174.813 119.075 170.925C115.187 167.038 112.135 162.512 110.004 157.472C107.798 152.257 106.679 146.715 106.679 141C106.679 135.286 107.798 129.743 110.004 124.528C112.135 119.488 115.187 114.962 119.075 111.075C122.962 107.187 127.488 104.135 132.528 102.004C137.743 99.7977 143.285 98.6791 149 98.6791ZM149 96C124.147 96 104 116.147 104 141C104 165.853 124.147 186 149 186C173.853 186 194 165.853 194 141C194 116.147 173.853 96 149 96Z" fill="white"/>
<path d="M135.112 151.449C136.262 149.442 139.137 149.219 140.431 149.358C142.875 149.358 143.45 151.449 143.019 152.703C142.674 153.706 139.52 153.864 137.987 153.818C136.549 153.864 133.961 153.455 135.112 151.449Z" fill="#5E6366" stroke="white"/>
<path d="M174.672 149.335C176.569 145.924 181.309 145.545 183.442 145.782C187.472 145.782 188.42 149.335 187.709 151.468C187.14 153.173 181.941 153.442 179.413 153.363C177.043 153.442 172.776 152.747 174.672 149.335Z" fill="#5E6366" stroke="white"/>
<path d="M141.746 154.824C140.627 152.817 137.829 152.594 136.57 152.733C134.192 152.733 133.633 154.824 134.052 156.078C134.388 157.081 137.456 157.239 138.948 157.193C140.347 157.239 142.865 156.831 141.746 154.824Z" fill="#5E6366" stroke="white"/>
<path d="M137.354 158.199C138.473 156.192 141.271 155.969 142.529 156.108C144.907 156.108 145.467 158.199 145.047 159.453C144.712 160.456 141.644 160.614 140.151 160.568C138.753 160.614 136.235 160.206 137.354 158.199Z" fill="#5E6366" stroke="white"/>
<path d="M149.846 160.449C148.727 158.442 145.929 158.219 144.67 158.358C142.292 158.358 141.733 160.449 142.153 161.703C142.488 162.706 145.556 162.864 147.048 162.818C148.447 162.864 150.965 162.456 149.846 160.449Z" fill="#5E6366" stroke="white"/>
</svg>
