<svg width="400" height="400" viewBox="0 0 400 400" fill="none" xmlns="http://www.w3.org/2000/svg">
<g clip-path="url(#clip0)">
<circle cx="200" cy="200" r="200" fill="white"/>
<path d="M200 11.907C225.398 11.907 250.029 16.8787 273.211 26.6835C295.607 36.1567 315.724 49.72 333.002 66.9982C350.28 84.2758 363.844 104.393 373.318 126.789C383.122 149.971 388.094 174.602 388.094 200C388.094 225.397 383.122 250.029 373.318 273.21C363.844 295.607 350.281 315.724 333.002 333.002C315.724 350.28 295.607 363.844 273.211 373.317C250.029 383.122 225.398 388.093 200 388.093C174.603 388.093 149.971 383.121 126.79 373.317C104.393 363.844 84.2764 350.28 66.9988 333.002C49.7206 315.724 36.1567 295.607 26.6841 273.21C16.8787 250.029 11.907 225.398 11.907 200C11.907 174.603 16.8787 149.971 26.6835 126.79C36.1567 104.393 49.72 84.2764 66.9982 66.9988C84.2758 49.7206 104.393 36.1567 126.789 26.6841C149.971 16.8787 174.602 11.907 200 11.907ZM200 0C89.5428 0 0 89.5428 0 200C0 310.458 89.5428 400.001 200 400.001C310.458 400.001 400.001 310.458 400.001 200C400.001 89.5428 310.457 0 200 0Z" fill="#F1F1F1"/>
<path d="M223.782 144.943L55.655 172.7L55.9128 148.635L224.328 115.541L337.991 149.664V173.127L223.782 144.943Z" fill="#111D4A"/>
<path d="M224.296 116.206L337.345 150.145V172.303L223.808 144.284L56.3088 171.937L56.553 149.168L224.296 116.206ZM224.361 114.876L224.047 114.938L56.3037 147.9L55.272 148.103L55.2603 149.154L55.0162 171.923L55 173.462L56.5188 173.212L223.756 145.602L337.035 173.557L338.637 173.953V172.303V150.145V149.183L337.716 148.907L224.668 114.968L224.361 114.876Z" fill="white"/>
<path d="M65.6129 275.85V171.997L223.202 146.425L223.355 295.422L65.6129 275.85Z" fill="#89AEFA"/>
<path d="M222.556 147.184L222.709 294.691L66.2584 275.279V172.547L222.556 147.184ZM223.847 145.666L222.35 145.908L66.0517 171.271L64.9664 171.447V172.547V275.279V276.422L66.0995 276.562L222.55 295.974L224.002 296.154L224.001 294.69L223.848 147.182L223.847 145.666Z" fill="white"/>
<path d="M108.281 280.736V192.788L164.267 186.165V287.484L108.281 280.736Z" fill="#89AEFA"/>
<path d="M163.621 186.892V286.755L108.928 280.163V193.362L163.621 186.892ZM164.913 185.438L163.469 185.609L108.776 192.079L107.636 192.214V193.362V280.163V281.309L108.773 281.446L163.466 288.038L164.913 288.213V286.755V186.892V185.438Z" fill="white"/>
<path d="M224.382 146.272L333.902 172.771V272.511L224.382 294.934V146.272Z" fill="#89AEFA"/>
<path d="M225.028 147.093L333.255 173.279V271.984L225.028 294.142V147.093V147.093ZM223.736 145.45V147.093V294.142V295.726L225.287 295.408L333.514 273.25L334.547 273.038V271.984V173.279V172.262L333.56 172.023L225.332 145.837L223.736 145.45Z" fill="white"/>
<path d="M301.894 196.858L318.933 198.537L319.285 235.691L302.069 237.074L301.894 196.858Z" fill="#EBF7FF"/>
<path d="M97.8173 185.06V257.334L79.2616 256.113V187.502L97.8173 185.06Z" fill="#EBF7FF"/>
<path d="M200.388 268.321L175.279 266.669V173.836L200.388 170.532" fill="#EBF7FF"/>
<path d="M127.789 200.932V261.179L116.985 260.263V202.03L127.789 200.932Z" fill="#EBF7FF"/>
<path d="M155.441 197.818V264.482L143.487 263.468V199.034L155.441 197.818Z" fill="#EBF7FF"/>
<circle cx="333.5" cy="263.5" r="18.5" fill="#BCC6CC"/>
<path d="M331.622 268.468C331.642 267.246 331.779 266.28 332.032 265.572C332.286 264.863 332.803 264.078 333.584 263.215L335.576 261.136C336.427 260.16 336.853 259.113 336.853 257.993C336.853 256.915 336.574 256.073 336.017 255.467C335.459 254.851 334.648 254.543 333.584 254.543C332.55 254.543 331.718 254.82 331.09 255.375C330.461 255.929 330.147 256.674 330.147 257.608H327.333C327.354 255.945 327.937 254.605 329.082 253.588C330.238 252.561 331.738 252.048 333.584 252.048C335.5 252.048 336.99 252.571 338.055 253.619C339.129 254.656 339.667 256.083 339.667 257.901C339.667 259.698 338.845 261.469 337.203 263.215L335.545 264.879C334.805 265.71 334.435 266.907 334.435 268.468H331.622ZM331.5 273.35C331.5 272.888 331.637 272.503 331.911 272.195C332.195 271.877 332.61 271.718 333.158 271.718C333.705 271.718 334.121 271.877 334.405 272.195C334.689 272.503 334.831 272.888 334.831 273.35C334.831 273.813 334.689 274.198 334.405 274.506C334.121 274.803 333.705 274.952 333.158 274.952C332.61 274.952 332.195 274.803 331.911 274.506C331.637 274.198 331.5 273.813 331.5 273.35Z" fill="#111D4A"/>
<circle cx="223.5" cy="115.5" r="12.5" fill="#BCC6CC"/>
<path d="M222.231 118.856C222.245 118.031 222.337 117.379 222.508 116.9C222.68 116.421 223.029 115.89 223.557 115.307L224.903 113.902C225.478 113.243 225.766 112.536 225.766 111.779C225.766 111.051 225.577 110.482 225.201 110.072C224.824 109.656 224.276 109.448 223.557 109.448C222.858 109.448 222.296 109.635 221.871 110.01C221.447 110.385 221.234 110.888 221.234 111.519H219.333C219.347 110.395 219.741 109.49 220.515 108.803C221.296 108.109 222.31 107.762 223.557 107.762C224.851 107.762 225.858 108.116 226.577 108.823C227.304 109.524 227.667 110.489 227.667 111.717C227.667 112.931 227.112 114.128 226.002 115.307L224.882 116.431C224.382 116.993 224.132 117.802 224.132 118.856H222.231ZM222.149 122.156C222.149 121.843 222.241 121.583 222.426 121.375C222.618 121.16 222.899 121.052 223.269 121.052C223.639 121.052 223.92 121.16 224.111 121.375C224.303 121.583 224.399 121.843 224.399 122.156C224.399 122.468 224.303 122.728 224.111 122.936C223.92 123.137 223.639 123.238 223.269 123.238C222.899 123.238 222.618 123.137 222.426 122.936C222.241 122.728 222.149 122.468 222.149 122.156Z" fill="#111D4A"/>
<circle cx="60.5" cy="172.5" r="12.5" fill="#BCC6CC"/>
<path d="M59.231 175.856C59.2447 175.031 59.3372 174.379 59.5084 173.9C59.6797 173.421 60.0291 172.89 60.5565 172.307L61.9026 170.902C62.478 170.243 62.7657 169.536 62.7657 168.779C62.7657 168.051 62.5773 167.482 62.2006 167.072C61.8238 166.656 61.2758 166.448 60.5565 166.448C59.8578 166.448 59.2961 166.635 58.8714 167.01C58.4466 167.385 58.2343 167.888 58.2343 168.519H56.3333C56.347 167.395 56.7409 166.49 57.515 165.803C58.2959 165.109 59.3098 164.762 60.5565 164.762C61.8512 164.762 62.8582 165.116 63.5775 165.823C64.3036 166.524 64.6667 167.489 64.6667 168.717C64.6667 169.931 64.1118 171.128 63.0021 172.307L61.882 173.431C61.382 173.993 61.1319 174.802 61.1319 175.856H59.231ZM59.1488 179.156C59.1488 178.843 59.2413 178.583 59.4262 178.375C59.618 178.16 59.8989 178.052 60.2688 178.052C60.6387 178.052 60.9196 178.16 61.1114 178.375C61.3032 178.583 61.3991 178.843 61.3991 179.156C61.3991 179.468 61.3032 179.728 61.1114 179.936C60.9196 180.137 60.6387 180.238 60.2688 180.238C59.8989 180.238 59.618 180.137 59.4262 179.936C59.2413 179.728 59.1488 179.468 59.1488 179.156Z" fill="#111D4A"/>
</g>
<defs>
<clipPath id="clip0">
<rect width="400" height="400" fill="white"/>
</clipPath>
</defs>
</svg>
