<svg width="400" height="201" viewBox="0 0 400 201" fill="none" xmlns="http://www.w3.org/2000/svg">
<path d="M-0.000244141 0H400V200.575H-0.000244141V0Z" fill="white"/>
<path d="M43.9998 47C43.9998 33.1928 55.1926 22 68.9998 22H280.575C321.997 22 355.575 55.5787 355.575 97V128.15C355.575 155.764 333.19 178.15 305.575 178.15H144C88.7713 178.15 43.9998 133.378 43.9998 78.1497V47Z" fill="#EBF7FF"/>
<path d="M217.631 59.6926L94.6016 80.0038L94.7902 62.3943L218.031 38.1769L301.205 63.1474V80.3168L217.631 59.6926Z" fill="#111D4A"/>
<path d="M218.007 38.6634L300.732 63.4987V79.7131L217.65 59.2105L95.0801 79.4456L95.2588 62.7844L218.007 38.6634ZM218.055 37.6905L217.825 37.7359L95.0763 61.8564L94.3213 62.0048L94.3128 62.774L94.1341 79.4352L94.1223 80.5617L95.2337 80.3783L217.612 60.1749L300.506 80.6312L301.677 80.9205V79.7131V63.4987V62.7953L301.004 62.5929L218.279 37.7581L218.055 37.6905Z" fill="white"/>
<path d="M101.888 155.486V79.4899L217.206 60.7766L217.319 169.808L101.888 155.486Z" fill="#89AEFA"/>
<path d="M216.734 61.3321L216.845 169.273L102.361 155.068V79.8917L216.734 61.3321ZM217.678 60.2211L216.583 60.3989L102.209 78.9586L101.415 79.0872V79.8917V155.068V155.904L102.244 156.006L216.729 170.211L217.792 170.343L217.791 169.272L217.679 61.3311L217.678 60.2211Z" fill="white"/>
<path d="M133.111 159.061V94.7036L174.08 89.8571V163.999L133.111 159.061Z" fill="#89AEFA"/>
<path d="M173.607 90.389V163.466L133.585 158.642V95.1239L173.607 90.389ZM174.553 89.3248L173.496 89.4501L133.474 94.185L132.639 94.2839V95.1239V158.642V159.48L133.472 159.58L173.494 164.404L174.553 164.532V163.466V90.389V89.3248Z" fill="white"/>
<path d="M218.07 60.6646L298.213 80.0559V153.042L218.07 169.45V60.6646Z" fill="#89AEFA"/>
<path d="M218.543 61.2654L297.739 80.4279V152.657L218.543 168.871V61.2654V61.2654ZM217.597 60.0637V61.2654V168.871V170.03L218.732 169.797L297.929 153.583L298.685 153.428V152.657V80.4279V79.6838L297.962 79.5089L218.765 60.3464L217.597 60.0637Z" fill="white"/>
<path d="M274.79 97.6817L287.259 98.911L287.516 126.098L274.919 127.111L274.79 97.6817Z" fill="#EBF7FF"/>
<path d="M125.454 89.0487V141.936L111.876 141.043V90.8357L125.454 89.0487Z" fill="#EBF7FF"/>
<path d="M200.512 149.976L182.138 148.767V80.8354L200.512 78.4179" fill="#EBF7FF"/>
<path d="M147.386 100.663V144.75L139.48 144.08V101.467L147.386 100.663Z" fill="#EBF7FF"/>
<path d="M167.621 98.3843V147.167L158.874 146.425V99.274L167.621 98.3843Z" fill="#EBF7FF"/>
<circle cx="297.919" cy="146.448" r="13.5376" fill="#BCC6CC"/>
<path d="M296.545 150.083C296.56 149.189 296.66 148.483 296.845 147.964C297.031 147.446 297.409 146.871 297.98 146.24L299.438 144.718C300.061 144.004 300.373 143.238 300.373 142.419C300.373 141.63 300.169 141.013 299.761 140.57C299.353 140.119 298.759 139.894 297.98 139.894C297.224 139.894 296.615 140.097 296.155 140.502C295.695 140.908 295.465 141.453 295.465 142.137H293.406C293.421 140.919 293.848 139.939 294.686 139.195C295.532 138.443 296.63 138.068 297.98 138.068C299.382 138.068 300.473 138.451 301.252 139.217C302.038 139.976 302.432 141.021 302.432 142.351C302.432 143.666 301.831 144.962 300.629 146.24L299.416 147.457C298.874 148.066 298.603 148.941 298.603 150.083H296.545ZM296.456 153.656C296.456 153.318 296.556 153.036 296.756 152.811C296.964 152.578 297.268 152.462 297.669 152.462C298.069 152.462 298.373 152.578 298.581 152.811C298.789 153.036 298.893 153.318 298.893 153.656C298.893 153.995 298.789 154.276 298.581 154.502C298.373 154.72 298.069 154.829 297.669 154.829C297.268 154.829 296.964 154.72 296.756 154.502C296.556 154.276 296.456 153.995 296.456 153.656Z" fill="#111D4A"/>
<circle cx="217.425" cy="38.1471" r="9.14705" fill="#BCC6CC"/>
<path d="M216.496 40.6032C216.506 39.999 216.574 39.5217 216.699 39.1714C216.824 38.821 217.08 38.4326 217.466 38.0061L218.451 36.978C218.872 36.4956 219.082 35.9777 219.082 35.4243C219.082 34.8912 218.945 34.4748 218.669 34.1753C218.393 33.8707 217.992 33.7183 217.466 33.7183C216.955 33.7183 216.544 33.8554 216.233 34.1296C215.922 34.4038 215.767 34.7719 215.767 35.2339H214.375C214.386 34.4114 214.674 33.7488 215.24 33.2461C215.812 32.7384 216.554 32.4845 217.466 32.4845C218.413 32.4845 219.15 32.7435 219.676 33.2614C220.208 33.7742 220.474 34.4799 220.474 35.3786C220.474 36.2671 220.067 37.143 219.255 38.0061L218.436 38.8286C218.07 39.2399 217.887 39.8314 217.887 40.6032H216.496ZM216.436 43.0174C216.436 42.7889 216.503 42.5985 216.639 42.4462C216.779 42.2888 216.985 42.2101 217.255 42.2101C217.526 42.2101 217.732 42.2888 217.872 42.4462C218.012 42.5985 218.082 42.7889 218.082 43.0174C218.082 43.2459 218.012 43.4363 217.872 43.5886C217.732 43.7358 217.526 43.8095 217.255 43.8095C216.985 43.8095 216.779 43.7358 216.639 43.5886C216.503 43.4363 216.436 43.2459 216.436 43.0174Z" fill="#111D4A"/>
<circle cx="98.1471" cy="79.8576" r="9.14705" fill="#BCC6CC"/>
<path d="M97.2181 82.3137C97.2281 81.7095 97.2958 81.2323 97.4211 80.8819C97.5464 80.5316 97.802 80.1432 98.188 79.7167L99.173 78.6885C99.5941 78.2062 99.8046 77.6883 99.8046 77.1349C99.8046 76.6018 99.6668 76.1854 99.3911 75.8859C99.1154 75.5812 98.7144 75.4289 98.188 75.4289C97.6767 75.4289 97.2657 75.566 96.9549 75.8402C96.6441 76.1143 96.4887 76.4824 96.4887 76.9445H95.0977C95.1077 76.122 95.3959 75.4594 95.9624 74.9567C96.5338 74.449 97.2757 74.1951 98.188 74.1951C99.1354 74.1951 99.8723 74.4541 100.399 74.9719C100.93 75.4848 101.196 76.1905 101.196 77.0892C101.196 77.9777 100.79 78.8535 99.9776 79.7167L99.158 80.5392C98.7921 80.9505 98.6091 81.542 98.6091 82.3137H97.2181ZM97.1579 84.728C97.1579 84.4995 97.2256 84.3091 97.3609 84.1568C97.5013 83.9994 97.7068 83.9207 97.9775 83.9207C98.2482 83.9207 98.4537 83.9994 98.5941 84.1568C98.7344 84.3091 98.8046 84.4995 98.8046 84.728C98.8046 84.9565 98.7344 85.1469 98.5941 85.2992C98.4537 85.4464 98.2482 85.52 97.9775 85.52C97.7068 85.52 97.5013 85.4464 97.3609 85.2992C97.2256 85.1469 97.1579 84.9565 97.1579 84.728Z" fill="#111D4A"/>
</svg>
