<svg width="400" height="400" viewBox="0 0 400 400" fill="none" xmlns="http://www.w3.org/2000/svg">
<g clip-path="url(#clip0)">
<circle cx="200" cy="200" r="200" fill="white"/>
<path d="M125.654 86.0502L48.0906 275.683C46.8514 278.713 48.8094 282.096 52.0538 282.531L314.381 317.716C317.058 318.075 319.536 316.244 319.979 313.579L353.665 110.566C354.138 107.716 352.104 105.059 349.23 104.772L130.778 82.9678C128.576 82.748 126.492 84.0019 125.654 86.0502Z" fill="#89AEFA"/>
<path d="M162.514 124.362L210.71 105.118L246.111 133.933L236.026 132.904L223.471 179.212L153.699 170.568L171.468 125.185L162.514 124.362Z" stroke="white" stroke-width="2" stroke-miterlimit="10" stroke-linejoin="round"/>
<path d="M298.457 107.588L256.47 298.175L308.749 304.761L343.943 111.293L298.457 107.588Z" stroke="white" stroke-width="2" stroke-miterlimit="10" stroke-linejoin="round"/>
<path d="M297.428 121.584L287.549 167.481L329.536 172.832L338.592 125.906L297.428 121.584Z" stroke="white" stroke-width="2" stroke-miterlimit="10" stroke-linejoin="round"/>
<path d="M295.679 129.508L336.74 134.242" stroke="white" stroke-width="2" stroke-miterlimit="10" stroke-linejoin="round"/>
<path d="M293.208 140.725L334.578 145.664" stroke="white" stroke-width="2" stroke-miterlimit="10" stroke-linejoin="round"/>
<path d="M334.166 148.443L292.798 143.194" stroke="white" stroke-width="2" stroke-miterlimit="10" stroke-linejoin="round"/>
<path d="M292.283 145.458L333.549 150.604" stroke="white" stroke-width="2" stroke-miterlimit="10" stroke-linejoin="round"/>
<path d="M332.932 153.177L291.871 147.619" stroke="white" stroke-width="2" stroke-miterlimit="10" stroke-linejoin="round"/>
<path d="M268.75 253.718L259.284 295.705L307.307 301.743L315.266 258.932L268.75 253.718Z" stroke="white" stroke-width="2" stroke-miterlimit="10" stroke-linejoin="round"/>
<path d="M262.576 281.436L309.777 287.336" stroke="white" stroke-width="2" stroke-miterlimit="10" stroke-linejoin="round"/>
<path d="M282.335 298.313L285.491 284.179" stroke="white" stroke-width="2" stroke-miterlimit="10" stroke-linejoin="round"/>
<path d="M109.723 164.805C111.918 165.08 267.516 185.112 267.516 185.112" stroke="white" stroke-width="2" stroke-miterlimit="10" stroke-linejoin="round"/>
<path d="M132.618 116.86C130.43 116.401 128.329 117.592 127.925 119.52C127.521 121.448 128.966 123.383 131.154 123.842C133.342 124.301 135.443 123.109 135.847 121.181C136.252 119.253 134.806 117.318 132.618 116.86Z" stroke="white" stroke-width="2" stroke-miterlimit="10" stroke-linejoin="round"/>
<path d="M118.355 152.465C116.167 152.006 114.066 153.197 113.661 155.125C113.257 157.053 114.703 158.988 116.892 159.447C119.08 159.906 121.181 158.715 121.585 156.787C121.99 154.859 120.544 152.924 118.355 152.465Z" stroke="white" stroke-width="2" stroke-miterlimit="10" stroke-linejoin="round"/>
<path d="M142.36 92.6415C140.172 92.1828 138.071 93.374 137.667 95.3021C137.262 97.2302 138.708 99.1651 140.896 99.6238C143.084 100.083 145.185 98.8913 145.589 96.9632C145.994 95.0351 144.548 93.1002 142.36 92.6415Z" stroke="white" stroke-width="2" stroke-miterlimit="10" stroke-linejoin="round"/>
<path d="M135.604 121.077L277.155 137.809" stroke="white" stroke-width="2" stroke-miterlimit="10" stroke-linejoin="round" stroke-dasharray="6 6"/>
<path d="M145.585 96.9615L283.707 109.92" stroke="white" stroke-width="2" stroke-miterlimit="10" stroke-linejoin="round" stroke-dasharray="6 6"/>
<path d="M121.574 156.786L267.242 174.684" stroke="white" stroke-width="2" stroke-miterlimit="10" stroke-linejoin="round" stroke-dasharray="6 6"/>
<path d="M113.016 269.644L130.515 217.307L215.456 229.652L202.675 282.259L113.016 269.644Z" stroke="white" stroke-width="2" stroke-miterlimit="10" stroke-linejoin="round"/>
<path d="M122.323 216.367L224.959 231.263L231.841 204.692L131.563 190.601L122.323 216.367Z" stroke="white" stroke-width="2" stroke-miterlimit="10" stroke-linejoin="round"/>
<path d="M70.2052 263.324L248.306 289.393" stroke="white" stroke-width="2" stroke-miterlimit="10" stroke-linejoin="round"/>
<path d="M168.312 172.077L178.741 142.165L192.873 144.086L183.406 174.136" stroke="white" stroke-width="2" stroke-miterlimit="10" stroke-linejoin="round"/>
<path d="M197.401 144.498L222.51 147.929L216.336 168.51L191.227 165.354L197.401 144.498Z" stroke="white" stroke-width="2" stroke-miterlimit="10" stroke-linejoin="round"/>
<path d="M133.597 232.794L158.707 236.224L152.43 257.732L127.423 253.65L133.597 232.794Z" stroke="white" stroke-width="2" stroke-miterlimit="10" stroke-linejoin="round"/>
<path d="M178.157 240.1L203.266 243.531L196.887 264.833L171.983 260.957L178.157 240.1Z" stroke="white" stroke-width="2" stroke-miterlimit="10" stroke-linejoin="round"/>
<path d="M288.86 194.579C286.672 194.12 284.571 195.312 284.166 197.24C283.762 199.169 285.208 201.104 287.396 201.562C289.583 202.021 291.685 200.83 292.089 198.901C292.493 196.973 291.048 195.037 288.86 194.579Z" stroke="white" stroke-width="2" stroke-miterlimit="10" stroke-linejoin="round"/>
<path d="M285.687 208.583C283.499 208.124 281.398 209.315 280.994 211.244C280.589 213.172 282.035 215.107 284.223 215.565C286.411 216.024 288.512 214.833 288.916 212.905C289.321 210.977 287.875 209.042 285.687 208.583Z" stroke="white" stroke-width="2" stroke-miterlimit="10" stroke-linejoin="round"/>
<path d="M282.408 223.189C280.22 222.731 278.118 223.922 277.714 225.85C277.31 227.778 278.756 229.713 280.944 230.172C283.132 230.63 285.234 229.439 285.638 227.511C286.042 225.583 284.596 223.648 282.408 223.189Z" stroke="white" stroke-width="2" stroke-miterlimit="10" stroke-linejoin="round"/>
<path d="M279.225 237.2C277.037 236.741 274.936 237.932 274.531 239.86C274.127 241.789 275.573 243.723 277.761 244.182C279.948 244.641 282.05 243.45 282.454 241.522C282.858 239.593 281.412 237.659 279.225 237.2Z" stroke="white" stroke-width="2" stroke-miterlimit="10" stroke-linejoin="round"/>
<path d="M182.313 116.456L184.978 108.395L191.822 109.17L190.398 113.228" stroke="white" stroke-width="2" stroke-miterlimit="10"/>
<path d="M295.788 198.79C295.815 197.925 296.424 197.09 297.26 196.867C298.096 196.644 299.079 197.109 299.377 197.921C299.675 198.732 299.171 199.763 298.33 199.968C299.249 199.91 300.167 199.852 301.085 199.794C301.207 199.986 301.328 200.179 301.449 200.373C302.963 200.215 304.477 200.058 305.99 199.902C305.871 199.542 305.752 199.183 305.634 198.823C307.235 198.666 308.681 200.478 308.169 202.003C309.138 202.602 310.621 201.712 310.549 200.576C312.373 199.974 314.508 200.43 315.928 201.726C316.316 201.247 316.705 200.769 317.093 200.291C316.771 200.99 317.013 201.903 317.64 202.352C318.267 202.801 319.208 202.736 319.767 202.205C319.598 202.321 319.428 202.439 319.259 202.557" stroke="white" stroke-width="2" stroke-miterlimit="10" stroke-linejoin="round"/>
<path d="M292.81 212.794C292.923 211.593 294.601 210.851 295.511 211.643C296.364 212.385 296.138 213.857 295.348 214.667C294.559 215.477 293.407 215.795 292.313 216.08C291.781 215.765 292.084 214.83 292.682 214.67C293.28 214.512 293.893 214.88 294.327 215.321C294.76 215.762 295.111 216.299 295.637 216.626C296.162 216.952 296.96 216.976 297.307 216.465C297.655 215.954 296.975 215.087 296.483 215.462C295.993 215.838 296.584 216.704 297.197 216.626C297.809 216.549 298.216 215.971 298.523 215.435C298.829 214.899 299.172 214.302 299.764 214.128C300.387 214.642 300.564 215.623 300.16 216.322C300.731 216.121 301.303 215.92 301.874 215.719C302.017 216.366 302.796 216.787 303.415 216.551C304.033 216.315 304.335 215.483 304.012 214.906C305.587 215.162 307.162 215.419 308.737 215.676C308.046 216.007 307.355 216.339 306.664 216.669C307.746 217.034 309.055 216.168 309.139 215.029C310.072 214.532 311.402 215.156 311.616 216.19C312.153 216.183 312.691 216.176 313.227 216.17C312.673 216.336 312.418 217.116 312.768 217.577C313.901 216.764 315.649 216.99 316.537 218.067C316.386 217.886 316.236 217.707 316.085 217.526" stroke="white" stroke-width="2" stroke-miterlimit="10" stroke-linejoin="round"/>
<path d="M290.052 227.172C290.622 228.772 291.193 230.374 291.763 231.973C291.818 230.724 292.704 229.552 293.891 229.159C295.077 228.766 296.487 229.176 297.277 230.146C297.706 230.41 298.136 230.673 298.566 230.937C298.509 230.809 298.453 230.681 298.395 230.553C298.828 231.06 299.773 230.309 299.476 229.713C299.18 229.116 298.191 229.177 297.827 229.735C297.463 230.292 297.65 231.077 298.095 231.573C299.102 232.697 301.278 232.273 301.791 230.854C301.688 231.092 301.584 231.33 301.482 231.567C302.526 231.601 303.571 231.635 304.615 231.668C304.822 230.715 305.737 229.966 306.712 229.952C306.7 231.034 306.689 232.117 306.678 233.201C307.296 232.225 307.914 231.25 308.533 230.274C308.562 231.409 308.59 232.544 308.619 233.678C309.278 232.421 311.158 232.025 312.27 232.908C312.406 233.242 312.541 233.577 312.678 233.911C313.108 233.267 313.538 232.622 313.968 231.979C313.401 233.004 313.391 234.317 313.942 235.352C313.789 235.156 313.637 234.96 313.485 234.763" stroke="white" stroke-width="2" stroke-miterlimit="10" stroke-linejoin="round"/>
<path d="M285.476 241.772C287.168 242.055 288.858 242.338 290.549 242.621C289.227 242.671 287.966 243.514 287.413 244.715C288.849 245.092 290.282 245.469 291.717 245.845C291.139 244.53 291.335 242.906 292.211 241.766C293.093 241.869 293.975 241.972 294.857 242.075C294.333 242.688 293.81 243.301 293.286 243.914C294.317 244.036 295.384 243.345 295.695 242.356C295.632 242.87 295.571 243.385 295.509 243.899C296.089 243.453 296.67 243.007 297.25 242.56C297.164 243.089 297.078 243.618 296.992 244.145C297.646 243.561 298.3 242.976 298.954 242.392C298.989 243.102 300.027 243.503 300.531 243.002C299.933 242.931 299.327 243.414 299.26 244.012C299.571 244.177 299.882 244.341 300.193 244.507C298.842 244.971 297.493 245.433 296.142 245.897C296.942 246.197 297.67 246.683 298.497 246.899C299.324 247.114 300.34 246.972 300.808 246.257C301.276 245.541 300.665 244.314 299.835 244.515C299.858 245.576 300.71 246.56 301.758 246.732C302.804 246.906 303.93 246.249 304.293 245.252C304.438 244.74 304.584 244.228 304.729 243.715C305.326 244.753 305.924 245.789 306.52 246.827C307.848 246.347 308.948 245.273 309.458 243.957C309.764 244.891 310.069 245.825 310.374 246.76" stroke="white" stroke-width="2" stroke-miterlimit="10" stroke-linejoin="round"/>
<path d="M299.873 124.57C299.536 125.574 299.2 126.578 298.862 127.581C300.048 126.039 302.696 125.974 303.957 127.457C304.13 126.598 303.509 125.659 302.651 125.482C303.684 125.354 304.717 125.227 305.75 125.099C305.121 126.103 305.607 127.621 306.702 128.074C306.676 127.32 307.014 126.561 307.592 126.076C307.633 126.316 307.672 126.556 307.713 126.796C308.767 127.929 313.989 128.139 315.342 127.388C316.216 127.546 317.166 127.12 317.63 126.362C318.42 126.884 319.211 127.405 320.003 127.927C319.867 128.285 319.731 128.644 319.594 129.003C320.655 127.959 322.315 127.574 323.728 128.042C323.872 127.59 324.016 127.138 324.16 126.686C323.15 126.763 322.915 128.324 323.62 129.051C324.324 129.778 325.44 129.869 326.452 129.916C326.234 129.899 326.014 129.882 325.797 129.865C326.648 129.971 327.193 128.62 326.505 128.106C327.047 128.061 327.589 128.015 328.131 127.97C328.202 128.611 328.272 129.251 328.343 129.892C329.286 130.333 330.521 129.282 330.236 128.281C330.234 128.715 330.621 129.112 331.054 129.121C331.487 129.131 331.891 128.75 331.908 128.317C332.638 128.956 333.369 129.596 334.099 130.236C333.743 130.132 333.388 130.027 333.031 129.923" stroke="white" stroke-width="2" stroke-miterlimit="10" stroke-linejoin="round"/>
<path d="M304.17 138.892C303.106 139.064 302.264 137.848 301.027 137.922C301.025 137.919 301.626 138.34 301.426 138.098C300.964 138.032 299.8 137.52 299.96 136.847C300.266 135.558 300.226 136.608 301.334 136.163C302.718 135.606 304.158 135.699 305.271 136.653C305.176 136.456 304.22 133.936 304.377 133.92C304.841 133.872 305.307 133.823 305.772 133.776C305.31 133.918 304.847 134.061 304.385 134.203C304.492 133.897 304.6 133.592 304.708 133.286C304.464 133.786 303.695 133.92 303.296 133.532C303.154 134.073 302.342 134.279 301.96 133.871C302 133.634 302.039 133.398 302.079 133.162C301.81 132.943 301.492 132.711 301.152 132.774C300.812 132.838 300.637 133.399 300.961 133.519C300.443 133.312 300.029 132.858 299.869 132.323C299.791 133.088 298.734 133.54 298.126 133.068C297.704 133.521 297.281 133.974 296.859 134.428" stroke="white" stroke-width="2" stroke-miterlimit="10" stroke-linejoin="round"/>
<path d="M312.675 159.638C312.319 158.834 311.446 158.29 310.568 158.323C310.557 158.824 309.762 158.867 309.394 158.524C309.026 158.182 308.841 157.654 308.411 157.395C307.885 157.079 307.099 157.368 306.904 157.95C306.709 158.532 307.161 159.237 307.771 159.303C307.022 159.091 306.611 158.109 306.986 157.427C306.306 158.743 304.859 159.624 303.378 159.626C304.058 158.855 304.738 158.084 305.418 157.313C304.627 158.09 303.835 158.867 303.042 159.644C303.028 158.534 302.348 157.459 301.352 156.97C301.958 157.28 301.806 158.28 301.241 158.659C300.676 159.04 299.936 158.989 299.258 158.929C298.58 158.869 297.837 158.83 297.284 159.229C297.479 158.34 297.674 157.451 297.868 156.562" stroke="white" stroke-width="2" stroke-miterlimit="10" stroke-linejoin="round"/>
<path d="M317.292 159.613C317.144 159.996 316.996 160.378 316.848 160.761C317.929 160.903 319.01 161.046 320.091 161.189C320.999 161.517 321.906 161.847 322.814 162.176C322.394 161.836 321.973 161.495 321.552 161.154" stroke="white" stroke-width="2" stroke-miterlimit="10" stroke-linejoin="round"/>
<path d="M279.463 266.572C278.094 269.318 278.357 272.804 280.121 275.315C281.302 276.997 283.075 278.212 285.001 278.933C288.229 280.141 291.991 279.962 294.996 278.272C298 276.584 300.142 273.365 300.344 269.924C300.546 266.484 298.711 262.954 295.686 261.304C291.018 258.76 281.835 261.812 279.463 266.572Z" stroke="white" stroke-width="2" stroke-miterlimit="10" stroke-linejoin="round"/>
<path d="M264.474 283.964C263.969 284.088 263.594 284.609 263.638 285.127C263.682 285.645 264.14 286.096 264.658 286.132C265.327 286.178 265.867 285.639 266.418 285.26C266.97 284.882 267.861 284.712 268.203 285.288C268.008 284.988 267.815 284.687 267.619 284.386C268.264 283.995 269.23 284.343 269.478 285.055C269.725 285.767 269.184 286.639 268.437 286.732C269.566 286.146 270.899 285.958 272.147 286.211C272.153 285.702 272.158 285.194 272.163 284.686C272.96 285.209 273.757 285.733 274.553 286.256C274.454 286.674 273.957 286.948 273.55 286.81C274.586 287.381 276.084 286.654 276.278 285.488C276.381 286.071 277.003 286.509 277.585 286.412C277.419 286.709 277.251 287.004 277.084 287.3C277.563 287.155 278.041 287.01 278.52 286.865C278.626 286.627 278.731 286.389 278.835 286.151C278.848 286.629 278.859 287.106 278.87 287.584C279.153 287.599 279.375 287.235 279.232 286.991" stroke="white" stroke-width="2" stroke-miterlimit="10" stroke-linejoin="round"/>
<path d="M287.785 286.88C288.731 287.935 289.676 288.99 290.622 290.044C291.412 289.389 292.204 288.734 292.995 288.078C292.728 287.288 291.673 286.885 290.948 287.296C292.398 287.672 293.848 288.048 295.299 288.423C294.925 288.801 294.55 289.179 294.176 289.557C295.441 290.059 297.038 289.464 297.666 288.258C298.854 288.725 300.042 289.192 301.23 289.66C300.611 289.971 299.991 290.283 299.372 290.595C300.094 291.114 301.131 291.148 301.886 290.677C302.64 290.206 303.066 289.26 302.917 288.383C303.755 289.268 305.019 289.729 306.229 289.593C306.353 289.753 306.476 289.913 306.599 290.073" stroke="white" stroke-width="2" stroke-miterlimit="10" stroke-linejoin="round"/>
<path d="M282.212 268.694C281.816 271.424 283.62 274.227 286.167 275.285C288.715 276.342 291.785 275.757 293.979 274.085C295.919 272.606 297.255 270.049 296.558 267.712C296.076 266.096 294.696 264.851 293.129 264.226C289.388 262.733 282.896 263.97 282.212 268.694Z" stroke="white" stroke-width="2" stroke-miterlimit="10" stroke-linejoin="round"/>
<path d="M263.506 290.296C263.374 290.863 263.241 291.429 263.109 291.996C264.209 291.534 265.31 291.073 266.411 290.612C266.394 290.877 266.376 291.141 266.359 291.406C266.138 291.003 265.917 290.599 265.696 290.196C267.207 289.872 268.843 290.174 270.139 291.016C270.06 292.002 268.978 292.777 268.019 292.534C269.33 291.731 270.983 291.508 272.46 291.934C272.688 291.299 272.916 290.664 273.144 290.028C272.257 290.639 272.307 292.193 273.231 292.747C274.156 293.3 275.549 292.609 275.668 291.538C276.064 292.124 275.825 293.035 275.194 293.352C274.562 293.668 273.69 293.314 273.457 292.647C274.066 293.173 274.992 293.297 275.718 292.948C276.444 292.6 276.926 291.799 276.895 290.996C277.084 291.844 276.591 292.793 275.789 293.126" stroke="white" stroke-width="2" stroke-miterlimit="10" stroke-linejoin="round"/>
<path d="M286.163 293.183C286.072 293.832 285.981 294.482 285.89 295.131C285.823 294.342 286.631 293.605 287.412 293.744C288.192 293.882 288.696 294.852 288.362 295.571C288.039 295.693 287.651 295.33 287.753 294.999C288.557 295.039 289.362 295.078 290.165 295.118" stroke="white" stroke-width="2" stroke-miterlimit="10" stroke-linejoin="round"/>
<path d="M298.144 294.209C297.252 294.361 296.625 295.394 296.903 296.255C297.667 295.869 298.587 296.137 299.384 296.447C300.182 296.756 301.045 297.107 301.865 296.864C302.685 296.622 303.222 295.442 302.569 294.89C302.922 295.069 303.273 295.248 303.625 295.428C303.05 295.042 302.473 294.655 301.898 294.27C303.747 293.617 306.019 294.997 306.294 296.938" stroke="white" stroke-width="2" stroke-miterlimit="10" stroke-linejoin="round"/>
<path d="M274.667 264.297C272.901 266.596 271.135 268.895 269.369 271.193C269.04 270.028 270.008 268.814 271.159 268.439C272.31 268.063 273.562 268.305 274.743 268.573C275.923 268.843 277.15 269.138 278.33 268.863C279.509 268.588 280.607 267.537 280.481 266.332C280.355 265.128 278.53 264.399 277.846 265.399C277.395 266.057 277.7 267.012 278.299 267.539C278.898 268.066 279.707 268.271 280.481 268.458C282.428 268.93 284.375 269.402 286.323 269.874C286.954 270.027 287.704 270.152 288.183 269.713C288.662 269.274 288.168 268.192 287.611 268.527C288.142 268.747 288.673 268.967 289.203 269.186C289.002 269.508 288.801 269.83 288.6 270.152C289.846 270.269 291.093 270.386 292.34 270.502C292.789 269.55 293.241 268.597 293.692 267.645C294.566 268.091 295.441 268.538 296.315 268.984C295.617 269.573 294.919 270.162 294.221 270.75C296.883 269.777 299.545 268.804 302.206 267.83C300.72 268.213 299.173 268.627 298.026 269.647C296.88 270.667 296.29 272.491 297.134 273.774C297.607 274.495 298.443 274.916 299.292 275.072C301.961 275.564 304.794 273.297 304.899 270.585C304.067 271.02 303.234 271.454 302.402 271.888C303.109 271.404 303.816 270.919 304.524 270.433C304.282 272.088 305.821 273.761 307.49 273.657" stroke="white" stroke-width="2" stroke-miterlimit="10" stroke-linejoin="round"/>
<path d="M118.056 154.363C117.837 155.622 117.618 156.881 117.399 158.14" stroke="white" stroke-width="2" stroke-miterlimit="10" stroke-linejoin="round"/>
<path d="M130.676 119.037C131.279 118.874 131.882 118.711 132.484 118.548C132.802 119.273 132.654 120.179 132.12 120.764C131.586 121.349 130.698 121.581 129.946 121.332C130.685 120.822 131.843 121.117 132.249 121.916" stroke="white" stroke-width="2" stroke-miterlimit="10" stroke-linejoin="round"/>
<path d="M140.226 95.0481C140.592 94.3108 141.774 94.1803 142.291 94.8206C142.074 94.9709 141.855 95.1206 141.638 95.2702C142.496 95.2559 143.236 96.1757 143.038 97.0114C142.841 97.8472 141.767 98.3378 141.005 97.9401" stroke="white" stroke-width="2" stroke-miterlimit="10" stroke-linejoin="round"/>
<path d="M229.376 126.52C235.007 123.716 240.639 120.913 246.271 118.109" stroke="white" stroke-width="2" stroke-miterlimit="10" stroke-linejoin="round"/>
<path d="M233.301 236.33C226.312 238.53 219.006 241.751 211.807 243.074C209.775 243.447 206.783 242.997 205.57 241.285C204.179 239.322 204.211 236.121 200.478 236.829C200.207 234.478 196.934 233.129 195.085 234.607C193.575 232.975 190.831 232.678 189.006 233.949C188.268 231.894 185.088 231.316 183.672 232.98C184.249 232.302 181.236 231.509 180.914 231.54C179.848 231.644 178.16 232.445 177.209 232.873C175.124 233.811 170.954 236.022 173.509 238.788C171.488 238.443 169.658 241.023 170.653 242.817C168.117 243.514 167.002 247.156 168.712 249.154C167.472 249.457 166.471 250.572 166.302 251.838C166.133 253.105 166.808 254.442 167.927 255.059C165.302 256.857 165.123 261.277 167.594 263.282C169.469 267.082 175.113 268.328 178.414 265.671C179.518 268.183 182.996 269.29 185.348 267.878C187.317 270.587 191.953 270.679 194.027 268.05C196.359 269.441 199.295 267.976 201.596 266.534C203.502 265.339 205.689 263.266 204.688 261.252C207.095 261.039 208.473 257.625 206.887 255.801C208.114 255.289 208.936 253.938 208.827 252.613C208.718 251.289 207.685 250.091 206.391 249.788C207.914 248.957 208.857 247.168 208.681 245.442C208.64 245.044 208.541 244.654 208.391 244.285" stroke="white" stroke-width="2" stroke-miterlimit="10" stroke-linejoin="round"/>
<path d="M250.845 119.038C250.344 119.782 249.843 120.528 249.343 121.273C249.993 120.651 251.042 121.045 251.899 121.317C252.756 121.59 254.036 121.43 254.094 120.533C253.835 121.002 254.2 121.681 254.734 121.725C255.267 121.769 255.738 121.157 255.559 120.653C255.87 121.446 256.63 122.043 257.475 122.156C257.138 122.126 256.802 122.096 256.465 122.066C257.65 122.564 259.186 121.895 259.63 120.689C259.651 121.384 259.673 122.079 259.695 122.774C259.463 122.389 259.232 122.004 259 121.619C260.049 122.497 261.909 122.025 262.411 120.753C261.71 120.885 261.46 121.981 262.034 122.405C262.61 122.83 263.583 122.267 263.501 121.557C263.337 122.329 263.14 123.157 262.547 123.68C261.956 124.204 260.835 124.177 260.537 123.445C262.315 123.786 264.256 123.046 265.357 121.608C265.597 122.158 266.216 122.517 266.812 122.45C267.409 122.383 267.934 121.895 268.044 121.306C268.368 121.977 268.214 122.847 267.679 123.367C267.145 123.886 266.271 124.015 265.61 123.673C266.976 123.932 268.342 124.192 269.709 124.451" stroke="white" stroke-width="2" stroke-miterlimit="10" stroke-linejoin="round"/>
<path d="M240.683 229.632C241.808 232.64 242.931 235.65 244.055 238.659C242.459 238.196 235.703 237.269 235.058 235.657C234.12 233.316 241.107 231.273 240.683 229.632Z" stroke="white" stroke-width="2" stroke-miterlimit="10" stroke-linejoin="round"/>
<path d="M239.739 232.765C239.517 233.802 239.295 234.838 239.072 235.875" stroke="white" stroke-width="2" stroke-miterlimit="10" stroke-linejoin="round"/>
<path d="M162.44 139.695C162.138 140.717 161.836 141.739 161.535 142.762C161.629 142.211 161.722 141.659 161.815 141.108C166.535 141.668 171.255 142.229 175.976 142.79C176.125 142.293 176.274 141.797 176.422 141.3C176.157 142.646 175.415 143.891 174.36 144.766" stroke="white" stroke-width="2" stroke-miterlimit="10" stroke-linejoin="round"/>
<path d="M81.6018 233.679C81.8957 234.872 82.1888 236.065 82.4833 237.258C83.682 236.318 84.8813 235.378 86.0799 234.439C85.8585 235.233 85.6377 236.029 85.4163 236.824C86.9874 235.946 87.8108 233.918 87.2983 232.193C87.8313 233.411 89.1277 234.254 90.4568 234.246C90.3229 233.805 90.1882 233.364 90.0543 232.923C90.8695 232.875 91.6971 233.287 92.1502 233.967C92.8014 233.107 93.4527 232.246 94.1032 231.387C94.6 232.229 95.0961 233.072 95.5929 233.914C96.3194 232.594 97.0451 231.275 97.7708 229.954C97.1469 230.762 97.5713 232.064 98.4617 232.562C99.3521 233.059 100.503 232.87 101.37 232.332C102.237 231.794 102.871 230.958 103.451 230.118C102.949 230.641 103.482 231.631 104.205 231.685C104.928 231.739 105.559 231.114 105.766 230.419C105.973 229.724 105.857 228.981 105.739 228.265C106.242 229.45 106.744 230.635 107.246 231.82" stroke="white" stroke-width="2" stroke-miterlimit="10" stroke-linejoin="round"/>
<path d="M97.5875 236.711C98.6091 236.069 100.008 236.338 100.974 237.062C101.938 237.786 102.555 238.875 103.081 239.962C105.696 245.358 106.76 251.496 106.115 257.459C105.45 256.636 104.784 255.813 104.118 254.99C104.848 255.849 105.578 256.707 106.308 257.565C107.294 256.095 108.28 254.625 109.266 253.155" stroke="white" stroke-width="2" stroke-miterlimit="10" stroke-linejoin="round"/>
<path d="M200 11.907C225.398 11.907 250.029 16.8787 273.211 26.6835C295.607 36.1567 315.724 49.72 333.002 66.9982C350.28 84.2758 363.844 104.393 373.318 126.789C383.122 149.971 388.094 174.602 388.094 200C388.094 225.397 383.122 250.029 373.318 273.21C363.844 295.607 350.281 315.724 333.002 333.002C315.724 350.28 295.607 363.844 273.211 373.317C250.029 383.122 225.398 388.093 200 388.093C174.603 388.093 149.971 383.121 126.79 373.317C104.393 363.844 84.2764 350.28 66.9988 333.002C49.7206 315.724 36.1567 295.607 26.6841 273.21C16.8787 250.029 11.907 225.398 11.907 200C11.907 174.603 16.8787 149.971 26.6835 126.79C36.1567 104.393 49.72 84.2764 66.9982 66.9988C84.2758 49.7206 104.393 36.1567 126.789 26.6841C149.971 16.8787 174.602 11.907 200 11.907ZM200 0C89.5428 0 0 89.5428 0 200C0 310.458 89.5428 400.001 200 400.001C310.458 400.001 400.001 310.458 400.001 200C400.001 89.5428 310.457 0 200 0Z" fill="#F1F1F1"/>
</g>
<defs>
<clipPath id="clip0">
<rect width="400" height="400" fill="white"/>
</clipPath>
</defs>
</svg>
