<svg width="48" height="48" viewBox="0 0 48 48" fill="none" xmlns="http://www.w3.org/2000/svg">
<rect width="48" height="48" rx="24" fill="white"/>
<path fill-rule="evenodd" clip-rule="evenodd" d="M20.7814 18.9703C20.8512 19.04 20.9066 19.1228 20.9444 19.2139C20.9822 19.305 21.0017 19.4027 21.0017 19.5013C21.0017 19.6 20.9822 19.6977 20.9444 19.7888C20.9066 19.8799 20.8512 19.9627 20.7814 20.0323L16.8109 24.0013L20.7814 27.9703C20.8511 28.0401 20.9064 28.1229 20.9441 28.214C20.9819 28.3051 21.0013 28.4027 21.0013 28.5013C21.0013 28.6 20.9819 28.6976 20.9441 28.7887C20.9064 28.8798 20.8511 28.9626 20.7814 29.0323C20.7116 29.1021 20.6288 29.1574 20.5377 29.1951C20.4466 29.2329 20.349 29.2523 20.2504 29.2523C20.1517 29.2523 20.0541 29.2329 19.963 29.1951C19.8719 29.1574 19.7891 29.1021 19.7194 29.0323L15.2194 24.5323C15.1495 24.4627 15.0941 24.3799 15.0563 24.2888C15.0185 24.1977 14.999 24.1 14.999 24.0013C14.999 23.9027 15.0185 23.805 15.0563 23.7139C15.0941 23.6228 15.1495 23.54 15.2194 23.4703L19.7194 18.9703C19.789 18.9005 19.8718 18.8451 19.9629 18.8073C20.054 18.7695 20.1517 18.75 20.2504 18.75C20.349 18.75 20.4467 18.7695 20.5378 18.8073C20.6289 18.8451 20.7117 18.9005 20.7814 18.9703Z" fill="#3E3E3E"/>
<path fill-rule="evenodd" clip-rule="evenodd" d="M15.75 24C15.75 23.8011 15.829 23.6103 15.9697 23.4697C16.1103 23.329 16.3011 23.25 16.5 23.25H32.25C32.4489 23.25 32.6397 23.329 32.7803 23.4697C32.921 23.6103 33 23.8011 33 24C33 24.1989 32.921 24.3897 32.7803 24.5303C32.6397 24.671 32.4489 24.75 32.25 24.75H16.5C16.3011 24.75 16.1103 24.671 15.9697 24.5303C15.829 24.3897 15.75 24.1989 15.75 24Z" fill="#3E3E3E"/>
</svg>
