<svg width="36" height="36" viewBox="0 0 36 36" fill="none" xmlns="http://www.w3.org/2000/svg">
<rect width="36" height="36" rx="18" fill="#D4EDDA"/>
<path fill-rule="evenodd" clip-rule="evenodd" d="M28.7505 10.5694C28.8403 10.6589 28.9115 10.7653 28.9601 10.8824C29.0087 10.9996 29.0337 11.1251 29.0337 11.2519C29.0337 11.3787 29.0087 11.5043 28.9601 11.6214C28.9115 11.7385 28.8403 11.8449 28.7505 11.9345L15.2535 25.4315C15.164 25.5213 15.0576 25.5925 14.9405 25.6411C14.8233 25.6897 14.6978 25.7147 14.571 25.7147C14.4441 25.7147 14.3186 25.6897 14.2015 25.6411C14.0843 25.5925 13.978 25.5213 13.8884 25.4315L7.1399 18.683C6.95888 18.502 6.85718 18.2564 6.85718 18.0004C6.85718 17.7444 6.95888 17.4989 7.1399 17.3179C7.32093 17.1368 7.56646 17.0351 7.82247 17.0351C8.07848 17.0351 8.324 17.1368 8.50503 17.3179L14.571 23.3857L27.3854 10.5694C27.4749 10.4796 27.5813 10.4084 27.6984 10.3598C27.8156 10.3112 27.9411 10.2861 28.0679 10.2861C28.1948 10.2861 28.3203 10.3112 28.4374 10.3598C28.5546 10.4084 28.661 10.4796 28.7505 10.5694Z" fill="#3E3E3E"/>
</svg>
