<svg width="24" height="24" viewBox="0 0 24 24" fill="none" xmlns="http://www.w3.org/2000/svg">
<path fill-rule="evenodd" clip-rule="evenodd" d="M20.781 5.47034C20.8508 5.54001 20.9062 5.62277 20.944 5.71389C20.9818 5.80501 21.0013 5.90269 21.0013 6.00134C21.0013 6.09999 20.9818 6.19767 20.944 6.28879C20.9062 6.37991 20.8508 6.46267 20.781 6.53234L10.281 17.0323C10.2113 17.1022 10.1285 17.1576 10.0374 17.1954C9.9463 17.2332 9.84862 17.2527 9.74997 17.2527C9.65132 17.2527 9.55364 17.2332 9.46252 17.1954C9.3714 17.1576 9.28864 17.1022 9.21897 17.0323L3.96897 11.7823C3.82814 11.6415 3.74902 11.4505 3.74902 11.2513C3.74902 11.0522 3.82814 10.8612 3.96897 10.7203C4.1098 10.5795 4.30081 10.5004 4.49997 10.5004C4.69913 10.5004 4.89014 10.5795 5.03097 10.7203L9.74997 15.4408L19.719 5.47034C19.7886 5.4005 19.8714 5.34508 19.9625 5.30727C20.0536 5.26946 20.1513 5.25 20.25 5.25C20.3486 5.25 20.4463 5.26946 20.5374 5.30727C20.6285 5.34508 20.7113 5.4005 20.781 5.47034Z" fill="#155724"/>
</svg>
