<svg width="13" height="13" viewBox="0 0 13 13" fill="none" xmlns="http://www.w3.org/2000/svg">
<path fill-rule="evenodd" clip-rule="evenodd" d="M11.781 1.21839C11.8508 1.28806 11.9062 1.37082 11.944 1.46194C11.9818 1.55305 12.0013 1.65074 12.0013 1.74939C12.0013 1.84804 11.9818 1.94572 11.944 2.03684C11.9062 2.12796 11.8508 2.21072 11.781 2.28039L1.28097 12.7804C1.14014 12.9212 0.949134 13.0003 0.749971 13.0003C0.550807 13.0003 0.359801 12.9212 0.218971 12.7804C0.0781407 12.6396 -0.000976561 12.4486 -0.000976562 12.2494C-0.000976564 12.0502 0.0781407 11.8592 0.218971 11.7184L10.719 1.21839C10.7886 1.14854 10.8714 1.09313 10.9625 1.05532C11.0536 1.01751 11.1513 0.998047 11.25 0.998047C11.3486 0.998047 11.4463 1.01751 11.5374 1.05532C11.6285 1.09313 11.7113 1.14854 11.781 1.21839Z" fill="#3E3E3E"/>
<path fill-rule="evenodd" clip-rule="evenodd" d="M0.219364 1.21839C0.149519 1.28806 0.0941047 1.37082 0.056295 1.46194C0.0184854 1.55305 -0.000976562 1.65074 -0.000976562 1.74939C-0.000976562 1.84804 0.0184854 1.94572 0.056295 2.03684C0.0941047 2.12796 0.149519 2.21072 0.219364 2.28039L10.7194 12.7804C10.8602 12.9212 11.0512 13.0003 11.2504 13.0003C11.4495 13.0003 11.6405 12.9212 11.7814 12.7804C11.9222 12.6396 12.0013 12.4486 12.0013 12.2494C12.0013 12.0502 11.9222 11.8592 11.7814 11.7184L1.28136 1.21839C1.2117 1.14854 1.12893 1.09313 1.03781 1.05532C0.946697 1.01751 0.849015 0.998047 0.750364 0.998047C0.651713 0.998047 0.554031 1.01751 0.462914 1.05532C0.371796 1.09313 0.289033 1.14854 0.219364 1.21839Z" fill="#3E3E3E"/>
</svg>
