<svg width="24" height="18" viewBox="0 0 24 18" fill="none" xmlns="http://www.w3.org/2000/svg">
<path fill-rule="evenodd" clip-rule="evenodd" d="M6.53088 14.0319C6.60072 13.9623 6.65614 13.8795 6.69394 13.7884C6.73175 13.6973 6.75122 13.5996 6.75122 13.5009C6.75122 13.4023 6.73175 13.3046 6.69394 13.2135C6.65614 13.1224 6.60072 13.0396 6.53088 12.9699L2.56038 9.00095L6.53088 5.03195C6.67171 4.89112 6.75082 4.70011 6.75082 4.50095C6.75082 4.30178 6.67171 4.11078 6.53088 3.96995C6.39005 3.82912 6.19904 3.75 5.99988 3.75C5.80071 3.75 5.60971 3.82912 5.46888 3.96995L0.968876 8.46995C0.899031 8.53962 0.843617 8.62238 0.805807 8.7135C0.767997 8.80462 0.748535 8.9023 0.748535 9.00095C0.748535 9.0996 0.767997 9.19728 0.805807 9.2884C0.843617 9.37952 0.899031 9.46228 0.968876 9.53195L5.46888 14.0319C5.53854 14.1018 5.62131 14.1572 5.71243 14.195C5.80354 14.2328 5.90123 14.2523 5.99988 14.2523C6.09853 14.2523 6.19621 14.2328 6.28733 14.195C6.37844 14.1572 6.46121 14.1018 6.53088 14.0319Z" fill="#A9B2D2"/>
<path fill-rule="evenodd" clip-rule="evenodd" d="M17.25 9C17.25 8.80109 17.171 8.61032 17.0303 8.46967C16.8897 8.32902 16.6989 8.25 16.5 8.25H3C2.80109 8.25 2.61032 8.32902 2.46967 8.46967C2.32902 8.61032 2.25 8.80109 2.25 9C2.25 9.19891 2.32902 9.38968 2.46967 9.53033C2.61032 9.67098 2.80109 9.75 3 9.75H16.5C16.6989 9.75 16.8897 9.67098 17.0303 9.53033C17.171 9.38968 17.25 9.19891 17.25 9Z" fill="#A9B2D2"/>
<path fill-rule="evenodd" clip-rule="evenodd" d="M21 17.25C21.5967 17.25 22.169 17.0129 22.591 16.591C23.0129 16.169 23.25 15.5967 23.25 15V3C23.25 2.40326 23.0129 1.83097 22.591 1.40901C22.169 0.987053 21.5967 0.75 21 0.75H10.5C9.90326 0.75 9.33097 0.987053 8.90901 1.40901C8.48705 1.83097 8.25 2.40326 8.25 3V5.25C8.25 5.44891 8.32902 5.63968 8.46967 5.78033C8.61032 5.92098 8.80109 6 9 6C9.19891 6 9.38968 5.92098 9.53033 5.78033C9.67098 5.63968 9.75 5.44891 9.75 5.25V3C9.75 2.80109 9.82902 2.61032 9.96967 2.46967C10.1103 2.32902 10.3011 2.25 10.5 2.25H21C21.1989 2.25 21.3897 2.32902 21.5303 2.46967C21.671 2.61032 21.75 2.80109 21.75 3V15C21.75 15.1989 21.671 15.3897 21.5303 15.5303C21.3897 15.671 21.1989 15.75 21 15.75H10.5C10.3011 15.75 10.1103 15.671 9.96967 15.5303C9.82902 15.3897 9.75 15.1989 9.75 15V12.75C9.75 12.5511 9.67098 12.3603 9.53033 12.2197C9.38968 12.079 9.19891 12 9 12C8.80109 12 8.61032 12.079 8.46967 12.2197C8.32902 12.3603 8.25 12.5511 8.25 12.75V15C8.25 15.5967 8.48705 16.169 8.90901 16.591C9.33097 17.0129 9.90326 17.25 10.5 17.25H21Z" fill="#A9B2D2"/>
</svg>
