<svg width="25" height="27" viewBox="0 0 25 27" fill="none" xmlns="http://www.w3.org/2000/svg">
<path fill-rule="evenodd" clip-rule="evenodd" d="M11.8192 0.283277C11.9085 0.193482 12.0147 0.12224 12.1315 0.0736306C12.2483 0.0250212 12.3735 0 12.5 0C12.6265 0 12.7517 0.0250212 12.8685 0.0736306C12.9853 0.12224 13.0915 0.193482 13.1808 0.283277L24.7192 11.854C24.8085 11.9437 24.8792 12.0501 24.9274 12.1673C24.9755 12.2844 25.0002 12.4099 25 12.5366V26.0358C25 26.2915 24.8987 26.5368 24.7184 26.7176C24.538 26.8984 24.2935 27 24.0385 27H15.3846C15.1296 27 14.885 26.8984 14.7047 26.7176C14.5244 26.5368 14.4231 26.2915 14.4231 26.0358V18.322H10.5769V26.0358C10.5769 26.2915 10.4756 26.5368 10.2953 26.7176C10.115 26.8984 9.8704 27 9.61539 27H0.96154C0.706524 27 0.461953 26.8984 0.28163 26.7176C0.101306 26.5368 1.53364e-06 26.2915 1.53364e-06 26.0358V12.5366C-0.000224134 12.4099 0.0244567 12.2844 0.072633 12.1673C0.120809 12.0501 0.191537 11.9437 0.280771 11.854L11.8192 0.283277ZM1.92308 12.9358V25.0716H8.65385V17.3578C8.65385 17.102 8.75515 16.8568 8.93548 16.6759C9.1158 16.4951 9.36037 16.3935 9.61539 16.3935H15.3846C15.6396 16.3935 15.8842 16.4951 16.0645 16.6759C16.2449 16.8568 16.3462 17.102 16.3462 17.3578V25.0716H23.0769V12.9358L12.5 2.32936L1.92308 12.9358Z" fill="#3E3E3E"/>
</svg>
