<svg width="24" height="22" viewBox="0 0 24 22" fill="none" xmlns="http://www.w3.org/2000/svg">
<path fill-rule="evenodd" clip-rule="evenodd" d="M3 19.25V9.5H4.5V19.25C4.5 19.4489 4.57902 19.6397 4.71967 19.7803C4.86032 19.921 5.05109 20 5.25 20H18.75C18.9489 20 19.1397 19.921 19.2803 19.7803C19.421 19.6397 19.5 19.4489 19.5 19.25V9.5H21V19.25C21 19.8467 20.7629 20.419 20.341 20.841C19.919 21.2629 19.3467 21.5 18.75 21.5H5.25C4.65326 21.5 4.08097 21.2629 3.65901 20.841C3.23705 20.419 3 19.8467 3 19.25ZM19.5 2.75V8L16.5 5V2.75C16.5 2.55109 16.579 2.36032 16.7197 2.21967C16.8603 2.07902 17.0511 2 17.25 2H18.75C18.9489 2 19.1397 2.07902 19.2803 2.21967C19.421 2.36032 19.5 2.55109 19.5 2.75Z" fill="#A9B2D2"/>
<path fill-rule="evenodd" clip-rule="evenodd" d="M10.9395 1.24973C11.2208 0.96852 11.6022 0.810547 12 0.810547C12.3977 0.810547 12.7792 0.96852 13.0605 1.24973L23.031 11.2187C23.1718 11.3596 23.2509 11.5506 23.2509 11.7497C23.2509 11.9489 23.1718 12.1399 23.031 12.2807C22.8901 12.4216 22.6991 12.5007 22.5 12.5007C22.3008 12.5007 22.1098 12.4216 21.969 12.2807L12 2.31023L2.03097 12.2807C1.89014 12.4216 1.69913 12.5007 1.49997 12.5007C1.30081 12.5007 1.1098 12.4216 0.968971 12.2807C0.828141 12.1399 0.749023 11.9489 0.749023 11.7497C0.749023 11.5506 0.828141 11.3596 0.968971 11.2187L10.9395 1.24973Z" fill="#A9B2D2"/>
</svg>
