<svg width="20" height="12" viewBox="0 0 20 12" fill="none" xmlns="http://www.w3.org/2000/svg">
<path fill-rule="evenodd" clip-rule="evenodd" d="M19.5306 11.0316C19.461 11.1015 19.3782 11.1569 19.2871 11.1947C19.196 11.2325 19.0983 11.252 18.9996 11.252C18.901 11.252 18.8033 11.2325 18.7122 11.1947C18.6211 11.1569 18.5383 11.1015 18.4686 11.0316L9.99964 2.56111L1.53064 11.0316C1.46091 11.1013 1.37812 11.1567 1.28701 11.1944C1.1959 11.2321 1.09825 11.2516 0.999636 11.2516C0.90102 11.2516 0.80337 11.2321 0.712261 11.1944C0.621151 11.1567 0.538368 11.1013 0.468636 11.0316C0.398905 10.9619 0.34359 10.8791 0.305851 10.788C0.268112 10.6969 0.24869 10.5992 0.24869 10.5006C0.24869 10.402 0.268112 10.3043 0.305851 10.2132C0.34359 10.1221 0.398905 10.0393 0.468636 9.96961L9.46864 0.969612C9.5383 0.899767 9.62107 0.844353 9.71219 0.806543C9.8033 0.768734 9.90098 0.749271 9.99964 0.749271C10.0983 0.749271 10.196 0.768734 10.2871 0.806543C10.3782 0.844353 10.461 0.899767 10.5306 0.969612L19.5306 9.96961C19.6005 10.0393 19.6559 10.122 19.6937 10.2132C19.7315 10.3043 19.751 10.402 19.751 10.5006C19.751 10.5993 19.7315 10.6969 19.6937 10.7881C19.6559 10.8792 19.6005 10.9619 19.5306 11.0316Z" fill="#3E3E3E"/>
</svg>
