<svg width="20" height="12" viewBox="0 0 20 12" fill="none" xmlns="http://www.w3.org/2000/svg">
<path fill-rule="evenodd" clip-rule="evenodd" d="M0.469364 0.968387C0.539033 0.898542 0.621796 0.843128 0.712914 0.805318C0.804031 0.767508 0.901713 0.748047 1.00036 0.748047C1.09902 0.748047 1.1967 0.767508 1.28781 0.805318C1.37893 0.843128 1.4617 0.898542 1.53136 0.968387L10.0004 9.43889L18.4694 0.968387C18.5391 0.898655 18.6219 0.843341 18.713 0.805602C18.8041 0.767863 18.9017 0.74844 19.0004 0.74844C19.099 0.74844 19.1966 0.767863 19.2877 0.805602C19.3788 0.843341 19.4616 0.898655 19.5314 0.968387C19.6011 1.03812 19.6564 1.1209 19.6941 1.21201C19.7319 1.30312 19.7513 1.40077 19.7513 1.49939C19.7513 1.598 19.7319 1.69565 19.6941 1.78676C19.6564 1.87787 19.6011 1.96066 19.5314 2.03039L10.5314 11.0304C10.4617 11.1002 10.3789 11.1556 10.2878 11.1935C10.1967 11.2313 10.099 11.2507 10.0004 11.2507C9.90171 11.2507 9.80403 11.2313 9.71291 11.1935C9.6218 11.1556 9.53903 11.1002 9.46936 11.0304L0.469364 2.03039C0.399519 1.96072 0.344105 1.87796 0.306295 1.78684C0.268486 1.69572 0.249023 1.59804 0.249023 1.49939C0.249023 1.40074 0.268486 1.30305 0.306295 1.21194C0.344105 1.12082 0.399519 1.03806 0.469364 0.968387Z" fill="#3E3E3E"/>
</svg>
