<svg width="24" height="20" viewBox="0 0 24 20" fill="none" xmlns="http://www.w3.org/2000/svg">
<path fill-rule="evenodd" clip-rule="evenodd" d="M4.78207 10L0.396075 12.3385C0.276266 12.4025 0.176092 12.4979 0.106247 12.6144C0.0364033 12.7309 -0.000488281 12.8642 -0.000488281 13C-0.000488281 13.1358 0.0364033 13.2691 0.106247 13.3856C0.176092 13.5021 0.276266 13.5975 0.396075 13.6615L11.6461 19.6615C11.7546 19.7193 11.8756 19.7495 11.9986 19.7495C12.1215 19.7495 12.2426 19.7193 12.3511 19.6615L23.6011 13.6615C23.7209 13.5975 23.8211 13.5021 23.8909 13.3856C23.9607 13.2691 23.9976 13.1358 23.9976 13C23.9976 12.8642 23.9607 12.7309 23.8909 12.6144C23.8211 12.4979 23.7209 12.4025 23.6011 12.3385L19.2196 10L17.6251 10.8505L21.6571 13L12.0001 18.1495L2.34307 13L6.37508 10.8505L4.78058 10H4.78207Z" fill="#A9B2D2"/>
<path fill-rule="evenodd" clip-rule="evenodd" d="M11.6475 0.338C11.7561 0.28022 11.8771 0.25 12 0.25C12.123 0.25 12.244 0.28022 12.3525 0.338L23.6025 6.338C23.7223 6.40201 23.8225 6.49736 23.8924 6.61387C23.9622 6.73038 23.9991 6.86366 23.9991 6.9995C23.9991 7.13534 23.9622 7.26862 23.8924 7.38513C23.8225 7.50164 23.7223 7.59699 23.6025 7.661L12.3525 13.661C12.244 13.7188 12.123 13.749 12 13.749C11.8771 13.749 11.7561 13.7188 11.6475 13.661L0.397539 7.661C0.277731 7.59699 0.177557 7.50164 0.107712 7.38513C0.0378681 7.26862 0.000976562 7.13534 0.000976562 6.9995C0.000976562 6.86366 0.0378681 6.73038 0.107712 6.61387C0.177557 6.49736 0.277731 6.40201 0.397539 6.338L11.6475 0.338ZM2.34454 6.9995L12 12.149L21.657 6.9995L12 1.85L2.34304 6.9995H2.34454Z" fill="#A9B2D2"/>
</svg>
