<svg width="24" height="24" viewBox="0 0 24 24" fill="none" xmlns="http://www.w3.org/2000/svg">
<path d="M12.279 1.66961C12.0999 1.59784 11.9001 1.59784 11.721 1.66961L2.769 5.25011L12 8.94161L21.231 5.25011L12.279 1.66961ZM22.5 6.35861L12.75 10.2586V22.1416L22.5 18.2416V6.36011V6.35861ZM11.25 22.1431V10.2571L1.5 6.35861V18.2431L11.25 22.1431ZM11.1645 0.27611C11.7008 0.0616091 12.2992 0.0616091 12.8355 0.27611L23.529 4.55411C23.668 4.60983 23.7872 4.7059 23.8711 4.82994C23.9551 4.95399 24 5.10033 24 5.25011V18.2431C23.9998 18.5428 23.9098 18.8356 23.7417 19.0838C23.5735 19.3319 23.3348 19.5239 23.0565 19.6351L12.279 23.9461C12.0999 24.0179 11.9001 24.0179 11.721 23.9461L0.945 19.6351C0.666377 19.5241 0.427414 19.3322 0.258963 19.0841C0.0905126 18.8359 0.000309494 18.543 0 18.2431L0 5.25011C3.48599e-05 5.10033 0.0449156 4.95399 0.128861 4.82994C0.212805 4.7059 0.331969 4.60983 0.471 4.55411L11.1645 0.27611Z" fill="#1862F7"/>
</svg>
