<svg xmlns="http://www.w3.org/2000/svg" viewBox="0 0 330 330">
  <g>
	<line x1="77" y1="134" x2="49" y2="141" />
	<line x1="107" y1="154" x2="77" y2="134" />
	<line x1="79" y1="161" x2="107" y2="154" />
	<polygon points="77,134 49,141 79,161 107,154" style="fill:#81D4FA" />

	<line x1="49" y1="141" x2="79" y2="161" />
	<line x1="29" y1="161" x2="49" y2="141" />
	<line x1="59" y1="181" x2="79" y2="161" />
	<line x1="29" y1="161" x2="59" y2="181" />
	<polygon points="49,141 79,161 59,181 29,161" style="fill:#0277BD" />

	<line x1="104" y1="175" x2="104" y2="155" />
	<line x1="62" y1="203" x2="104" y2="175" />
	<line x1="62" y1="203" x2="62" y2="179" />
	<line x1="32" y1="183" x2="62" y2="203" />
	<line x1="32" y1="183" x2="32" y2="163" />
    <polygon points="79,161 104,155 104,175 62,203 62,179" style="fill:white" />
	<polygon points="62,203 62,179 59,181 32,163 32,183" style="fill:#bbb" />
	
	<line x1="22" y1="183" x2="28" y2="179" stroke="white" stroke-width="2"/>
	<line x1="22" y1="183" x2="28" y2="187" stroke="white" stroke-width="2"/>
	<line x1="34" y1="191" x2="46" y2="199" stroke="white" stroke-width="2"/>
	<line x1="52" y1="203" x2="64" y2="211" stroke="white" stroke-width="2"/>
	<line x1="70" y1="215" x2="82" y2="223" stroke="white" stroke-width="2"/>
	<line x1="88" y1="227" x2="100" y2="235" stroke="white" stroke-width="2"/>
	<line x1="106" y1="239" x2="118" y2="247" stroke="white" stroke-width="2"/>
	<line x1="124" y1="251" x2="130" y2="255" stroke="white" stroke-width="2"/>
	<line x1="130" y1="255" x2="136" y2="251" stroke="white" stroke-width="2"/>
	<line x1="142" y1="247" x2="154" y2="239" stroke="white" stroke-width="2"/>
	<line x1="160" y1="235" x2="172" y2="227" stroke="white" stroke-width="2"/>
	<line x1="178" y1="223" x2="184" y2="219" stroke="white" stroke-width="2"/>
	<line x1="184" y1="219" x2="178" y2="215" stroke="white" stroke-width="2"/>
	<line x1="172" y1="211" x2="160" y2="203" stroke="white" stroke-width="2"/>
	<line x1="154" y1="199" x2="142" y2="191" stroke="white" stroke-width="2"/>
	<line x1="138" y1="187" x2="126" y2="179" stroke="white" stroke-width="2"/>
	<line x1="120" y1="175" x2="108" y2="167" stroke="white" stroke-width="2"/>
  </g>
  <g>
	<line x1="147" y1="89" x2="119" y2="96" />
	<line x1="177" y1="109" x2="147" y2="89" />
	<line x1="149" y1="116" x2="177" y2="109" />
	<polygon points="147,89 119,96 149,116 177,109" style="fill:#81D4FA" />

	<line x1="119" y1="96" x2="149" y2="116" />
	<line x1="99" y1="116" x2="119" y2="96" />
	<line x1="129" y1="136" x2="149" y2="116" />
	<line x1="99" y1="116" x2="129" y2="136" />
	<polygon points="119,96 149,116 129,136 99,116" style="fill:#0277BD" />

	<line x1="174" y1="130" x2="174" y2="110" />
	<line x1="132" y1="158" x2="174" y2="130" />
	<line x1="132" y1="158" x2="132" y2="134" />
	<line x1="102" y1="138" x2="132" y2="158" />
	<line x1="102" y1="138" x2="102" y2="118" />
    <polygon points="132,158 174,130 174,110 149,116 132,134" style="fill:white" />
	<polygon points="132,158 132,134 129,136 102,118 102,138" style="fill:#bbb" />
	
	<line x1="92" y1="138" x2="98" y2="134" stroke="white" stroke-width="2"/>
	<line x1="92" y1="138" x2="98" y2="142" stroke="white" stroke-width="2"/>
	<line x1="104" y1="146" x2="116" y2="154" stroke="white" stroke-width="2"/>
	<line x1="122" y1="158" x2="134" y2="166" stroke="white" stroke-width="2"/>
	<line x1="140" y1="170" x2="152" y2="178" stroke="white" stroke-width="2"/>
	<line x1="158" y1="182" x2="170" y2="190" stroke="white" stroke-width="2"/>
	<line x1="176" y1="194" x2="188" y2="202" stroke="white" stroke-width="2"/>
	<line x1="194" y1="206" x2="200" y2="210" stroke="white" stroke-width="2"/>
	<line x1="200" y1="210" x2="206" y2="206" stroke="white" stroke-width="2"/>
	<line x1="212" y1="202" x2="224" y2="194" stroke="white" stroke-width="2"/>
	<line x1="230" y1="190" x2="242" y2="182" stroke="white" stroke-width="2"/>
	<line x1="248" y1="178" x2="254" y2="174" stroke="white" stroke-width="2"/>
	<line x1="254" y1="174" x2="248" y2="170" stroke="white" stroke-width="2"/>
	<line x1="242" y1="166" x2="236" y2="162" stroke="white" stroke-width="2"/>
	<line x1="190" y1="130" x2="178" y2="122" stroke="white" stroke-width="2"/>
	
	<line x1="200" y1="200" x2="200" y2="192" stroke="#FFAB91" stroke-width="2" />
	<line x1="200" y1="184" x2="200" y2="176" stroke="#FFAB91" stroke-width="2" />
	<line x1="200" y1="176" x2="206" y2="172" stroke="#FFAB91" stroke-width="2" />
	<line x1="200" y1="176" x2="194" y2="172" stroke="#FFAB91" stroke-width="2" />
	<line x1="188" y1="168" x2="176" y2="160" stroke="#FFAB91" stroke-width="2" />
	<line x1="170" y1="156" x2="164" y2="152" stroke="#FFAB91" stroke-width="2" />
	<line x1="164" y1="152" x2="170" y2="148" stroke="#FFAB91" stroke-width="2" />
	<line x1="176" y1="144" x2="188" y2="136" stroke="#FFAB91" stroke-width="2" />
	<line x1="194" y1="132" x2="200" y2="128" stroke="#FFAB91" stroke-width="2" />
	<line x1="200" y1="128" x2="206" y2="132" stroke="#FFAB91" stroke-width="2" />
	<line x1="212" y1="136" x2="224" y2="144" stroke="#FFAB91" stroke-width="2" />
	<line x1="230" y1="148" x2="236" y2="152" stroke="#FFAB91" stroke-width="2" />
	<line x1="212" y1="168" x2="224" y2="160" stroke="#FFAB91" stroke-width="2" />
	<line x1="230" y1="156" x2="236" y2="152" stroke="#FFAB91" stroke-width="2" />
	<line x1="200" y1="200" x2="206" y2="196" stroke="#FFAB91" stroke-width="2" />
	<line x1="200" y1="200" x2="194" y2="196" stroke="#FFAB91" stroke-width="2" />
	<line x1="212" y1="192" x2="224" y2="184" stroke="#FFAB91" stroke-width="2" />
	<line x1="176" y1="184" x2="188" y2="192" stroke="#FFAB91" stroke-width="2" />
	<line x1="164" y1="176" x2="170" y2="180" stroke="#FFAB91" stroke-width="2" />
	<line x1="164" y1="176" x2="164" y2="168" stroke="#FFAB91" stroke-width="2" />
	<line x1="164" y1="160" x2="164" y2="152" stroke="#FFAB91" stroke-width="2" />
	<line x1="230" y1="180" x2="236" y2="176" stroke="#FFAB91" stroke-width="2" />
	<line x1="236" y1="176" x2="236" y2="168" stroke="#FFAB91" stroke-width="2" />
	<line x1="236" y1="152" x2="236" y2="160" stroke="#FFAB91" stroke-width="2" />
  </g>
  
  <g>
	<line x1="217" y1="44" x2="189" y2="51" />
	<line x1="247" y1="64" x2="217" y2="44" />
	<line x1="219" y1="71" x2="247" y2="64" />
	<polygon points="217,44 189,51 219,71 247,64" style="fill:#81D4FA" />

	<line x1="189" y1="51" x2="219" y2="71" />
	<line x1="169" y1="71" x2="189" y2="51" />
	<line x1="199" y1="91" x2="219" y2="71" />
	<line x1="169" y1="71" x2="199" y2="91" />
	<polygon points="189,51 219,71 199,91 169,71" style="fill:#0277BD" />

	<line x1="244" y1="85" x2="244" y2="65" />
	<line x1="202" y1="113" x2="244" y2="85" />
	<line x1="202" y1="113" x2="202" y2="89" />
	<line x1="172" y1="93" x2="202" y2="113" />
	<line x1="172" y1="93" x2="172" y2="73" />
    <polygon points="202,113 244,85 244,65 219,71 202,89" style="fill:white" />
	<polygon points="202,113 202,89 199,91 172,73 172,93" style="fill:#bbb" />
	
	<line x1="162" y1="93" x2="168" y2="89" stroke="white" stroke-width="2"/>
	<line x1="162" y1="93" x2="168" y2="97" stroke="white" stroke-width="2"/>
	<line x1="174" y1="101" x2="186" y2="109" stroke="white" stroke-width="2"/>
	<line x1="192" y1="113" x2="204" y2="121" stroke="white" stroke-width="2"/>
	<line x1="210" y1="125" x2="222" y2="133" stroke="white" stroke-width="2"/>
	<line x1="228" y1="137" x2="240" y2="145" stroke="white" stroke-width="2"/>
	<line x1="246" y1="149" x2="258" y2="157" stroke="white" stroke-width="2"/>
	<line x1="264" y1="161" x2="270" y2="165" stroke="white" stroke-width="2"/>
	<line x1="270" y1="165" x2="276" y2="161" stroke="white" stroke-width="2"/>
	<line x1="282" y1="157" x2="294" y2="149" stroke="white" stroke-width="2"/>
	<line x1="300" y1="145" x2="312" y2="137" stroke="white" stroke-width="2"/>
	<line x1="318" y1="133" x2="324" y2="129" stroke="white" stroke-width="2"/>
	<line x1="324" y1="129" x2="318" y2="125" stroke="white" stroke-width="2"/>
	<line x1="312" y1="121" x2="300" y2="113" stroke="white" stroke-width="2"/>
	<line x1="294" y1="109" x2="282" y2="101" stroke="white" stroke-width="2"/>
	<line x1="278" y1="97" x2="266" y2="89" stroke="white" stroke-width="2"/>
	<line x1="260" y1="85" x2="248" y2="77" stroke="white" stroke-width="2"/>
	
	<line x1="234" y1="107" x2="270" y2="83" stroke="white" stroke-width="2"/>
	<line x1="270" y1="83" x2="306" y2="107" stroke="white" stroke-width="2"/>
	<polygon points="234,107 270,83 306,107 270,131" style="fill:#FFAB91;" />

	<line x1="270" y1="155" x2="306" y2="131" stroke="white" stroke-width="2"/>
	<line x1="270" y1="131" x2="306" y2="107" stroke="white" stroke-width="2"/>
	<line x1="306" y1="107" x2="306" y2="131" stroke="white" stroke-width="2"/>
	<polygon points="270,155 270,131 306,107 306,131" style="fill:#FF7043;" />

	<line x1="234" y1="131" x2="234" y2="107" stroke="white" stroke-width="2"/>
	<line x1="234" y1="107" x2="270" y2="131" stroke="white" stroke-width="2"/>
	<line x1="270" y1="155" x2="270" y2="131" stroke="white" stroke-width="2"/>
	<line x1="234" y1="131" x2="270" y2="155" stroke="white" stroke-width="2"/>
	<polygon points="234,131 270,155 270,131 234,107" style="fill:#DD2C00;" />
  </g>
</svg>