<svg width="13" height="18" viewBox="0 0 13 18" fill="none" xmlns="http://www.w3.org/2000/svg">
<path d="M3.02344 11.6602V18H0.0585938V0.9375H6.58594C8.49219 0.9375 10.0039 1.43359 11.1211 2.42578C12.2461 3.41797 12.8086 4.73047 12.8086 6.36328C12.8086 8.03516 12.2578 9.33594 11.1562 10.2656C10.0625 11.1953 8.52734 11.6602 6.55078 11.6602H3.02344ZM3.02344 9.28125H6.58594C7.64062 9.28125 8.44531 9.03516 9 8.54297C9.55469 8.04297 9.83203 7.32422 9.83203 6.38672C9.83203 5.46484 9.55078 4.73047 8.98828 4.18359C8.42578 3.62891 7.65234 3.34375 6.66797 3.32812H3.02344V9.28125Z" fill="#3E3E3E"/>
</svg>
