<svg width="18" height="26" viewBox="0 0 18 26" fill="none" xmlns="http://www.w3.org/2000/svg">
<path d="M13.6702 1.00183C13.7003 0.997431 13.7309 1.00103 13.7589 1.01204L13.7824 1.02571C13.8163 1.04548 13.8426 1.07618 13.8569 1.11279C13.8711 1.14941 13.8726 1.18977 13.8609 1.22731L13.8604 1.22897L11.1983 9.87753L10.7999 11.1717H12.154H16.8257H16.8261C16.8601 11.1717 16.8933 11.1816 16.9216 11.2003C16.95 11.2189 16.9723 11.2455 16.9858 11.2766C16.9992 11.3078 17.0033 11.3422 16.9974 11.3756C16.9915 11.4091 16.9759 11.4401 16.9527 11.4648L16.9521 11.4654L4.42997 24.7692L4.42966 24.7696C4.40276 24.7982 4.36696 24.8168 4.32809 24.8225C4.28922 24.8281 4.24959 24.8205 4.21564 24.8007C4.18169 24.7809 4.15544 24.7503 4.14115 24.7137C4.12687 24.6771 4.1254 24.6368 4.13699 24.5992L4.13716 24.5987L6.80169 15.9477L7.20036 14.6534H5.846H1.17427H1.17387C1.13993 14.6534 1.10672 14.6435 1.07835 14.6248C1.04998 14.6062 1.0277 14.5796 1.01424 14.5485C1.00078 14.5173 0.996748 14.4829 1.00263 14.4495C1.00851 14.416 1.02406 14.385 1.04734 14.3604L1.04798 14.3597L13.5677 1.05581L13.5686 1.05486C13.5955 1.0262 13.6313 1.00751 13.6702 1.00183Z" fill="#FFDA73" stroke="#3E3E3E" stroke-width="2"/>
</svg>
