<svg width="18" height="24" viewBox="0 0 18 24" fill="none" xmlns="http://www.w3.org/2000/svg">
<path d="M13.4997 7.74942C13.5449 7.74939 13.5893 7.73711 13.6281 7.71386C13.6669 7.69062 13.6986 7.65729 13.72 7.61742C13.7413 7.57755 13.7515 7.53264 13.7493 7.48747C13.7471 7.44237 13.7328 7.3987 13.7078 7.3611C13.7078 7.36104 13.7078 7.36098 13.7077 7.36092L9.20798 0.611308C9.20797 0.611295 9.20796 0.611282 9.20795 0.611268C9.18512 0.577047 9.1542 0.548986 9.11793 0.529576C9.08164 0.510159 9.04113 0.5 8.99998 0.5C8.95882 0.5 8.9183 0.510159 8.88202 0.529576C8.84575 0.548985 8.81483 0.577046 8.792 0.611268C8.79199 0.611282 8.79198 0.611295 8.79197 0.611308L4.29223 7.36092C4.26718 7.39857 4.25281 7.4423 4.25065 7.48747C4.24849 7.53264 4.25862 7.57755 4.27996 7.61742C4.30131 7.65728 4.33306 7.69061 4.37185 7.71386L13.4997 7.74942ZM13.4997 7.74942H13.353H12.4506L12.929 8.51452L15.9635 13.3669C15.9635 13.3669 15.9635 13.367 15.9635 13.367C15.9635 13.367 15.9635 13.367 15.9635 13.367C15.9872 13.4048 16.0002 13.4483 16.0014 13.4929C16.0026 13.5375 15.9918 13.5816 15.9701 13.6206C15.9485 13.6596 15.9168 13.6922 15.8784 13.7148C15.8399 13.7375 15.7961 13.7494 15.7515 13.7494H15.465H14.6562L15.0177 14.4729L17.4732 19.3869L17.4735 19.3874C17.4926 19.4255 17.5016 19.4679 17.4997 19.5105C17.4978 19.5531 17.4851 19.5945 17.4627 19.6308C17.4403 19.667 17.409 19.697 17.3717 19.7177L17.6153 20.1544L17.3717 19.7177C17.3345 19.7385 17.2926 19.7494 17.25 19.7494H10.5H9.99998V20.2494V23.4994H7.99998V20.2494V19.7494H7.49998H0.749997C0.707358 19.7494 0.665434 19.7385 0.628209 19.7177L0.384616 20.1544L0.628203 19.7177C0.590975 19.697 0.559674 19.667 0.537278 19.6308C0.514881 19.5945 0.502133 19.5531 0.500245 19.5105C0.498358 19.4679 0.507393 19.4255 0.526492 19.3874L0.526689 19.387L2.98369 14.473L3.34549 13.7494H2.53648H2.24998C2.20535 13.7494 2.16153 13.7375 2.12308 13.7148C2.08463 13.6922 2.05295 13.6596 2.03131 13.6206C2.00968 13.5816 1.99889 13.5375 2.00006 13.4929C2.00123 13.4482 2.01432 13.4048 2.03797 13.3669L5.07097 8.51443L5.54913 7.74942H4.64698H4.50023C4.45501 7.74939 4.41065 7.73711 4.37186 7.71386L13.4997 7.74942ZM16.0023 14.2062L15.9122 14.0259L15.7515 14.1063L15.465 14.2494V14.7494H15.7148L17.9205 19.1634L16.0023 14.2062ZM16.0023 14.2062C16.0473 14.1903 16.0907 14.17 16.1321 14.1456C16.2475 14.0777 16.3426 13.9801 16.4075 13.863C16.4724 13.7459 16.5047 13.6136 16.5012 13.4797L16.0023 14.2062Z" fill="#1E8D58" stroke="#3E3E3E"/>
</svg>
